<svg width="209" height="100" viewBox="0 0 209 100" fill="none" xmlns="http://www.w3.org/2000/svg">
<path d="M93.906 40.7122H89.7712V22.6572H93.9749C97.6962 22.6572 99.5568 24.4489 99.5568 27.1365C99.5568 29.0661 98.4542 30.4443 96.8003 31.0645C98.9366 31.6847 100.384 33.063 100.384 35.4749C100.315 38.9894 97.834 40.7122 93.906 40.7122ZM93.906 24.2422H91.563V30.5132H93.8371C96.3868 30.5132 97.7651 29.135 97.7651 27.2743C97.7651 25.4137 96.5246 24.2422 93.906 24.2422ZM93.9749 32.0293H91.563V39.1962H94.1127C96.8692 39.1962 98.592 37.8868 98.592 35.6816C98.592 33.1319 96.8003 32.0293 93.9749 32.0293Z" fill="#212529"/>
<path d="M111.271 40.7118L110.996 39.0579C109.824 40.1605 108.377 40.9875 106.654 40.9875C104.518 40.9875 102.933 39.816 102.933 37.6108C102.933 34.7165 105.276 33.3382 110.858 32.7869V31.96C110.858 30.3061 109.893 29.5481 108.308 29.5481C106.861 29.5481 105.414 29.9615 104.036 30.6506L103.829 29.1346C105.276 28.5144 106.654 28.032 108.446 28.032C111.203 28.032 112.581 29.3413 112.581 31.8222V40.7118H111.271ZM110.858 34.1652C105.965 34.6476 104.656 35.8191 104.656 37.5419C104.656 38.8512 105.552 39.5403 106.861 39.5403C108.17 39.5403 109.687 38.7823 110.858 37.6797V34.1652Z" fill="#212529"/>
<path d="M117.543 25.4135C116.854 25.4135 116.302 24.8622 116.302 24.173C116.302 23.4839 116.854 22.9326 117.543 22.9326C118.232 22.9326 118.783 23.4839 118.783 24.173C118.783 24.7933 118.232 25.4135 117.543 25.4135ZM116.716 40.712V28.3078H118.37V40.712H116.716Z" fill="#212529"/>
<path d="M124.365 32.9247V40.7118H122.643V28.3076H123.883L124.296 30.8574C125.192 29.4791 126.639 28.1009 128.707 28.032L128.983 29.6859C126.915 29.8237 125.192 31.2709 124.365 32.9247Z" fill="#212529"/>
<path d="M139.733 40.712L139.389 38.9203C138.424 40.0229 137.183 40.9877 135.392 40.9877C132.635 40.9877 130.361 39.0581 130.361 34.8545C130.361 30.3063 132.98 28.1011 136.012 28.1011C137.252 28.1011 138.355 28.3078 139.251 28.7213V22.1746L140.974 21.8301V40.712H139.733ZM139.32 30.3752C138.355 29.8928 137.459 29.6172 136.15 29.6172C133.945 29.6172 132.222 31.2711 132.222 34.7856C132.222 37.8177 133.669 39.4027 135.598 39.4027C137.046 39.4027 138.217 38.5068 139.32 37.1975V30.3752Z" fill="#212529"/>
<path d="M164.678 40.919L161.784 38.0247C160.268 39.9542 158.27 41.0568 155.858 41.0568C152.343 41.0568 150.138 39.1273 150.138 36.164C150.138 33.4076 151.93 31.8226 154.411 30.6511C153.17 29.3417 152.55 28.2391 152.55 26.5852C152.55 24.2422 154.342 22.3816 157.236 22.3816C158.821 22.3816 160.268 22.7951 161.508 23.4842L161.164 25.2759C159.786 24.3801 158.407 23.8977 157.167 23.8977C155.306 23.8977 154.342 25.0003 154.342 26.4474C154.342 27.7568 154.893 28.6526 156.271 30.0309L161.577 35.406C162.266 34.0278 162.749 32.305 163.025 30.1687L164.678 30.5132C164.265 32.9252 163.645 34.9236 162.749 36.5086L166.539 40.3677L164.678 40.919ZM155.513 31.7537C153.239 32.7184 151.93 34.1656 151.93 36.0262C151.93 38.0247 153.515 39.5408 155.858 39.5408C157.718 39.5408 159.372 38.7138 160.682 36.9221L155.513 31.7537Z" fill="#212529"/>
<path d="M182.527 41.0569C177.634 41.0569 174.327 37.2667 174.327 31.6848C174.327 26.1029 177.703 22.3127 182.665 22.3127C184.732 22.3127 186.386 22.933 187.765 23.8288L187.489 25.6894C186.042 24.6558 184.526 23.9666 182.665 23.9666C178.668 23.9666 176.256 27.1366 176.256 31.6848C176.256 36.3019 178.737 39.403 182.665 39.403C184.595 39.403 186.386 38.6449 187.833 37.5424L188.109 39.2652C186.662 40.2988 184.664 41.0569 182.527 41.0569Z" fill="#212529"/>
<path d="M196.033 40.9882C192.863 40.9882 190.451 38.6451 190.451 34.5793C190.451 30.4446 192.863 28.1016 196.033 28.1016C199.272 28.1016 201.684 30.4446 201.684 34.5793C201.684 38.6451 199.203 40.9882 196.033 40.9882ZM196.033 29.5487C193.552 29.5487 192.243 31.6161 192.243 34.5793C192.243 37.4047 193.621 39.541 196.033 39.541C198.514 39.541 199.892 37.4736 199.892 34.5793C199.892 31.685 198.514 29.5487 196.033 29.5487Z" fill="#212529"/>
<path d="M204.578 40.7119V38.1621H206.577V40.7119H204.578Z" fill="#212529"/>
<path d="M92.321 60.0073H89.7712V49.0503H92.321C94.5951 49.0503 95.6977 50.1529 95.6977 51.8068C95.6977 52.9783 95.0086 53.8052 94.0438 54.2187C95.3531 54.5633 96.1801 55.3902 96.1801 56.9063C96.1801 58.9737 94.664 60.0073 92.321 60.0073ZM92.2521 50.0151H90.8738V53.8052H92.2521C93.8371 53.8052 94.5951 52.9783 94.5951 51.8068C94.5951 50.7042 93.8371 50.0151 92.2521 50.0151ZM92.321 54.77H90.8738V59.1115H92.3899C94.0438 59.1115 95.0775 58.3534 95.0775 56.9752C95.0775 55.4591 94.0438 54.77 92.321 54.77Z" fill="#212529"/>
<path d="M103.278 60.0069L103.071 58.9043C102.244 59.6623 101.417 60.1447 100.383 60.1447C98.8673 60.1447 98.1782 59.2488 98.1782 57.8706V52.4954H99.2119V57.6639C99.2119 58.6286 99.6254 59.1799 100.59 59.1799C101.348 59.1799 102.175 58.6975 103.002 57.8706V52.4265H104.036V60.0069H103.278Z" fill="#212529"/>
<path d="M106.586 60.007V48.8432L107.619 48.6365V60.007H106.586Z" fill="#212529"/>
<path d="M110.307 60.007V48.8432L111.34 48.6365V60.007H110.307Z" fill="#212529"/>
<path d="M114.58 50.7727C114.167 50.7727 113.822 50.4281 113.822 50.0146C113.822 49.6012 114.167 49.2566 114.58 49.2566C114.994 49.2566 115.338 49.6012 115.338 50.0146C115.269 50.3592 114.994 50.7727 114.58 50.7727ZM114.029 60.0069V52.4955H115.062V60.0069H114.029Z" fill="#212529"/>
<path d="M120.506 60.2142C118.576 60.2142 117.129 58.767 117.129 56.2862C117.129 53.8053 118.576 52.3582 120.506 52.3582C122.435 52.3582 123.883 53.8053 123.883 56.2862C123.951 58.767 122.435 60.2142 120.506 60.2142ZM120.506 53.254C118.99 53.254 118.232 54.4944 118.232 56.2862C118.232 58.009 119.059 59.3183 120.506 59.3183C122.022 59.3183 122.849 58.0779 122.849 56.2862C122.849 54.5634 122.022 53.254 120.506 53.254Z" fill="#212529"/>
<path d="M130.774 60.0074V54.839C130.774 53.8742 130.36 53.254 129.395 53.254C128.637 53.254 127.81 53.7364 126.983 54.5634V60.0074H125.95V52.496H126.777L126.983 53.5986C127.81 52.8405 128.637 52.3582 129.671 52.3582C131.187 52.3582 131.876 53.1851 131.876 54.6323V60.0074H130.774Z" fill="#212529"/>
<path d="M148.691 60.0073L148.002 50.7042L144.143 60.0763H143.316L139.526 50.7042L138.837 60.0073H137.803L138.699 49.0503H140.077L143.799 58.5602L147.589 49.0503H148.898L149.794 60.0073H148.691Z" fill="#212529"/>
<path d="M157.925 56.3551H152.688C152.688 58.2157 153.584 59.3183 155.1 59.3183C156.065 59.3183 156.961 58.9048 157.719 58.2157L157.856 59.1805C157.098 59.8007 156.134 60.2142 154.962 60.2142C152.964 60.2142 151.585 58.9048 151.585 56.2862C151.585 53.8742 152.964 52.3582 154.824 52.3582C156.892 52.3582 157.856 54.012 157.856 56.1483C157.925 56.2172 157.925 56.2862 157.925 56.3551ZM154.893 53.1851C153.722 53.1851 152.964 54.081 152.757 55.5281H156.823C156.754 54.1499 156.134 53.1851 154.893 53.1851Z" fill="#212529"/>
<path d="M160.957 55.3212V60.0072H159.924V52.4958H160.682L160.888 54.0119C161.44 53.1849 162.336 52.358 163.576 52.2891L163.783 53.2538C162.542 53.4606 161.509 54.2875 160.957 55.3212Z" fill="#212529"/>
<path d="M168.056 60.2142C166.126 60.2142 164.679 58.767 164.679 56.2862C164.679 53.7364 166.195 52.3582 168.125 52.3582C169.158 52.3582 169.917 52.7027 170.537 53.1162L170.33 54.1499C169.641 53.5297 168.883 53.254 168.056 53.254C166.609 53.254 165.713 54.4255 165.713 56.2172C165.713 58.0779 166.609 59.1805 168.125 59.1805C168.883 59.1805 169.641 58.9737 170.399 58.2846L170.537 59.2494C169.848 59.8696 169.021 60.2142 168.056 60.2142Z" fill="#212529"/>
<path d="M177.358 60.007V54.8386C177.358 53.8738 176.945 53.2536 175.98 53.2536C175.222 53.2536 174.395 53.736 173.568 54.5629V60.007H172.534V48.8432L173.568 48.6365V53.5982C174.326 52.909 175.153 52.3577 176.187 52.3577C177.703 52.3577 178.392 53.1847 178.392 54.6318V60.007H177.358Z" fill="#212529"/>
<path d="M185.353 60.0069L185.146 59.0421C184.457 59.6623 183.561 60.2136 182.527 60.2136C181.218 60.2136 180.322 59.5245 180.322 58.1462C180.322 56.3545 181.769 55.5965 185.146 55.2519V54.7695C185.146 53.7358 184.526 53.3224 183.561 53.3224C182.665 53.3224 181.769 53.598 181.011 54.0115L180.874 53.0467C181.769 52.6332 182.596 52.4265 183.63 52.4265C185.284 52.4265 186.18 53.1845 186.18 54.7695V60.0758H185.353V60.0069ZM185.146 56.0789C182.183 56.3545 181.356 57.1125 181.356 58.0773C181.356 58.9043 181.907 59.3177 182.734 59.3177C183.561 59.3177 184.457 58.9043 185.146 58.2151V56.0789Z" fill="#212529"/>
<path d="M193.416 60.0074V54.839C193.416 53.8742 193.002 53.254 192.037 53.254C191.279 53.254 190.452 53.7364 189.625 54.5634V60.0074H188.592V52.496H189.419L189.625 53.5986C190.452 52.8405 191.279 52.3582 192.313 52.3582C193.829 52.3582 194.518 53.1851 194.518 54.6323V60.0074H193.416Z" fill="#212529"/>
<path d="M199.135 60.1453C197.963 60.1453 197.205 59.6629 197.205 58.2847V53.3919H196.034V52.4961H197.205V49.8774L198.239 49.6707V52.4271H199.962L200.1 53.323H198.239V58.0779C198.239 58.836 198.515 59.1805 199.342 59.1805C199.548 59.1805 199.893 59.1116 200.031 59.1116L200.169 60.0075C199.962 60.0764 199.548 60.1453 199.135 60.1453Z" fill="#212529"/>
<path d="M204.234 60.1447C203.27 60.1447 202.167 59.8001 201.547 59.4556L201.754 58.4219C202.443 58.8354 203.339 59.2488 204.372 59.2488C205.406 59.2488 206.095 58.8354 206.095 58.0773C206.095 57.3193 205.682 56.9747 204.166 56.6302C202.512 56.2167 201.823 55.6654 201.823 54.425C201.823 53.2535 202.787 52.4265 204.372 52.4265C205.268 52.4265 206.026 52.6332 206.715 52.9089L206.509 53.8737C205.819 53.5291 205.061 53.2535 204.303 53.2535C203.27 53.2535 202.787 53.6669 202.787 54.2871C202.787 54.9074 203.201 55.2519 204.441 55.5276C206.233 56.01 207.06 56.5612 207.06 57.8706C206.991 59.3866 205.957 60.1447 204.234 60.1447Z" fill="#212529"/>
<path d="M89.7712 77.925V69.8623H93.9749V70.6203H90.5982V73.3768H93.2858L93.4236 74.1349H90.5982V77.3048H94.1127V78.0629H89.7712V77.925Z" fill="#212529"/>
<path d="M97.0761 78.0621C96.3181 78.0621 95.56 77.8553 95.0776 77.5797L95.2155 76.8217C95.6978 77.1662 96.387 77.4419 97.145 77.4419C97.903 77.4419 98.3854 77.0973 98.3854 76.546C98.3854 75.9947 98.0409 75.7191 96.9383 75.4434C95.6978 75.0988 95.2155 74.7543 95.2155 73.7895C95.2155 72.8937 95.9735 72.2734 97.0761 72.2734C97.7652 72.2734 98.3165 72.4113 98.7989 72.618L98.6611 73.376C98.1787 73.1004 97.6274 72.9626 97.0761 72.9626C96.3181 72.9626 95.9735 73.3071 95.9735 73.7206C95.9735 74.1341 96.2491 74.4097 97.2139 74.6854C98.5233 75.0299 99.1435 75.4434 99.1435 76.4082C99.1435 77.4419 98.3854 78.0621 97.0761 78.0621Z" fill="#212529"/>
<path d="M102.313 78.0627C101.418 78.0627 100.866 77.7182 100.866 76.6845V73.0321H100.039V72.343H100.866V70.4135L101.624 70.2756V72.343H102.934L103.071 73.0321H101.693V76.5467C101.693 77.098 101.9 77.3736 102.52 77.3736C102.727 77.3736 102.934 77.3047 103.003 77.3047L103.14 77.9249C102.934 77.9938 102.658 78.0627 102.313 78.0627Z" fill="#212529"/>
<path d="M104.38 77.9254V76.7539H105.276V77.9254H104.38Z" fill="#212529"/>
<path d="M109.894 77.925V69.8623H110.721V77.2359H113.822L113.96 77.994H109.894V77.925Z" fill="#212529"/>
<path d="M117.061 78.0621C115.614 78.0621 114.58 77.0284 114.58 75.1678C114.58 73.3071 115.682 72.2734 117.061 72.2734C118.508 72.2734 119.61 73.3071 119.61 75.1678C119.61 77.0284 118.508 78.0621 117.061 78.0621ZM117.061 72.9626C115.958 72.9626 115.338 73.8584 115.338 75.1678C115.338 76.4771 115.958 77.373 117.061 77.373C118.163 77.373 118.783 76.4771 118.783 75.1678C118.783 73.9273 118.163 72.9626 117.061 72.9626Z" fill="#212529"/>
<path d="M124.641 77.9243V74.1341C124.641 73.445 124.296 72.9626 123.607 72.9626C123.056 72.9626 122.436 73.3071 121.815 73.9273V77.9243H121.057V72.4113H121.678L121.815 73.2382C122.436 72.6869 123.056 72.2734 123.814 72.2734C124.916 72.2734 125.468 72.8936 125.468 73.9962V77.9243H124.641Z" fill="#212529"/>
<path d="M131.05 77.9249L130.912 77.0979C130.498 77.5803 129.947 77.9938 129.12 77.9938C127.88 77.9938 126.915 77.0979 126.915 75.2373C126.915 73.2389 128.087 72.2052 129.465 72.2052C130.016 72.2052 130.498 72.343 130.912 72.4808V69.6554L131.67 69.5176V77.9249H131.05ZM130.843 73.3078C130.43 73.101 130.016 72.9632 129.396 72.9632C128.431 72.9632 127.604 73.7212 127.604 75.2373C127.604 76.6156 128.224 77.3047 129.12 77.3047C129.809 77.3047 130.292 76.8912 130.774 76.3399V73.3078H130.843Z" fill="#212529"/>
<path d="M135.529 78.0621C134.082 78.0621 133.048 77.0284 133.048 75.1678C133.048 73.3071 134.15 72.2734 135.529 72.2734C136.976 72.2734 138.078 73.3071 138.078 75.1678C138.078 77.0284 136.976 78.0621 135.529 78.0621ZM135.529 72.9626C134.426 72.9626 133.806 73.8584 133.806 75.1678C133.806 76.4771 134.426 77.373 135.529 77.373C136.631 77.373 137.251 76.4771 137.251 75.1678C137.251 73.9273 136.631 72.9626 135.529 72.9626Z" fill="#212529"/>
<path d="M143.109 77.9243V74.1341C143.109 73.445 142.765 72.9626 142.075 72.9626C141.524 72.9626 140.904 73.3071 140.284 73.9273V77.9243H139.526V72.4113H140.146L140.284 73.2382C140.904 72.6869 141.524 72.2734 142.282 72.2734C143.385 72.2734 143.936 72.8936 143.936 73.9962V77.9243H143.109Z" fill="#212529"/>
<path d="M149.518 77.9249V70.827L147.795 71.5161L147.657 70.8959L149.587 70H150.207V77.9249H149.518Z" fill="#212529"/>
<path d="M154.548 74.8929C153.101 74.8929 152.136 73.9281 152.136 72.481C152.136 71.0338 153.17 69.8623 154.755 69.8623C156.409 69.8623 157.512 71.1027 157.512 73.239C157.512 75.9266 155.858 77.5116 153.308 78.1318L153.17 77.4427C155.031 77.0292 156.34 75.9955 156.685 74.2727C155.996 74.6173 155.306 74.8929 154.548 74.8929ZM156.754 73.239C156.754 71.5851 155.927 70.5514 154.755 70.5514C153.653 70.5514 152.963 71.3095 152.963 72.4121C152.963 73.4458 153.584 74.2038 154.686 74.2038C155.444 74.2038 156.133 73.9281 156.754 73.4458C156.754 73.3768 156.754 73.3079 156.754 73.239Z" fill="#212529"/>
<path d="M161.922 73.1706C163.369 73.1706 164.334 74.0665 164.334 75.5137C164.334 77.0297 163.232 78.0634 161.715 78.0634C160.13 78.0634 158.959 76.823 158.959 74.6867C158.959 71.9991 160.613 70.4831 163.094 69.7939L163.232 70.4831C161.371 70.9655 160.13 71.9991 159.855 73.7908C160.406 73.4463 161.095 73.1706 161.922 73.1706ZM159.717 74.6867C159.717 76.2717 160.544 77.3743 161.715 77.3743C162.818 77.3743 163.507 76.6163 163.507 75.5137C163.507 74.48 162.956 73.7908 161.784 73.7908C161.026 73.8598 160.337 74.2043 159.717 74.6867Z" fill="#212529"/>
<path d="M166.746 77.9938L165.988 77.7871L169.158 70.6891H165.092L164.954 70H169.984V70.5513L166.746 77.9938Z" fill="#212529"/>
<path d="M43.1428 61.1695V66.7115C44.0381 67.0952 44.8907 67.5642 45.6581 68.0757C47.7896 66.9673 50.0064 66.1147 52.3511 65.4752V61.1695C50.4327 60.4874 48.8127 60.1464 47.4912 60.1464C46.127 60.1037 44.6349 60.4448 43.1428 61.1695Z" fill="#212529"/>
<path d="M43.143 48.2937C45.9993 46.5884 48.1308 44.7979 49.495 42.9648C50.8592 41.1317 51.5413 39.1706 51.5413 37.0391C51.5413 35.2912 50.9871 33.7991 49.9213 32.5202C48.8555 31.2413 47.1929 30.1329 44.9761 29.1523C42.7167 30.1755 41.182 31.0281 40.4146 31.7528C39.6472 32.4776 39.093 33.2876 38.7946 34.2681C38.4962 35.2486 38.3257 36.8686 38.3257 39.1706V51.9599C38.3257 54.262 38.1125 55.9672 37.6862 57.1183C37.2599 58.2693 36.4499 59.4204 35.2989 60.5288C34.1052 61.6372 31.7179 63.2571 28.0942 65.3887C30.0553 65.0903 31.8884 64.9624 33.551 64.9624C36.4073 64.9624 39.1357 65.3461 41.6935 66.156V40.1511H43.0577V48.2937H43.143Z" fill="#212529"/>
<path d="M58.7455 65.6883C51.3277 66.5409 45.0183 69.0987 39.8174 73.4471C37.9842 72.2108 36.279 71.3155 34.659 70.804C32.0159 69.9087 29.2022 69.4824 26.2181 69.4824C22.5518 69.4824 19.5676 70.2498 17.3508 71.7419C15.8587 72.7224 15.0914 73.7455 15.0914 74.726C15.0914 75.1097 15.3045 75.6639 15.7308 76.3886C16.1572 77.1134 16.3703 77.7102 16.3703 78.1365C16.3703 78.5628 16.1998 78.9039 15.9014 79.2449C15.6029 79.5433 15.2619 79.7139 14.8782 79.7139C14.2814 79.7139 13.7698 79.4581 13.3009 78.9039C12.8319 78.3497 12.6188 77.6249 12.6188 76.7723C12.6188 75.9623 12.9172 75.0244 13.4714 74.0013C14.0256 72.9781 15.3045 71.4861 17.1803 69.5677C19.0987 67.6493 20.2924 66.1998 20.8466 65.3046C21.3581 64.4093 21.6566 63.5567 21.6566 62.7893C21.6566 61.8941 21.3581 61.1267 20.7187 60.5299C20.1218 59.9331 19.3118 59.6347 18.4166 59.6347C17.564 59.6347 16.8819 59.8904 16.3277 60.3594C15.7735 60.8283 15.4324 61.6383 15.2193 62.7467H14.0682C14.0256 62.363 14.0256 62.0646 14.0256 61.8941C14.0256 60.1462 14.6224 58.6968 15.7735 57.5884C16.9671 56.48 18.5019 55.9258 20.4629 55.9258C20.676 55.9258 21.0597 55.9258 21.5287 55.9684C21.5287 53.9221 21.1876 52.43 20.6334 51.5348C19.7382 50.0427 18.3313 49.318 16.4556 49.318C15.3045 49.318 14.2814 49.6164 13.3861 50.2132C12.9172 50.5116 12.4483 51.1511 11.9367 52.1316L10.743 51.7053C10.9562 49.7016 11.7235 48.1243 13.0877 46.9306C14.4519 45.7369 16.1572 45.1401 18.2461 45.1401C19.0134 45.1401 19.9939 45.1827 21.1024 45.3106C21.1876 42.3691 21.4434 40.2375 21.9123 38.916C22.3813 37.5944 23.1486 36.3581 24.2144 35.2497C25.2802 34.1413 27.3691 32.6066 30.3533 30.6029C27.497 31.5408 25.067 32.0098 23.106 32.0098C21.8271 32.0098 20.1645 31.754 18.1182 31.2424C16.9245 30.9866 16.0719 30.8161 15.6029 30.8161C14.6651 30.8161 13.8551 31.1145 13.2156 31.754C12.5761 32.3934 12.1498 33.5019 11.9367 35.1218H10.743C10.7856 33.2034 11.1693 31.6261 11.8088 30.3472C12.4483 29.0682 13.4288 28.0451 14.7503 27.2351C16.0719 26.4677 17.4361 26.0414 18.9282 26.0414C19.9939 26.0414 21.8271 26.3398 24.3423 26.9793C26.8575 27.6188 28.9038 27.9172 30.4812 27.9172C31.6322 27.9172 32.7406 27.7893 33.8064 27.5335C34.8722 27.2777 36.279 26.7662 38.0269 26.0414L38.6663 27.4483C34.1474 29.6224 31.1633 31.754 29.6712 33.8429C28.1791 35.9318 27.4117 38.6602 27.4117 42.1133V54.9452C27.4117 57.7589 27.1133 59.9331 26.4739 61.5104C25.8344 63.0878 24.5981 64.8356 22.6797 66.8393C26.346 65.2619 28.8612 63.5993 30.0975 61.8088C31.3764 60.0183 32.0159 57.3752 32.0159 53.9221V44.7564C32.0159 40.4507 32.3996 37.4239 33.1243 35.676C33.8917 33.9282 35.2558 32.3934 37.2595 31.1571C39.2632 29.8782 43.6542 28.2156 50.4325 26.1267C52.6067 26.7235 54.2266 27.5761 55.3351 28.6845C56.9124 30.2619 57.6798 32.095 57.6798 34.1413C57.6798 35.8466 57.0829 37.5518 55.8466 39.3849C54.6103 41.1754 52.3935 43.307 49.1109 45.8222C51.8819 46.078 53.9282 46.5469 55.2498 47.1864C56.5287 47.8685 57.4666 48.7211 57.9782 49.7443C58.4897 50.7674 58.7455 52.5153 58.7455 54.9452V65.6883ZM65.8649 15H7.03412C3.15469 15 0 18.1547 0 22.0341V78.2218C0 82.1012 3.15469 85.2559 7.03412 85.2559H65.8649C69.7443 85.2559 72.899 82.1012 72.899 78.2218V22.0341C72.899 18.1547 69.7443 15 65.8649 15Z" fill="#212529"/>
<path d="M43.1428 54.1345V59.6766C44.7628 59.0797 46.2549 58.7813 47.6191 58.7813C48.9833 58.7813 50.5606 59.0797 52.3511 59.6766V54.1345C50.6032 54.774 49.0685 55.0724 47.747 55.0724C46.3401 55.0724 44.7628 54.774 43.1428 54.1345Z" fill="#212529"/>
<path d="M47.747 46.8447C45.4875 48.3368 43.9528 49.3173 43.1428 49.7436V52.7704C44.8481 53.3673 46.3828 53.6657 47.747 53.6657C49.1112 53.6657 50.6459 53.3673 52.3511 52.7704C52.3511 51.321 52.0101 50.1699 51.3706 49.3173C50.7738 48.4221 49.5375 47.6121 47.747 46.8447Z" fill="#212529"/>
</svg>
