<svg width="234" height="100" viewBox="0 0 234 100" fill="none" xmlns="http://www.w3.org/2000/svg">
<g clip-path="url(#clip0_32937_25762)">
<mask id="mask0_32937_25762" style="mask-type:luminance" maskUnits="userSpaceOnUse" x="0" y="20" width="189" height="43">
<path d="M188.614 20V62.3003H0V20H188.614Z" fill="white"/>
</mask>
<g mask="url(#mask0_32937_25762)">
<mask id="mask1_32937_25762" style="mask-type:luminance" maskUnits="userSpaceOnUse" x="181" y="35" width="8" height="8">
<path d="M185.135 35.7344C187.057 35.7344 188.614 37.2918 188.614 39.2129C188.614 41.134 187.057 42.6915 185.135 42.6915C183.214 42.6915 181.657 41.134 181.657 39.2129C181.657 37.2918 183.214 35.7344 185.135 35.7344Z" fill="white"/>
</mask>
<g mask="url(#mask1_32937_25762)">
<path d="M181.657 35.7344H188.614V42.6915H181.657V35.7344Z" fill="#212529"/>
</g>
<mask id="mask2_32937_25762" style="mask-type:luminance" maskUnits="userSpaceOnUse" x="-1" y="20" width="62" height="43">
<path d="M30.0291 20C46.6291 20 60.0863 33.4567 60.0863 50.0567C60.0863 54.4177 59.1566 58.5607 57.4861 62.3003H2.57216C0.90158 58.5607 -0.0275879 54.4177 -0.0275879 50.0567C-0.0275879 33.4567 13.4291 20 30.0291 20Z" fill="white"/>
</mask>
<g mask="url(#mask2_32937_25762)">
<path d="M0 20H60.0864V62.3003H0V20Z" fill="#212529"/>
</g>
</g>
<mask id="mask3_32937_25762" style="mask-type:luminance" maskUnits="userSpaceOnUse" x="71" y="37" width="18" height="26">
<path d="M76.5087 37.9346V46.592C77.3174 45.901 78.1371 45.3381 78.9729 44.9095C79.8141 44.4813 80.7836 44.267 81.8822 44.267C83.9338 44.267 85.5196 45.0652 86.6338 46.6671C87.7484 48.269 88.3053 50.4868 88.3053 53.321C88.3053 56.1227 87.5927 58.3886 86.1676 60.1192C84.743 61.8498 82.9803 62.7176 80.8747 62.7176C79.9964 62.7176 79.2302 62.6159 78.5818 62.4176C77.9338 62.2138 77.2427 61.9034 76.5087 61.4853L76.2728 62.364H71.012V37.9346H76.5087ZM79.412 48.5419C78.9193 48.5419 78.432 48.6225 77.9443 48.7778C77.4571 48.933 76.9799 49.1689 76.5087 49.4848V58.3245C76.8727 58.4692 77.2427 58.5709 77.6178 58.619C77.9874 58.6726 78.3569 58.6996 78.721 58.6996C80.055 58.6996 81.0464 58.2604 81.6999 57.3816C82.3534 56.5028 82.6804 55.1904 82.6804 53.4332C82.6804 51.6761 82.4125 50.4222 81.8822 49.6726C81.3464 48.917 80.5212 48.5419 79.412 48.5419Z" fill="white"/>
</mask>
<g mask="url(#mask3_32937_25762)">
<path d="M71.012 37.9346H88.3053V62.7176H71.012V37.9346Z" fill="#212529"/>
</g>
<mask id="mask4_32937_25762" style="mask-type:luminance" maskUnits="userSpaceOnUse" x="89" y="37" width="6" height="26">
<path d="M94.7865 37.9346V62.364H89.2898V37.9346H94.7865Z" fill="white"/>
</mask>
<g mask="url(#mask4_32937_25762)">
<path d="M89.2898 37.9346H94.7865V62.364H89.2898V37.9346Z" fill="#212529"/>
</g>
<mask id="mask5_32937_25762" style="mask-type:luminance" maskUnits="userSpaceOnUse" x="96" y="44" width="17" height="19">
<path d="M101.55 44.749V53.4816C101.55 54.3924 101.571 55.137 101.62 55.7104C101.668 56.2837 101.78 56.771 101.963 57.1675C102.129 57.5316 102.391 57.8105 102.745 57.9978C103.093 58.1856 103.585 58.2817 104.218 58.2817C104.609 58.2817 105.07 58.1856 105.6 57.9978C106.136 57.8105 106.629 57.5531 107.079 57.2317V44.749H112.575V62.3643H107.079V60.4144C106.125 61.2126 105.252 61.8125 104.454 62.2251C103.661 62.6372 102.713 62.8465 101.614 62.8465C99.8624 62.8465 98.5014 62.2947 97.5214 61.191C96.5409 60.0874 96.0532 58.4264 96.0532 56.2141V44.749H101.55Z" fill="white"/>
</mask>
<g mask="url(#mask5_32937_25762)">
<path d="M96.0532 44.749H112.575V62.8465H96.0532V44.749Z" fill="#212529"/>
</g>
<mask id="mask6_32937_25762" style="mask-type:luminance" maskUnits="userSpaceOnUse" x="113" y="44" width="56" height="25">
<path d="M168.496 44.2031V68.7659H113.442V44.2031H168.496Z" fill="white"/>
</mask>
<g mask="url(#mask6_32937_25762)">
<mask id="mask7_32937_25762" style="mask-type:luminance" maskUnits="userSpaceOnUse" x="113" y="44" width="19" height="19">
<path d="M122.876 44.2031C125.582 44.2031 127.618 44.9317 128.979 46.3889C130.345 47.841 131.025 49.9247 131.025 52.6412V54.6177H118.939C118.992 55.4374 119.164 56.1179 119.458 56.6697C119.753 57.2216 120.139 57.6557 120.626 57.9822C121.098 58.3037 121.65 58.5395 122.277 58.6787C122.909 58.8234 123.595 58.893 124.339 58.893C124.982 58.893 125.609 58.8234 126.23 58.6787C126.851 58.534 127.419 58.3467 127.934 58.1109C128.384 57.9076 128.802 57.6932 129.182 57.4574C129.568 57.2216 129.878 57.0178 130.119 56.836H130.704V61.3843C130.254 61.561 129.841 61.7273 129.471 61.877C129.096 62.0323 128.588 62.188 127.939 62.3432C127.339 62.4984 126.723 62.6216 126.091 62.7128C125.453 62.8039 124.682 62.8469 123.771 62.8469C120.439 62.8469 117.884 62.0538 116.105 60.4629C114.331 58.8715 113.442 56.6056 113.442 53.6642C113.442 50.7874 114.273 48.4945 115.928 46.7745C117.584 45.0604 119.903 44.2031 122.876 44.2031ZM122.459 47.7069C121.376 47.7069 120.535 48.0283 119.93 48.6768C119.325 49.3197 118.987 50.1981 118.923 51.3072H125.625C125.593 50.134 125.319 49.2391 124.81 48.6282C124.296 48.0123 123.514 47.7069 122.459 47.7069Z" fill="white"/>
</mask>
<g mask="url(#mask7_32937_25762)">
<path d="M113.442 44.2031H131.025V62.8469H113.442V44.2031Z" fill="#212529"/>
</g>
<mask id="mask8_32937_25762" style="mask-type:luminance" maskUnits="userSpaceOnUse" x="151" y="44" width="18" height="25">
<path d="M162.051 44.2356C164.103 44.2356 165.689 45.0448 166.808 46.6682C167.933 48.2911 168.496 50.4934 168.496 53.2896C168.496 56.1023 167.778 58.3737 166.348 60.0988C164.912 61.8238 163.144 62.6866 161.044 62.6866C160.165 62.6866 159.399 62.5845 158.746 62.3862C158.097 62.1884 157.401 61.8829 156.667 61.4648V68.7938H151.17V44.7178H156.667V46.5555C157.476 45.8695 158.301 45.3072 159.142 44.8785C159.978 44.4499 160.953 44.2356 162.051 44.2356ZM159.587 48.511C159.094 48.511 158.601 48.5911 158.113 48.7468C157.621 48.902 157.138 49.1379 156.667 49.4539V58.3201C156.962 58.4488 157.283 58.5399 157.637 58.588C157.99 58.6416 158.408 58.6686 158.895 58.6686C160.24 58.6686 161.242 58.229 161.89 57.3557C162.544 56.4828 162.871 55.1704 162.871 53.4078C162.871 51.6932 162.603 50.4449 162.073 49.6732C161.542 48.8965 160.712 48.511 159.587 48.511Z" fill="white"/>
</mask>
<g mask="url(#mask8_32937_25762)">
<path d="M151.17 44.2356H168.496V68.7663H151.17V44.2356Z" fill="#212529"/>
</g>
</g>
<mask id="mask9_32937_25762" style="mask-type:luminance" maskUnits="userSpaceOnUse" x="168" y="39" width="14" height="24">
<path d="M175.835 39.6709V44.7174H181.138V48.5426H175.835V54.8C175.835 55.4214 175.84 55.9627 175.85 56.4234C175.861 56.8841 175.947 57.2967 176.102 57.6663C176.247 58.0308 176.51 58.3252 176.879 58.5396C177.254 58.7539 177.795 58.861 178.508 58.861C178.802 58.861 179.188 58.7965 179.665 58.6682C180.142 58.5396 180.479 58.4219 180.667 58.3143H181.138V62.1825C180.544 62.3432 179.906 62.4664 179.236 62.5521C178.567 62.6432 177.742 62.6862 176.767 62.6862C174.527 62.6862 172.893 62.2256 171.87 61.3037C170.847 60.3823 170.338 58.8771 170.338 56.7824V48.5426H168.249V44.7174H170.338V39.6709H175.835Z" fill="white"/>
</mask>
<g mask="url(#mask9_32937_25762)">
<path d="M168.249 39.6709H181.138V62.6862H168.249V39.6709Z" fill="#212529"/>
</g>
<mask id="mask10_32937_25762" style="mask-type:luminance" maskUnits="userSpaceOnUse" x="182" y="44" width="6" height="19">
<path d="M187.811 44.7168V62.3316H182.314V44.7168H187.811Z" fill="white"/>
</mask>
<g mask="url(#mask10_32937_25762)">
<path d="M182.314 44.7168H187.811V62.3316H182.314V44.7168Z" fill="#212529"/>
</g>
<mask id="mask11_32937_25762" style="mask-type:luminance" maskUnits="userSpaceOnUse" x="189" y="44" width="28" height="19">
<path d="M211.122 44.2344C211.974 44.2344 212.73 44.3631 213.403 44.6259C214.077 44.8883 214.649 45.2794 215.116 45.8042C215.628 46.3666 216.007 47.0365 216.263 47.8187C216.519 48.5954 216.646 49.6134 216.646 50.8668V62.3314H210.939V53.5348C210.939 52.667 210.922 51.9329 210.889 51.3385C210.855 50.7436 210.761 50.2563 210.594 49.8813C210.433 49.5062 210.177 49.2278 209.832 49.0561C209.487 48.8848 209.009 48.7987 208.386 48.7987C207.946 48.7987 207.518 48.8903 207.089 49.0721C206.667 49.2544 206.199 49.5168 205.699 49.8492V62.3314H199.991V53.5348C199.991 52.6775 199.975 51.9489 199.936 51.349C199.897 50.7436 199.796 50.2563 199.63 49.8813C199.469 49.5062 199.213 49.2278 198.868 49.0561C198.528 48.8848 198.05 48.7987 197.438 48.7987C196.965 48.7987 196.509 48.9063 196.064 49.1151C195.614 49.324 195.179 49.5653 194.751 49.8492V62.3314H189.043V44.7166H194.751V46.667C195.685 45.9008 196.565 45.306 197.388 44.8773C198.217 44.4487 199.146 44.2344 200.175 44.2344C201.293 44.2344 202.278 44.4917 203.123 45.0005C203.974 45.5148 204.62 46.2809 205.065 47.2934C206.16 46.3079 207.195 45.5523 208.169 45.0275C209.137 44.4972 210.127 44.2344 211.122 44.2344Z" fill="white"/>
</mask>
<g mask="url(#mask11_32937_25762)">
<path d="M189.043 44.2344H216.646V62.3314H189.043V44.2344Z" fill="#212529"/>
</g>
<mask id="mask12_32937_25762" style="mask-type:luminance" maskUnits="userSpaceOnUse" x="217" y="44" width="18" height="19">
<path d="M225.43 44.1709C228.463 44.1709 230.67 44.6746 232.057 45.6872C233.445 46.6997 234.136 48.2425 234.136 50.3211V62.332H228.639V60.4627C228.264 60.7787 227.927 61.0626 227.632 61.3145C227.332 61.5609 226.936 61.8127 226.432 62.0641C225.944 62.3055 225.468 62.4928 225.002 62.6215C224.541 62.7501 223.893 62.8143 223.057 62.8143C221.503 62.8143 220.212 62.2894 219.189 61.2394C218.16 60.1893 217.646 58.8714 217.646 57.275C217.646 55.9625 217.909 54.9014 218.428 54.0977C218.948 53.289 219.698 52.6461 220.679 52.1748C221.669 51.6926 222.853 51.3551 224.23 51.1678C225.607 50.9801 227.086 50.8354 228.671 50.7282V50.632C228.671 49.6621 228.312 48.9871 227.6 48.6175C226.888 48.248 225.816 48.0602 224.391 48.0602C223.743 48.0602 222.987 48.1784 222.125 48.4137C221.262 48.6496 220.416 48.9495 219.591 49.3141H219.125V45.0497C219.671 44.894 220.544 44.7067 221.761 44.4924C222.971 44.2781 224.198 44.1709 225.43 44.1709ZM228.639 54.0391C227.718 54.1353 226.968 54.2159 226.4 54.2855C225.827 54.3496 225.269 54.4838 224.718 54.6871C224.241 54.8534 223.871 55.1107 223.603 55.4482C223.341 55.7908 223.207 56.2464 223.207 56.8143C223.207 57.6445 223.427 58.2124 223.866 58.5233C224.311 58.8338 224.959 58.989 225.821 58.989C226.298 58.989 226.786 58.8769 227.284 58.657C227.782 58.4372 228.232 58.1267 228.639 57.7302V54.0391Z" fill="white"/>
</mask>
<g mask="url(#mask12_32937_25762)">
<path d="M217.646 44.1709H234.136V62.8143H217.646V44.1709Z" fill="#212529"/>
</g>
<mask id="mask13_32937_25762" style="mask-type:luminance" maskUnits="userSpaceOnUse" x="132" y="44" width="19" height="19">
<path d="M141.223 44.1709C144.117 44.1709 146.356 45.0066 147.947 46.6726C149.538 48.3391 150.337 50.6265 150.337 53.5304C150.337 56.4287 149.543 58.7106 147.958 60.3766C146.367 62.0431 144.127 62.8788 141.223 62.8788C138.342 62.8788 136.102 62.0431 134.505 60.3766C132.909 58.7106 132.111 56.4287 132.111 53.5304C132.111 50.605 132.909 48.3121 134.505 46.6566C136.102 45.0012 138.342 44.1709 141.223 44.1709ZM141.223 48.1248C140.731 48.1248 140.281 48.1994 139.884 48.3496C139.482 48.4998 139.113 48.7888 138.775 49.2174C138.465 49.6246 138.207 50.1819 138.02 50.8889C137.832 51.6015 137.736 52.4908 137.736 53.5624C137.736 54.639 137.827 55.5073 138.004 56.1658C138.181 56.8303 138.416 57.3551 138.7 57.7517C138.995 58.1588 139.359 58.4537 139.804 58.641C140.243 58.8283 140.736 58.9249 141.272 58.9249C141.711 58.9249 142.161 58.8283 142.622 58.641C143.077 58.4537 143.442 58.1748 143.715 57.7998C144.042 57.3501 144.288 56.8143 144.46 56.1823C144.626 55.5499 144.711 54.6766 144.711 53.5624C144.711 52.5229 144.626 51.6551 144.449 50.964C144.277 50.2675 144.036 49.7157 143.731 49.298C143.41 48.8584 143.04 48.5534 142.627 48.3817C142.22 48.2104 141.749 48.1248 141.223 48.1248Z" fill="white"/>
</mask>
<g mask="url(#mask13_32937_25762)">
<path d="M132.111 44.1709H150.337V62.8788H132.111V44.1709Z" fill="#212529"/>
</g>
</g>
<defs>
<clipPath id="clip0_32937_25762">
<rect width="234" height="100" fill="white"/>
</clipPath>
</defs>
</svg>
