<svg width="166" height="100" viewBox="0 0 166 100" fill="none" xmlns="http://www.w3.org/2000/svg">
<path d="M1.45865 24.3891L0.591064 85.5154L45.5816 82.6608L42.607 21.8447L1.45865 24.3891Z" fill="#212529"/>
<path d="M17.5089 45.1776L16.2695 44.9294L16.1456 44.3088C16.1456 44.3088 18.9962 43.8124 19.306 43.0056C19.306 43.0056 15.7737 43.9985 12.1794 44.1226H15.4639L15.7737 45.4258C15.7737 45.4258 16.4554 45.4879 17.5089 45.6741C17.5089 45.55 17.5089 45.3638 17.5089 45.1776Z" fill="#F6F7FB"/>
<path d="M26.1849 23.3955L17.1992 25.8157H27.3624C27.3624 25.8157 26.8046 23.954 26.1849 23.3955Z" fill="#F6F7FB"/>
<path d="M18.1909 73.3515L18.8106 73.1653L19.4923 75.2132L19.8021 75.027L19.5542 74.3444L19.8021 74.0962L20.1739 74.8408L20.4838 74.7167L20.1739 73.91L20.7936 73.4756L21.0415 74.4064L30.2131 69.628L29.4695 67.3319L30.0892 67.1457L30.8328 69.3177L31.0807 69.1936L30.8328 68.3248L31.0807 68.0766L31.5145 68.9454L31.7624 68.8213L31.4525 67.8284L32.0103 67.456L32.3821 68.511L34.2412 67.5801L31.3906 62.4915L28.7878 62.9259L28.6639 64.9117H27.9822L28.1061 62.9879L27.9202 63.05V63.2982L27.3005 63.4844V63.1741H27.0526L26.9907 63.7326L26.309 63.8567L26.371 63.2982L13.729 65.4081L16.8895 76.5784L18.9345 75.5235L18.1909 73.3515Z" fill="#F6F7FB"/>
<path d="M32.5678 69.0698L33.2495 71.0556L32.5678 71.2418L31.9481 69.4422L31.8241 69.5042L31.9481 69.8145L31.4523 70.1869L31.2664 69.7524L31.0185 69.9386L31.2664 70.5592L30.6467 70.9315L30.4608 70.2489L21.2892 75.0273L21.9709 77.0752L21.3511 77.2614L20.6695 75.3376L20.4836 75.4617L20.7314 75.8341L20.1737 76.2064L19.9878 75.7099L19.7399 75.8341L19.9878 76.5787L19.4301 76.9511L19.1202 76.1443L17.0752 77.2614L18.2526 81.6054L36.9057 72.3589L34.4889 68.0769L32.5678 69.0698Z" fill="#F6F7FB"/>
<path d="M36.9676 25.816L28.2918 24.3887C28.2918 24.3887 27.92 24.761 27.9819 25.816H30.027L29.4073 29.8497C29.4073 29.8497 33.9931 31.4011 35.5423 28.4844C35.5423 28.4844 35.2325 30.0979 32.6297 30.6564C33.6212 31.0288 35.3564 31.5253 36.5339 30.8426C36.5339 30.8426 34.7987 32.0838 31.8241 30.8426C31.3903 30.9047 30.8946 30.9047 30.2748 30.9047L29.4073 30.4703L28.2918 39.7789L26.1228 40.2133L26.0609 40.7718C28.9735 42.3232 29.4073 43.9367 29.4073 43.9367C28.9115 42.6335 25.813 41.5165 25.813 41.5165L25.5031 43.0679L22.9623 43.4402L22.5905 44.8675C25.2553 45.6743 25.5031 46.9154 25.5031 46.9154C24.8214 45.9225 22.3426 45.4881 22.3426 45.4881L21.8469 46.419L24.2018 47.536V51.1974L22.4046 53.6797C22.3426 53.7417 22.2807 53.8658 22.2187 53.9279C22.2807 53.8658 22.3426 53.7417 22.4046 53.6797C25.5651 49.2116 22.5905 47.4119 22.2187 47.2257C20.9173 46.6052 19.3061 46.1707 18.0667 45.9225C18.0047 49.4598 19.0582 56.224 27.3622 55.2932L31.2044 51.5697L37.4014 34.6281C37.4014 34.6281 37.4014 34.6281 37.4014 34.5661C37.5254 34.2558 38.5169 28.5465 36.9676 25.816Z" fill="#F6F7FB"/>
<path d="M17.5092 45.7366C16.5177 45.5504 15.774 45.4884 15.774 45.4884L15.4642 44.1852H12.1797C15.774 44.061 19.3063 43.0681 19.3063 43.0681C18.9965 43.8749 16.1459 44.3713 16.1459 44.3713L16.2698 44.9919L17.5092 45.2401C17.5092 44.9298 17.5092 44.5575 17.5712 44.1852L18.2529 43.8128C18.2529 43.8128 18.1289 44.4334 18.1289 45.3642L21.4753 45.9848L23.5203 37.6691L14.5346 35.1248L24.0781 36.9865L23.0246 43.0061L25.1316 42.5717L27.0526 31.029L15.9599 29.3535L27.7963 30.4705L26.247 39.7791L27.7963 39.2826L29.4075 26.4368L14.7825 26.0645C9.51502 30.7808 6.4165 43.5025 6.4165 43.5025L10.5685 54.1143L12.9234 62.6161L15.0924 61.8094V59.203H15.774V61.5612L16.0839 61.437V60.5062L16.3937 60.3821L16.5177 61.2509L16.8275 61.1268V60.258L17.5092 60.0718V60.8785L28.2921 56.8448L27.8583 56.0381C27.8583 56.1001 17.5712 58.0239 17.5092 45.7366Z" fill="#F6F7FB"/>
<path d="M26.5567 60.1329H27.2384L27.0525 62.6772L27.3623 62.6151L27.4243 61.4981L27.7342 61.374L27.8581 62.5531L28.168 62.491L28.2299 61.3119L28.9116 61.1878L28.7877 62.3669L31.1425 61.9946L28.5398 57.4023L17.571 61.5602V63.9184H16.8893V61.8084L16.6415 61.8705L16.7654 62.3049L16.0837 62.491V62.1187L15.8358 62.1808V62.8013L15.1542 62.9875V62.429L13.1091 63.2357L13.6049 64.8492L26.3708 62.8013L26.5567 60.1329Z" fill="#F6F7FB"/>
<path d="M21.1035 16.8179C21.1035 16.8179 26.9287 17.997 27.3625 24.3889L28.54 23.3339C28.54 23.3339 28.2301 17.4385 22.157 16.0732L21.1035 16.8179Z" fill="#212529"/>
<path d="M9.5769 15.7627C6.72627 17.0038 4.80518 18.9897 4.80518 18.9897C14.1007 25.1333 18.9344 19.7964 20.2358 17.9968C18.0049 18.7414 13.667 19.4241 9.5769 15.7627Z" fill="#212529"/>
<path d="M14.9064 14.1495C13.7909 13.0945 12.8613 11.6672 12.1797 9.6814C9.01918 9.18494 6.29248 9.92963 6.29248 9.92963C7.34598 12.1637 8.52342 13.8392 9.76283 15.0183C11.3121 14.4598 13.0473 14.0875 14.9064 14.1495Z" fill="#212529"/>
<path d="M19.9879 16.9416C18.5626 15.8866 17.1992 15.2661 15.8359 15.0178C13.8528 14.5834 11.9317 14.9558 10.2585 15.5143C14.3486 19.0515 18.6245 17.5001 19.9879 16.9416Z" fill="#212529"/>
<path d="M17.571 5.77153C15.0922 3.7857 12.3655 3.04102 12.3655 3.04102C12.1796 5.46125 12.3655 7.44708 12.7993 9.06056C14.4105 9.43291 16.0837 10.0535 17.571 11.1705C17.1372 9.68114 17.0752 7.88148 17.571 5.77153Z" fill="#212529"/>
<path d="M19.9258 15.5769C19.4301 14.3978 18.8104 13.4669 18.0667 12.7223C16.5794 11.1708 14.7823 10.302 13.0471 9.92969C13.8527 12.1637 15.1541 13.5911 16.5174 14.4599C17.7569 15.2666 19.0582 15.639 19.9878 15.8251C20.0498 15.8251 20.0498 15.8251 20.1117 15.8251C19.9878 15.701 19.9878 15.6389 19.9258 15.5769Z" fill="#212529"/>
<path d="M21.5371 10.0533C21.9709 8.50184 22.7766 6.88835 24.2638 5.39898C23.2723 2.23406 21.2893 0 21.2893 0C19.678 2.04789 18.7485 3.9096 18.3147 5.58515C19.6161 6.70218 20.7935 8.19155 21.5371 10.0533Z" fill="#212529"/>
<path d="M21.2273 11.6045C20.7935 9.30838 19.5541 7.57078 18.1287 6.26758C17.571 8.68781 18.0048 10.6116 18.6865 12.163C19.3062 13.4662 20.1738 14.3971 20.7935 15.0176C20.9794 15.1418 21.1033 15.3279 21.2273 15.39C21.2892 15.1418 21.2892 14.9556 21.3512 14.7074C21.4751 13.5903 21.4132 12.5354 21.2273 11.6045Z" fill="#212529"/>
<path d="M23.0864 15.7622C32.5059 13.2799 30.5229 2.41992 30.5229 2.41992C28.106 3.35078 26.3089 4.46781 25.0695 5.6469C25.8131 8.62564 25.7512 12.287 23.0864 15.7622Z" fill="#212529"/>
<path d="M24.5118 6.1438C22.7147 8.06757 22.1569 10.0534 22.095 11.791C22.033 12.7839 22.157 13.7148 22.3429 14.3974C22.4048 14.5836 22.4048 14.7698 22.4668 14.8939C25.0076 11.9151 25.1315 8.81226 24.5118 6.1438Z" fill="#212529"/>
<path d="M56.3027 29.8492C56.3027 28.0495 56.6746 23.085 63.2434 23.085C69.1306 23.085 70.0602 27.0566 70.1841 29.1666C70.1841 29.5389 69.9362 29.8492 69.5644 29.9733L66.4659 30.6559C65.9081 30.7801 65.4124 30.4077 65.3504 29.7871C65.2265 28.546 64.7307 27.8634 63.2434 27.8634C61.1984 27.8634 61.0745 29.1666 61.0745 31.2765V35.2482C61.0745 37.3581 61.1984 38.6613 63.2434 38.6613C64.7927 38.6613 65.1645 37.9166 65.3504 36.6755C65.4124 36.117 65.8462 35.7446 66.4039 35.8687L69.5024 36.5514C69.8742 36.6134 70.1221 36.9237 70.1221 37.3581C69.9982 39.4681 69.0686 43.4397 63.1815 43.4397C56.6746 43.5638 56.3027 38.6613 56.3027 36.7996V29.8492Z" fill="#212529"/>
<path d="M75.8231 23.6436C76.3808 23.6436 76.6287 23.8918 76.6287 24.4503V37.4203C76.6287 37.9167 76.9385 38.227 77.4343 38.227H83.6313C84.1891 38.227 84.437 38.4752 84.437 39.0337V42.1366C84.437 42.6951 84.1891 42.9433 83.6313 42.9433H72.7246C72.2288 42.9433 71.9189 42.6331 71.9189 42.1366V24.4503C71.9189 23.8918 72.2288 23.6436 72.7246 23.6436H75.8231Z" fill="#212529"/>
<path d="M99.8677 36.7996C99.8677 38.5993 99.4959 43.5638 92.927 43.5638C86.3582 43.5638 85.9863 38.6613 85.9863 36.7996V29.8492C85.9863 28.0495 86.3582 23.085 92.927 23.085C99.4959 23.085 99.8677 27.9875 99.8677 29.8492V36.7996ZM95.096 31.3386C95.096 29.2286 94.972 27.9254 92.927 27.9254C90.882 27.9254 90.7581 29.2286 90.7581 31.3386V35.3102C90.7581 37.4202 90.882 38.7234 92.927 38.7234C94.972 38.7234 95.096 37.4202 95.096 35.3102V31.3386Z" fill="#212529"/>
<path d="M115.67 36.7996C115.67 38.5993 115.298 43.5638 108.729 43.5638C102.161 43.5638 101.789 38.6613 101.789 36.7996V29.8492C101.789 28.0495 102.161 23.085 108.729 23.085C115.298 23.085 115.67 27.9875 115.67 29.8492V36.7996ZM110.898 31.3386C110.898 29.2286 110.775 27.9254 108.729 27.9254C106.684 27.9254 106.561 29.2286 106.561 31.3386V35.3102C106.561 37.4202 106.684 38.7234 108.729 38.7234C110.775 38.7234 110.898 37.4202 110.898 35.3102V31.3386Z" fill="#212529"/>
<path d="M122.673 23.6436C123.169 23.6436 123.478 23.8297 123.664 24.2641L127.444 33.5106C127.568 33.7589 127.754 33.6968 127.754 33.4486V24.4503C127.754 23.8918 128.064 23.6436 128.56 23.6436H131.658C132.216 23.6436 132.464 23.8918 132.464 24.4503V42.1987C132.464 42.6951 132.216 43.0054 131.658 43.0054H127.568C127.073 43.0054 126.763 42.8192 126.577 42.3848L122.797 33.1383C122.673 32.8901 122.487 32.9521 122.487 33.2004V42.1366C122.487 42.6331 122.239 42.9433 121.681 42.9433H118.583C118.087 42.9433 117.777 42.6331 117.777 42.1366V24.4503C117.777 23.8918 118.087 23.6436 118.583 23.6436H122.673Z" fill="#212529"/>
<path d="M147.337 23.6436C147.895 23.6436 148.143 23.8918 148.143 24.4503V27.5532C148.143 28.0496 147.895 28.3599 147.337 28.3599H140.644C140.149 28.3599 139.839 28.6081 139.839 29.1666V30.0354C139.839 30.5319 140.149 30.8422 140.644 30.8422H144.92C145.478 30.8422 145.726 31.0904 145.726 31.6489V34.7518C145.726 35.2483 145.478 35.5585 144.92 35.5585H140.644C140.149 35.5585 139.839 35.8068 139.839 36.3653V37.4203C139.839 37.9167 140.149 38.227 140.644 38.227H147.337C147.895 38.227 148.143 38.4752 148.143 39.0337V42.1366C148.143 42.6951 147.895 42.9433 147.337 42.9433H135.687C135.191 42.9433 134.881 42.6331 134.881 42.1366V24.4503C134.881 23.8918 135.191 23.6436 135.687 23.6436H147.337Z" fill="#212529"/>
<path d="M154.278 23.6436C154.773 23.6436 155.083 23.8297 155.207 24.2641L157.252 29.4149C157.376 29.6631 157.5 29.6631 157.624 29.4149L159.669 24.2641C159.855 23.8297 160.165 23.6436 160.599 23.6436H164.565C165.184 23.6436 165.494 24.0159 165.184 24.6365L160.227 35.7447C160.165 35.8688 160.165 35.9929 160.165 36.055V42.2607C160.165 42.7572 159.917 43.0675 159.359 43.0675H155.455C154.959 43.0675 154.65 42.7572 154.65 42.2607V36.055C154.65 35.9309 154.65 35.8068 154.588 35.7447L149.63 24.6365C149.382 24.078 149.63 23.6436 150.25 23.6436H154.278Z" fill="#212529"/>
<path d="M65.2883 49.0869C65.6601 49.0869 65.908 49.2731 65.908 49.7075V51.9415C65.908 52.3139 65.7221 52.5621 65.2883 52.5621H60.3307C59.9589 52.5621 59.711 52.7483 59.711 53.1827V53.8033C59.711 54.1756 59.9589 54.4238 60.3307 54.4238H63.6151C63.9869 54.4238 64.2348 54.61 64.2348 55.0444V57.2785C64.2348 57.6508 64.0489 57.899 63.6151 57.899H60.3307C59.9589 57.899 59.711 58.0852 59.711 58.5196V62.5533C59.711 62.9257 59.5251 63.1739 59.0913 63.1739H56.7364C56.3646 63.1739 56.1167 62.9257 56.1167 62.5533V49.7075C56.1167 49.3351 56.3646 49.0869 56.7364 49.0869H65.2883Z" fill="#212529"/>
<path d="M76.9387 58.5199C76.9387 59.8231 76.6908 63.3603 71.9811 63.3603C67.2713 63.3603 67.0234 59.8231 67.0234 58.5199V53.5553C67.0234 52.2521 67.2713 48.7148 71.9811 48.7148C76.6908 48.7148 76.9387 52.2521 76.9387 53.5553V58.5199ZM73.5303 54.6103C73.5303 53.0588 73.4064 52.128 71.9811 52.128C70.4938 52.128 70.4318 53.0588 70.4318 54.6103V57.4649C70.4318 59.0163 70.5558 59.9472 71.9811 59.9472C73.4684 59.9472 73.5303 59.0163 73.5303 57.4649V54.6103Z" fill="#212529"/>
<path d="M81.2147 49.0869C81.5866 49.0869 81.8345 49.2731 81.8345 49.7075V57.4646C81.8345 59.0161 81.9584 59.9469 83.3837 59.9469C84.871 59.9469 84.933 59.0161 84.933 57.4646V49.7075C84.933 49.3351 85.1809 49.0869 85.5527 49.0869H87.7836C88.1554 49.0869 88.4033 49.2731 88.4033 49.7075V58.5196C88.4033 59.8228 88.1554 63.3601 83.4457 63.3601C78.7359 63.3601 78.488 59.8228 78.488 58.5196V49.7075C78.488 49.3351 78.7359 49.0869 79.1077 49.0869H81.2147Z" fill="#212529"/>
<path d="M93.5465 49.0869C93.8563 49.0869 94.1042 49.211 94.2282 49.5213L96.8929 56.0994C96.9549 56.2855 97.1408 56.2235 97.1408 56.0373V49.7075C97.1408 49.3351 97.3886 49.0869 97.7605 49.0869H99.9914C100.363 49.0869 100.611 49.2731 100.611 49.7075V62.3672C100.611 62.7395 100.425 62.9877 99.9914 62.9877H97.0788C96.7689 62.9877 96.5211 62.8636 96.3971 62.5533L93.7324 55.9753C93.6704 55.7891 93.4845 55.8511 93.4845 56.0373V62.4292C93.4845 62.8016 93.2986 63.0498 92.8648 63.0498H90.6339C90.262 63.0498 90.0142 62.8016 90.0142 62.4292V49.7075C90.0142 49.3351 90.262 49.0869 90.6339 49.0869H93.5465Z" fill="#212529"/>
<path d="M107.366 49.0869C111.085 49.0869 112.324 50.5763 112.324 53.8653V58.2093C112.324 61.4363 111.085 62.9877 107.366 62.9877H102.966C102.595 62.9877 102.347 62.7395 102.347 62.3672V49.7075C102.347 49.3351 102.533 49.0869 102.966 49.0869H107.366ZM107.428 59.5746C108.358 59.5746 108.854 59.3884 108.854 58.2093V53.8653C108.854 52.6242 108.358 52.5001 107.428 52.5001H106.375C106.003 52.5001 105.755 52.6862 105.755 53.1206V59.0161C105.755 59.3884 106.003 59.6366 106.375 59.6366H107.428V59.5746Z" fill="#212529"/>
<path d="M123.54 62.3058C123.54 62.7402 123.354 62.9884 122.921 62.9884H120.752C120.38 62.9884 120.132 62.8023 120.132 62.3679V60.6303C120.132 60.2579 119.946 60.0097 119.512 60.0097H117.839C117.467 60.0097 117.219 60.1959 117.219 60.6303V62.3679C117.219 62.7402 117.033 62.9884 116.6 62.9884H114.369C113.997 62.9884 113.749 62.7402 113.749 62.3058V53.9281C113.749 51.4458 114.121 48.7773 118.583 48.7773C123.045 48.7773 123.416 51.4458 123.416 53.9281V62.3058M120.132 53.866C120.132 52.9352 120.008 52.4387 118.707 52.4387C117.405 52.4387 117.281 52.9352 117.281 53.866V56.038C117.281 56.4104 117.529 56.6586 117.901 56.6586H119.574C119.946 56.6586 120.194 56.4104 120.194 56.038V53.866H120.132Z" fill="#212529"/>
<path d="M128.622 53.0587C128.622 52.6863 128.436 52.4381 128.002 52.4381H125.214C124.842 52.4381 124.594 52.1899 124.594 51.8175V49.5835C124.594 49.2111 124.842 48.9629 125.214 48.9629H135.377C135.749 48.9629 135.997 49.1491 135.997 49.5835V51.8175C135.997 52.1899 135.811 52.4381 135.377 52.4381H132.588C132.216 52.4381 131.968 52.6243 131.968 53.0587V62.3052C131.968 62.6775 131.783 62.9258 131.349 62.9258H129.118C128.746 62.9258 128.498 62.6775 128.498 62.3052V53.0587" fill="#212529"/>
<path d="M140.025 49.0869C140.396 49.0869 140.644 49.2731 140.644 49.7075V62.3672C140.644 62.7395 140.458 62.9877 140.025 62.9877H137.856C137.484 62.9877 137.236 62.7395 137.236 62.3672V49.7075C137.236 49.3351 137.484 49.0869 137.856 49.0869H140.025Z" fill="#212529"/>
<path d="M152.171 58.5199C152.171 59.8231 151.923 63.3603 147.213 63.3603C142.503 63.3603 142.255 59.8231 142.255 58.5199V53.5553C142.255 52.2521 142.503 48.7148 147.213 48.7148C151.923 48.7148 152.171 52.2521 152.171 53.5553V58.5199ZM148.762 54.6103C148.762 53.0588 148.638 52.128 147.213 52.128C145.726 52.128 145.664 53.0588 145.664 54.6103V57.4649C145.664 59.0163 145.788 59.9472 147.213 59.9472C148.7 59.9472 148.762 59.0163 148.762 57.4649V54.6103Z" fill="#212529"/>
<path d="M157.252 49.0869C157.562 49.0869 157.81 49.211 157.934 49.5213L160.599 56.0994C160.661 56.2855 160.847 56.2235 160.847 56.0373V49.7075C160.847 49.3351 161.094 49.0869 161.466 49.0869H163.697C164.069 49.0869 164.317 49.2731 164.317 49.7075V62.3672C164.317 62.7395 164.131 62.9877 163.697 62.9877H160.785C160.475 62.9877 160.227 62.8636 160.103 62.5533L157.438 55.9753C157.376 55.7891 157.19 55.8511 157.19 56.0373V62.4292C157.19 62.8016 157.004 63.0498 156.571 63.0498H154.34C153.968 63.0498 153.72 62.8016 153.72 62.4292V49.7075C153.72 49.3351 153.968 49.0869 154.34 49.0869H157.252Z" fill="#212529"/>
<path d="M64.8546 69.5665C65.2264 69.5665 65.4123 69.7527 65.4123 70.125V72.235C65.4123 72.6073 65.2264 72.7935 64.8546 72.7935H60.0829C59.711 72.7935 59.5251 72.9796 59.5251 73.352V73.9726C59.5251 74.3449 59.711 74.5311 60.0829 74.5311H63.2434C63.6152 74.5311 63.8011 74.7172 63.8011 75.0896V77.1995C63.8011 77.5719 63.6152 77.758 63.2434 77.758H60.0829C59.711 77.758 59.5251 77.9442 59.5251 78.3166V82.1641C59.5251 82.5365 59.3392 82.7226 58.9674 82.7226H56.7365C56.3646 82.7226 56.1787 82.5365 56.1787 82.1641V70.0009C56.1787 69.6286 56.3646 69.4424 56.7365 69.4424H64.8546" fill="#212529"/>
<path d="M76.0093 78.6267C76.0093 79.8679 75.7614 83.219 71.2375 83.219C66.7137 83.219 66.4658 79.8679 66.4658 78.6267V73.8483C66.4658 72.6072 66.7137 69.2561 71.2375 69.2561C75.7614 69.2561 76.0093 72.6072 76.0093 73.8483V78.6267ZM72.7868 74.8413C72.7868 73.3519 72.6629 72.4831 71.2995 72.4831C69.8742 72.4831 69.8122 73.3519 69.8122 74.8413V77.5718C69.8122 79.0611 69.9362 79.9299 71.2995 79.9299C72.7248 79.9299 72.7868 79.0611 72.7868 77.5718V74.8413Z" fill="#212529"/>
<path d="M87.5974 81.8535C87.8453 82.3499 87.5354 82.9085 86.9777 82.9085H84.8087C84.6228 82.9085 84.4369 82.7843 84.3749 82.6602L82.3919 78.8127C82.3299 78.7506 82.2679 78.6886 82.2679 78.6886H81.5243C81.1525 78.6886 80.9666 78.9368 80.9666 79.2471V82.2258C80.9666 82.5982 80.7187 82.7843 80.3468 82.7843H78.2399C77.868 82.7843 77.6821 82.5361 77.6821 82.2258V70.1247C77.6821 69.7523 77.93 69.5662 78.2399 69.5662H82.3919C85.8003 69.5662 87.1636 70.9935 87.1636 74.1584C87.1636 75.896 86.7298 77.1371 85.7383 77.8818C85.6763 77.9439 85.6143 78.0059 85.6763 78.1301L87.5974 81.8535ZM81.4623 72.8552C81.0905 72.8552 80.9046 73.1034 80.9046 73.4758V74.9031C80.9046 75.2754 81.1525 75.4616 81.4623 75.4616H82.4539C83.3834 75.4616 83.8172 75.3375 83.8172 74.1584C83.8172 72.9793 83.3834 72.8552 82.4539 72.8552H81.4623Z" fill="#212529"/>
<path d="M102.718 69.566C103.09 69.566 103.276 69.8142 103.276 70.1245V78.5643C103.276 79.8054 103.028 83.1565 98.5044 83.1565C94.4763 83.1565 93.8566 80.426 93.7327 78.9987C93.7327 78.7504 93.8566 78.5022 94.1665 78.4401L96.2735 77.9437C96.6453 77.8816 96.9551 78.1299 97.0171 78.5643C97.141 79.371 97.4509 79.8675 98.5044 79.8675C99.9297 79.8675 99.9917 78.9987 99.9917 77.5093V70.0624C99.9917 69.6901 100.24 69.5039 100.549 69.5039H102.718" fill="#212529"/>
<path d="M107.552 69.5662C107.924 69.5662 108.11 69.7523 108.11 70.1247V77.5715C108.11 79.0609 108.234 79.9297 109.597 79.9297C111.022 79.9297 111.084 79.0609 111.084 77.5715V70.1247C111.084 69.7523 111.27 69.5662 111.642 69.5662H113.749C114.121 69.5662 114.307 69.7523 114.307 70.1247V78.5645C114.307 79.8056 114.059 83.1567 109.535 83.1567C105.011 83.1567 104.763 79.8056 104.763 78.5645V70.1247C104.763 69.7523 104.949 69.5662 105.321 69.5662H107.552Z" fill="#212529"/>
<path d="M122.797 74.283C122.425 74.3451 122.239 74.1589 122.177 73.7866C122.053 72.9798 121.433 72.4834 120.504 72.4834C119.76 72.4834 119.326 72.9178 119.388 73.3522C119.636 74.8415 125.647 74.7795 125.647 79.1855C125.647 79.7441 125.028 83.0952 120.504 83.0952C116.538 83.0952 115.67 80.4887 115.546 78.9994C115.546 78.627 115.67 78.4409 116.042 78.3788L118.211 77.8823C118.583 77.8203 118.831 78.0065 118.831 78.3788C118.893 79.3097 119.636 79.8061 120.504 79.8061C121.433 79.8061 122.115 79.2476 121.991 78.7512C121.619 77.1377 115.918 77.51 115.918 73.1039C115.918 72.5454 116.228 69.1943 120.504 69.1943C124.408 69.1943 125.337 71.7387 125.461 73.1039C125.461 73.4763 125.337 73.6625 124.966 73.7245L122.797 74.283Z" fill="#212529"/>
<path d="M130.295 73.4134C130.295 73.0411 130.109 72.8549 129.738 72.8549H127.073C126.701 72.8549 126.515 72.6687 126.515 72.2964V70.1864C126.515 69.8141 126.701 69.6279 127.073 69.6279H136.802C137.174 69.6279 137.36 69.8141 137.36 70.1864V72.2964C137.36 72.6687 137.174 72.8549 136.802 72.8549H134.137C133.766 72.8549 133.58 73.0411 133.58 73.4134V82.2876C133.58 82.6599 133.394 82.8461 133.022 82.8461H130.915C130.543 82.8461 130.357 82.6599 130.357 82.2876V73.4134" fill="#212529"/>
<path d="M141.264 69.5662C141.636 69.5662 141.822 69.7523 141.822 70.1247V82.2879C141.822 82.6602 141.636 82.8464 141.264 82.8464H139.157C138.785 82.8464 138.599 82.6602 138.599 82.2879V70.1247C138.599 69.7523 138.785 69.5662 139.157 69.5662H141.264Z" fill="#212529"/>
<path d="M143.309 73.8483C143.309 72.6072 143.557 69.2561 148.081 69.2561C152.109 69.2561 152.728 71.9866 152.852 73.4139C152.852 73.6622 152.728 73.9104 152.418 73.9724L150.311 74.4689C149.94 74.531 149.63 74.2827 149.568 73.9104C149.444 73.1037 149.134 72.6072 148.081 72.6072C146.655 72.6072 146.593 73.476 146.593 74.9654V77.6959C146.593 79.1853 146.717 80.0541 148.081 80.0541C149.134 80.0541 149.382 79.5576 149.506 78.6888C149.568 78.3165 149.878 78.0682 150.249 78.1303L152.418 78.6267C152.666 78.6888 152.852 78.875 152.852 79.1853C152.79 80.6126 152.171 83.3431 148.081 83.3431C143.557 83.3431 143.309 79.992 143.309 78.7509V73.8483Z" fill="#212529"/>
<path d="M162.644 69.5665C163.016 69.5665 163.201 69.7527 163.201 70.125V72.235C163.201 72.6073 163.016 72.7935 162.644 72.7935H158.058C157.686 72.7935 157.5 72.9796 157.5 73.352V73.9726C157.5 74.3449 157.686 74.5311 158.058 74.5311H160.971C161.342 74.5311 161.528 74.7172 161.528 75.0896V77.1995C161.528 77.5719 161.342 77.758 160.971 77.758H158.058C157.686 77.758 157.5 77.9442 157.5 78.3166V78.9371C157.5 79.3095 157.686 79.4957 158.058 79.4957H162.644C163.016 79.4957 163.201 79.6818 163.201 80.0542V82.1641C163.201 82.5365 163.016 82.7226 162.644 82.7226H154.65C154.278 82.7226 154.092 82.5365 154.092 82.1641V70.0009C154.092 69.6286 154.278 69.4424 154.65 69.4424H162.644" fill="#212529"/>
</svg>
