<svg width="169" height="100" viewBox="0 0 169 100" fill="none" xmlns="http://www.w3.org/2000/svg">
<path d="M154.162 61.7234C147.315 61.7234 141.951 56.5226 141.951 49.8909C141.951 43.2592 147.315 37.9785 154.162 37.9785C161.01 37.9785 166.374 43.2069 166.374 49.8909C166.374 56.5749 161.002 61.7234 154.162 61.7234ZM154.162 41.9989C149.817 41.9989 146.412 45.4606 146.412 49.8799C146.412 54.2992 149.817 57.7279 154.162 57.7279C158.566 57.7279 161.869 54.3542 161.869 49.8799C161.877 45.4606 158.489 41.9989 154.162 41.9989Z" fill="#212529"/>
<path d="M121.441 61.4489C121.368 61.4489 121.298 61.42 121.247 61.3683C121.195 61.3167 121.166 61.2467 121.166 61.1738V40.1944C121.175 39.641 121.403 39.1136 121.8 38.7281C122.198 38.3427 122.732 38.1308 123.285 38.1389H137.333C137.406 38.1389 137.476 38.1678 137.527 38.2195C137.579 38.2711 137.608 38.3411 137.608 38.414C137.609 38.8791 137.519 39.3399 137.342 39.7701C137.166 40.2004 136.906 40.5916 136.578 40.9215C136.25 41.2514 135.861 41.5134 135.431 41.6928C135.002 41.8721 134.542 41.9651 134.077 41.9665H125.405V47.7067H134.115C134.594 47.7003 135.057 47.8737 135.414 48.1927C135.771 48.5117 135.995 48.953 136.042 49.4293C136.067 49.701 136.035 49.9749 135.948 50.2336C135.862 50.4923 135.722 50.7301 135.538 50.9317C135.367 51.1177 135.159 51.2659 134.927 51.3668C134.695 51.4677 134.445 51.5192 134.192 51.5179H125.407V57.4864C125.406 58.5374 124.987 59.5448 124.244 60.2877C123.5 61.0306 122.492 61.4482 121.441 61.4489Z" fill="#212529"/>
<path d="M112.205 61.4488C111.849 61.4443 111.5 61.3545 111.186 61.1869C110.873 61.0193 110.604 60.7788 110.402 60.4857L105.468 53.5843C105.307 53.3601 105.096 53.1772 104.851 53.0509C104.606 52.9246 104.334 52.8584 104.058 52.8578H100.946C100.873 52.8578 100.803 52.8288 100.751 52.7772C100.7 52.7256 100.67 52.6556 100.67 52.5826C100.671 51.6808 101.03 50.8162 101.668 50.1785C102.305 49.5408 103.17 49.1822 104.072 49.1815H105.487C106.893 49.1815 107.807 48.9944 108.539 48.5623C109.227 48.1358 110.053 47.2608 110.053 45.5354C110.053 44.1155 109.577 43.1166 108.594 42.4755C107.691 41.9031 106.533 41.8261 105.52 41.8261H100.178V53.2651L100.211 57.4505C100.21 58.51 99.7889 59.5258 99.0396 60.275C98.2903 61.0241 97.2743 61.4453 96.2147 61.446C96.1756 61.446 96.137 61.4376 96.1014 61.4215C96.0658 61.4054 96.034 61.3818 96.0083 61.3525C95.964 61.3023 95.9395 61.2378 95.9395 61.1709V40.2576C95.9402 39.6958 96.1637 39.1573 96.561 38.7601C96.9583 38.3629 97.4968 38.1394 98.0586 38.1387H105.897C108.393 38.1387 110.212 38.5928 111.619 39.5696C113.347 40.8052 114.338 42.9488 114.338 45.4584C114.338 47.8056 113.449 49.7043 111.699 51.1077C111.085 51.617 110.388 52.0156 109.637 52.2855L114.005 58.2017C114.225 58.5271 114.343 58.91 114.346 59.3024C114.342 59.8694 114.115 60.412 113.715 60.8134C113.314 61.2149 112.772 61.443 112.205 61.4488Z" fill="#212529"/>
<path d="M77.1168 61.449H68.8299C68.7569 61.449 68.6869 61.42 68.6353 61.3684C68.5837 61.3168 68.5547 61.2468 68.5547 61.1738V40.2192C68.5641 39.6594 68.7949 39.1262 69.1968 38.7363C69.5986 38.3464 70.1388 38.1316 70.6987 38.1389H77.5792C81.881 38.1389 84.9414 39.2947 87.212 41.7712C89.056 43.7277 89.9918 46.4217 89.9918 49.7788C89.9918 53.5818 88.6625 56.683 86.1387 58.7468C83.9397 60.5657 80.9727 61.449 77.1168 61.449ZM72.8482 57.558H76.8169C79.4728 57.558 81.5726 56.9279 83.0588 55.6841C84.79 54.2587 85.6295 52.2637 85.6295 49.5807C85.6295 47.2555 85.0184 45.4531 83.7634 44.0497C82.313 42.4482 80.0424 41.6336 77.015 41.6336H72.8482V57.558Z" fill="#212529"/>
<path d="M149.294 58.435C156.926 51.6024 162.975 51.341 167.142 55.1687C169.828 57.7085 168.945 60.5263 168.485 61.55C168.468 61.5935 168.439 61.6314 168.402 61.6592C168.364 61.687 168.319 61.7036 168.273 61.7071C168.226 61.7105 168.179 61.7007 168.138 61.6787C168.097 61.6568 168.062 61.6236 168.039 61.583C166.322 58.9688 160.672 51.2667 149.294 58.435Z" fill="#212529"/>
<mask id="mask0_32937_25844" style="mask-type:luminance" maskUnits="userSpaceOnUse" x="0" y="27" width="46" height="46">
<path d="M45.7025 27H0V72.7025H45.7025V27Z" fill="white"/>
</mask>
<g mask="url(#mask0_32937_25844)">
<path d="M44.3262 43.7392C44.2326 42.7023 43.95 41.6912 43.4926 40.756C42.9556 39.703 42.3341 38.6952 41.6343 37.7426C40.0089 35.5568 38.0327 33.6552 35.7859 32.1152C33.9304 30.8446 31.9289 29.8017 29.8245 29.0089C27.9741 28.3028 26.059 27.7796 24.1066 27.447C22.3494 27.15 20.5703 27.0005 18.7881 27C18.0749 27 17.3693 27.0234 16.6712 27.0703C14.7954 27.1934 13.246 29.2751 13.02 32.0223V32.07C16.8498 31.507 20.7414 31.507 24.5712 32.07C26.6247 32.3706 28.6485 32.8469 30.6205 33.4938C32.7232 34.1805 34.7442 35.0958 36.6472 36.2234C38.7183 37.4354 40.5782 38.9765 42.1541 40.7861C42.9461 41.7194 43.6309 42.7386 44.1957 43.8246C44.2384 43.9074 44.3262 43.8547 44.3162 43.7518L44.3262 43.7392Z" fill="#212529"/>
<path d="M42.6364 45.6327C42.5611 44.4474 42.0765 43.3978 41.3507 42.8704C40.0704 41.9615 38.6996 41.1874 37.2601 40.5602C35.3156 39.704 33.2987 39.0225 31.2334 38.5237C29.1584 38.0147 27.052 37.6439 24.928 37.4138C20.8518 36.9718 16.7398 36.9718 12.6636 37.4138C10.5396 37.6439 8.43313 38.0147 6.35817 38.5237C5.06601 38.8398 3.79115 39.2228 2.53875 39.6713C1.16516 40.1509 0.150668 41.856 0 43.9101V43.9452C1.97866 43.3686 3.99151 42.9166 6.02671 42.5917C8.03561 42.2602 10.1902 42.0066 12.4602 41.8384C14.4892 41.6877 16.6061 41.6099 18.7857 41.6099C20.9654 41.6099 23.0823 41.6877 25.1113 41.8384C27.3713 42.0041 29.5384 42.2577 31.5448 42.5917C33.58 42.9163 35.5929 43.3683 37.5715 43.9452C39.2525 44.4182 40.8774 45.0715 42.418 45.8938C42.5285 45.9541 42.644 45.826 42.6314 45.6553L42.6364 45.6327Z" fill="#212529"/>
<path d="M44.3262 55.9634C44.2326 57.0003 43.95 58.0113 43.4926 58.9466C42.955 59.9953 42.3335 60.9988 41.6343 61.9474C40.0089 64.1332 38.0327 66.0347 35.7859 67.5748C33.931 68.8497 31.9295 69.8969 29.8245 70.6936C27.9741 71.3998 26.059 71.9229 24.1066 72.2556C22.3494 72.5526 20.5703 72.7021 18.7881 72.7025C18.0749 72.7025 17.3693 72.6791 16.6712 72.6322C14.7954 72.5092 13.246 70.4274 13.02 67.6878V67.6401C16.8498 68.2031 20.7414 68.2031 24.5712 67.6401C26.6247 67.3395 28.6485 66.8631 30.6205 66.2163C32.7232 65.5296 34.7442 64.6142 36.6472 63.4867C38.7183 62.2747 40.5782 60.7336 42.1541 58.924C42.9466 57.9883 43.6314 56.9666 44.1957 55.878C44.2384 55.7951 44.3262 55.8478 44.3162 55.9508L44.3262 55.9634Z" fill="#212529"/>
<path d="M42.6364 54.0703C42.5611 55.2555 42.0765 56.3052 41.3507 56.8325C40.0704 57.7414 38.6996 58.5156 37.2601 59.1428C35.3156 59.9989 33.2987 60.6805 31.2334 61.1793C29.1584 61.6883 27.052 62.0591 24.928 62.2892C22.8915 62.5111 20.8444 62.6217 18.7958 62.6207C16.7472 62.6217 14.7001 62.5111 12.6636 62.2892C10.5396 62.0591 8.43313 61.6883 6.35817 61.1793C5.06601 60.8632 3.79115 60.4801 2.53875 60.0317C1.16516 59.5521 0.150668 57.847 0 55.7929V55.7577C1.97866 56.3343 3.99151 56.7864 6.02671 57.1112C8.03561 57.4427 10.1902 57.6963 12.4602 57.8646C14.4892 58.0153 16.6061 58.0931 18.7857 58.0931C20.9654 58.0931 23.0823 58.0153 25.1113 57.8646C27.3713 57.6989 29.5384 57.4452 31.5448 57.1112C33.58 56.7867 35.5929 56.3346 37.5715 55.7577C39.2525 55.2848 40.8774 54.6314 42.418 53.8091C42.5285 53.7488 42.644 53.8769 42.6314 54.0477L42.6364 54.0703Z" fill="#212529"/>
<path d="M44.6226 49.0757C44.0108 48.8789 43.3867 48.7229 42.7543 48.6086C41.4535 48.3575 39.761 48.129 37.7572 47.9331C35.9768 47.7573 33.9503 47.6066 31.7305 47.4861C29.7065 47.3756 27.5243 47.2902 25.2241 47.235C23.1625 47.1848 21.0054 47.1572 18.7856 47.1572C16.5658 47.1572 14.4112 47.1848 12.3471 47.235C10.7098 47.2752 9.13032 47.3279 7.62615 47.3957C6.6217 47.4434 4.87646 48.5031 4.87646 49.8014V49.8516C4.87646 51.1498 6.61668 52.2095 7.63871 52.2547C9.14538 52.3225 10.7224 52.3778 12.3596 52.418C14.4238 52.4682 16.5783 52.4958 18.7982 52.4958C21.018 52.4958 23.1751 52.4682 25.2367 52.418C27.5369 52.3627 29.7191 52.2773 31.743 52.1669C33.9603 52.0463 35.9868 51.8957 37.7697 51.7199C39.7786 51.5215 41.4661 51.293 42.7669 51.0419C43.3989 50.9271 44.0229 50.7719 44.6351 50.5773C45.3383 50.3388 45.7149 50.0876 45.7149 49.824C45.7149 49.5603 45.3257 49.3117 44.6226 49.0757Z" fill="#212529"/>
</g>
</svg>
