<svg width="192" height="100" viewBox="0 0 192 100" fill="none" xmlns="http://www.w3.org/2000/svg">
<path d="M30.8643 33.5701H23.8968C21.7875 33.5701 20.1255 31.9012 20.1255 29.7831V22.787C20.1255 20.733 21.7875 19 23.8968 19H30.8643C32.9098 19 34.6356 20.6688 34.6356 22.787V29.7831C34.6356 31.9012 32.9737 33.5701 30.8643 33.5701Z" fill="#212529"/>
<path d="M12.7745 49.296H4.97612C2.61105 49.296 0.757324 47.3704 0.757324 45.0597V37.1649C0.757324 34.8543 2.67495 32.9287 4.97612 32.9287H12.8385C15.2035 32.9287 17.0573 34.8543 17.0573 37.1649V45.0597C17.0573 47.4346 15.1396 49.296 12.7745 49.296Z" fill="#212529"/>
<path d="M12.0714 65.6628H7.2773C5.87103 65.6628 4.72046 64.5075 4.72046 63.0954V58.2815C4.72046 56.8694 5.87103 55.7141 7.2773 55.7141H12.0714C13.4777 55.7141 14.6282 56.8694 14.6282 58.2815V63.0954C14.6282 64.5075 13.4777 65.6628 12.0714 65.6628Z" fill="#212529"/>
<path d="M24.9196 80.8742H19.2306C17.5686 80.8742 16.1624 79.5264 16.1624 77.7934V72.0809C16.1624 70.412 17.5047 69 19.2306 69H24.9196C26.5815 69 27.9878 70.3479 27.9878 72.0809V77.7934C27.9878 79.5264 26.6455 80.8742 24.9196 80.8742Z" fill="#212529"/>
<path d="M45.6939 36.4582H41.7947C40.6441 36.4582 39.6853 35.4954 39.6853 34.3401V30.4247C39.6853 29.2694 40.6441 28.3066 41.7947 28.3066H45.6939C46.8445 28.3066 47.8033 29.2694 47.8033 30.4247V34.3401C47.8673 35.4954 46.9084 36.4582 45.6939 36.4582Z" fill="#212529"/>
<path d="M131.732 39.0896C133.011 39.0896 133.969 38.0627 133.969 36.8432C133.969 35.5595 132.947 34.5967 131.732 34.5967C130.454 34.5967 129.431 35.6236 129.431 36.8432C129.431 38.0627 130.454 39.0896 131.732 39.0896Z" fill="#212529"/>
<path d="M49.0817 63.3524C48.7621 63.8659 48.1868 64.1227 47.5476 64.1227C47.228 64.1227 46.7805 64.0584 46.5248 63.8659C46.0135 63.545 45.6938 62.9032 45.6938 62.2613C45.6938 61.9404 45.7579 61.6195 45.9496 61.3627L51.1911 53.0828L45.9496 44.8029C45.7577 44.5462 45.6938 44.1611 45.6938 43.9043C45.6938 43.2625 46.0135 42.6206 46.5888 42.2997C46.9084 42.1071 47.228 42.043 47.5476 42.043C48.1868 42.043 48.7621 42.2997 49.1456 42.8132L53.4283 49.6168L57.775 42.8132C58.0946 42.2997 58.7338 42.043 59.373 42.043C59.6926 42.043 60.0122 42.1072 60.3318 42.2997C60.9071 42.6206 61.2267 43.2625 61.2267 43.9043C61.2267 44.2253 61.1628 44.5462 60.9711 44.8029L55.7295 53.0828L60.9711 61.3627C61.1628 61.6195 61.2267 61.9404 61.2267 62.2613C61.2267 62.9032 60.9071 63.6092 60.3958 63.8659C60.0762 64.0585 59.6926 64.1227 59.373 64.1227C58.7338 64.1227 58.2224 63.8659 57.8389 63.3524L53.4923 56.613L49.0817 63.3524Z" fill="#212529"/>
<path d="M67.8107 44.5455C69.7923 42.7484 72.477 41.6572 75.3534 41.6572C81.6816 41.6572 86.6675 46.7279 86.6675 53.018C86.6675 59.244 81.6177 64.3146 75.3534 64.3146C72.477 64.3146 69.7923 63.2235 67.8107 61.4263V71.1182C67.8107 72.081 66.9158 72.9154 65.957 72.9154C65.0621 72.9154 64.1033 72.081 64.1033 71.1182V43.647C64.1033 42.6842 64.9982 41.8497 65.957 41.8497C66.9797 41.8497 67.8107 42.6842 67.8107 43.647V44.5455ZM75.2895 45.4441C71.0707 45.4441 67.7468 48.7818 67.7468 53.018C67.7468 57.2542 71.0707 60.5919 75.2895 60.5919C79.5083 60.5919 82.8322 57.2542 82.8322 53.018C82.8962 48.7818 79.5722 45.4441 75.2895 45.4441Z" fill="#212529"/>
<path d="M118.692 50.9646V62.3254C118.692 63.2882 117.797 64.1225 116.838 64.1225C115.816 64.1225 114.985 63.2882 114.985 62.3254V43.6475C114.985 42.6847 115.88 41.8503 116.838 41.8503C117.733 41.8503 118.628 42.6205 118.692 43.5833C120.226 42.428 122.208 41.7219 124.317 41.7219C125.468 41.7219 126.363 42.6205 126.363 43.5833C126.363 44.6102 125.468 45.5088 124.317 45.5088C121.441 45.5731 118.692 46.6 118.692 50.9646Z" fill="#212529"/>
<path d="M131.732 41.8496C130.709 41.8496 129.878 42.684 129.878 43.6468V62.3889C129.878 63.3517 130.773 64.1861 131.732 64.1861C132.627 64.1861 133.586 63.3517 133.586 62.3889V43.6468C133.586 42.684 132.691 41.8496 131.732 41.8496Z" fill="#212529"/>
<path d="M155.511 43.6475C155.511 42.6847 156.406 41.8503 157.365 41.8503C158.259 41.8503 159.218 42.6847 159.218 43.6475V62.3896C159.218 63.3523 158.323 64.1867 157.365 64.1867C156.342 64.1867 155.511 63.3523 155.511 62.3896V61.491C153.465 63.2882 150.845 64.3793 147.968 64.3793C141.64 64.3793 136.654 59.3087 136.654 53.0185C136.654 46.7925 141.704 41.7219 147.968 41.7219C150.845 41.7219 153.465 42.8131 155.511 44.6102V43.6475ZM147.968 60.5924C152.187 60.5924 155.511 57.2547 155.511 53.0185C155.511 48.7823 152.187 45.4447 147.968 45.4447C143.749 45.4447 140.425 48.7823 140.425 53.0185C140.425 57.2547 143.749 60.5924 147.968 60.5924Z" fill="#212529"/>
<path d="M178.203 51.2213C178.203 48.0763 175.518 45.3805 172.386 45.3805C169.382 45.3805 166.569 46.6 166.569 51.0288V62.3896C166.569 63.3523 165.674 64.1867 164.716 64.1867C163.693 64.1867 162.862 63.3523 162.862 62.3896V43.6475C162.862 42.6847 163.757 41.8503 164.716 41.8503C165.61 41.8503 166.505 42.6205 166.569 43.5833C168.167 42.3638 170.149 41.7219 172.322 41.7219C177.372 41.7219 181.91 45.7014 181.91 50.7078V62.3896C181.91 63.3523 181.015 64.1867 180.057 64.1867C179.034 64.1867 178.203 63.3523 178.203 62.3896V51.2213Z" fill="#212529"/>
<path d="M44.6074 52.3767C44.5434 46.6 39.4298 41.7219 33.3573 41.7219C27.0291 41.7219 22.0432 46.7925 22.0432 53.0185C22.0432 59.3729 27.093 64.3793 33.3573 64.3793C36.3616 64.3793 39.1741 63.224 41.2196 61.1701C41.6031 60.8491 41.8588 60.2714 41.8588 59.758C41.8588 58.731 40.9639 57.8966 40.0051 57.8966C39.4298 57.8966 38.9184 58.2175 38.5349 58.6668C37.2565 60.0147 35.4028 60.6566 33.4212 60.6566C29.6498 60.6566 26.5816 58.0891 25.9424 54.4948H42.8176C42.8176 54.4948 42.8176 54.4948 42.8817 54.4948H42.9454H43.0095C43.0735 54.4948 43.1373 54.4948 43.2013 54.4305C43.9683 54.1095 44.6074 53.3394 44.6074 52.3767ZM33.3573 45.4447C36.7451 45.4447 39.5576 47.627 40.5165 50.7079H26.1342C27.093 47.627 29.9055 45.4447 33.3573 45.4447Z" fill="#212529"/>
<path d="M111.853 52.3767C111.789 46.6 106.611 41.7219 100.602 41.7219C94.2742 41.7219 89.2883 46.7925 89.2883 53.0185C89.2883 59.3729 94.3381 64.3793 100.602 64.3793C103.607 64.3793 106.419 63.224 108.465 61.1701C108.848 60.8491 109.104 60.2714 109.104 59.758C109.104 58.731 108.209 57.8966 107.25 57.8966C106.675 57.8966 106.164 58.2175 105.78 58.6668C104.502 60.0147 102.648 60.6566 100.666 60.6566C96.895 60.6566 93.8267 58.0891 93.1875 54.4948H110.063C110.063 54.4948 110.063 54.4948 110.127 54.4948H110.191C110.255 54.4948 110.318 54.4948 110.318 54.4948H110.382C111.149 54.1738 111.853 53.3394 111.853 52.3767ZM100.602 45.4447C103.99 45.4447 106.803 47.627 107.762 50.7079H93.3793C94.3381 47.627 97.1507 45.4447 100.602 45.4447Z" fill="#212529"/>
<path d="M185.873 64.186C185.682 64.186 185.554 64.0576 185.554 63.865V60.72H184.851C184.659 60.72 184.531 60.5916 184.531 60.3991C184.531 60.2064 184.659 60.0781 184.851 60.0781H186.896C187.088 60.0781 187.216 60.2065 187.216 60.3991C187.216 60.5917 187.088 60.72 186.896 60.72H186.193V63.865C186.193 64.0577 186.065 64.186 185.873 64.186Z" fill="#212529"/>
<path d="M189.517 64.186C189.325 64.186 189.261 64.0577 189.197 63.9293L188.302 61.3618V63.865C188.302 64.0577 188.174 64.186 187.983 64.186C187.791 64.186 187.663 64.0576 187.663 63.865V60.5274C187.663 60.2707 187.855 60.0781 188.111 60.0781C188.302 60.0781 188.494 60.2065 188.558 60.3991L189.453 63.0307L190.348 60.3991C190.412 60.2064 190.603 60.0781 190.795 60.0781C191.051 60.0781 191.243 60.2707 191.243 60.5274V63.865C191.243 64.0577 191.115 64.186 190.923 64.186C190.731 64.186 190.603 64.0576 190.603 63.865V61.3618C190.476 61.747 190.284 62.3888 190.092 62.9023C189.772 63.9292 189.709 63.9293 189.709 63.9293C189.772 64.1219 189.645 64.186 189.517 64.186Z" fill="#212529"/>
</svg>
