<svg width="219" height="100" viewBox="0 0 219 100" fill="none" xmlns="http://www.w3.org/2000/svg">
<path d="M53.29 50.1275V28.1545H57.5616V46.3817H68.7665V50.1275H53.29Z" fill="#212529"/>
<path d="M86.7713 50.2811C85.26 50.3012 83.7637 49.979 82.3945 49.3386C81.1159 48.7327 79.9695 47.8805 79.0209 46.8307C77.1311 44.7154 76.0807 41.9815 76.068 39.145C76.0604 37.7033 76.3352 36.2741 76.877 34.9381C77.407 33.6234 78.1734 32.4169 79.1382 31.3784C80.1044 30.3413 81.266 29.5055 82.5563 28.919C83.9087 28.2995 85.381 27.986 86.8684 28.0008C88.3728 27.9816 89.8608 28.3155 91.2128 28.9756C92.4881 29.5988 93.6287 30.466 94.5702 31.5281C95.503 32.5854 96.2374 33.8022 96.7384 35.1201C97.2454 36.4214 97.5073 37.8051 97.511 39.2016C97.5161 40.6391 97.2414 42.0639 96.702 43.3964C96.1848 44.7005 95.4289 45.8967 94.4732 46.9237C93.511 47.9498 92.3546 48.7748 91.0713 49.3507C89.7236 49.9727 88.2555 50.2903 86.7713 50.2811ZM80.4003 39.1409C80.3966 40.0764 80.5427 41.0064 80.8331 41.8957C81.1024 42.7498 81.5275 43.5466 82.0871 44.2458C82.6366 44.9311 83.3262 45.4911 84.1097 45.8882C84.948 46.3114 85.8769 46.5238 86.8158 46.5071C87.7643 46.521 88.7013 46.2986 89.5422 45.8598C90.3277 45.4464 91.017 44.8716 91.5648 44.173C92.107 43.4628 92.518 42.6614 92.7783 41.8067C93.0508 40.9403 93.1873 40.037 93.1828 39.1288C93.1844 38.1922 93.0327 37.2617 92.7338 36.3741C92.4524 35.5219 92.0224 34.7262 91.4636 34.0239C90.9129 33.3462 90.2232 32.7944 89.4411 32.4059C88.5911 32.0035 87.6615 31.7975 86.7211 31.8031C85.7807 31.8087 84.8537 32.0258 84.0085 32.4382C83.2206 32.841 82.5303 33.4112 81.986 34.1089C81.4456 34.8143 81.0348 35.61 80.7725 36.4591C80.5106 37.3284 80.3851 38.2331 80.4003 39.1409Z" fill="#212529"/>
<path d="M112.49 36.0465V50.1275H108.218V28.1545H111.531L122.971 42.5753V28.1869H127.242V50.1275H123.78L112.49 36.0465Z" fill="#212529"/>
<path d="M139.256 50.1275V28.1546H147.241C148.856 28.1216 150.461 28.4175 151.958 29.0243C153.238 29.5565 154.388 30.3581 155.331 31.3745C156.239 32.3832 156.927 33.5691 157.354 34.8573C157.814 36.2272 158.043 37.6637 158.033 39.1087C158.054 40.6532 157.798 42.1889 157.277 43.6432C156.805 44.9416 156.06 46.1237 155.093 47.1099C154.122 48.0844 152.958 48.8438 151.675 49.3387C150.259 49.8771 148.755 50.1447 147.241 50.1275H139.256ZM153.77 39.1087C153.779 38.1225 153.633 37.1411 153.337 36.2003C153.073 35.3592 152.64 34.5804 152.067 33.9107C151.502 33.2665 150.798 32.7589 150.008 32.4262C149.131 32.063 148.19 31.884 147.241 31.9003H143.524V46.3817H147.241C148.204 46.3997 149.158 46.2093 150.04 45.8235C150.832 45.4754 151.534 44.9526 152.095 44.2945C152.657 43.6135 153.083 42.8307 153.349 41.9888C153.64 41.0568 153.782 40.0848 153.77 39.1087Z" fill="#212529"/>
<path d="M178.214 50.2811C176.703 50.3021 175.206 49.9798 173.838 49.3386C172.559 48.7328 171.413 47.8805 170.464 46.8307C168.571 44.7172 167.519 41.9825 167.507 39.145C167.499 37.7033 167.774 36.2741 168.316 34.9381C168.844 33.6236 169.61 32.4171 170.573 31.3785C171.54 30.3404 172.703 29.5044 173.995 28.919C175.348 28.2996 176.82 27.986 178.307 28.0008C179.813 27.9813 181.302 28.3152 182.656 28.9757C183.93 29.6003 185.071 30.4673 186.013 31.5281C186.945 32.5858 187.678 33.8025 188.177 35.1202C189.223 37.7817 189.213 40.742 188.149 43.3964C187.629 44.6989 186.873 45.8946 185.92 46.9237C184.957 47.95 183.799 48.7749 182.514 49.3508C181.167 49.9727 179.699 50.2903 178.214 50.2811ZM171.839 39.141C171.838 40.0762 171.984 41.0059 172.272 41.8957C172.548 42.7476 172.975 43.5425 173.534 44.2418C174.085 44.9262 174.774 45.486 175.557 45.8841C176.397 46.3069 177.327 46.5193 178.267 46.503C179.212 46.5164 180.146 46.2955 180.985 45.8599C181.771 45.4467 182.46 44.8718 183.008 44.1731C183.553 43.4661 183.968 42.6675 184.233 41.8148C184.506 40.9485 184.643 40.0451 184.638 39.1369C184.64 38.2003 184.488 37.2698 184.189 36.3822C183.909 35.5302 183.48 34.7346 182.923 34.032C182.373 33.3534 181.683 32.8015 180.9 32.414C180.051 32.0117 179.122 31.8057 178.182 31.8113C177.243 31.8169 176.316 32.034 175.472 32.4464C174.683 32.8483 173.993 33.4186 173.449 34.117C172.909 34.8226 172.498 35.6183 172.236 36.4672C171.968 37.3331 171.834 38.2347 171.839 39.141Z" fill="#212529"/>
<path d="M203.929 36.0465V50.1275H199.657V28.1545H202.97L214.418 42.5753V28.1869H218.69V50.1275H215.223L203.929 36.0465Z" fill="#212529"/>
<path d="M56.3644 71.3641H53.4155V57.2063H61.5057V59.6657H56.3644V63.3063H61.1659V65.7576H56.3644V71.3641Z" fill="#212529"/>
<path d="M65.6194 71.3641V57.2063H68.6208V71.3641H65.6194Z" fill="#212529"/>
<path d="M81.8604 67.4323C81.8886 68.0079 81.7797 68.5819 81.5427 69.1073C81.3057 69.6326 80.9474 70.0941 80.4972 70.4539C79.5776 71.1901 78.2994 71.5582 76.6625 71.5582C75.2785 71.5848 73.9069 71.2928 72.6538 70.7047V67.9177C73.4373 68.2819 74.249 68.5822 75.0809 68.8157C75.6708 68.9823 76.2801 69.0707 76.8931 69.0786C77.4254 69.1122 77.9551 68.9808 78.41 68.7024C78.5851 68.5743 78.7251 68.4041 78.817 68.2075C78.9089 68.011 78.9498 67.7944 78.9358 67.5779C78.9391 67.313 78.8584 67.0538 78.7053 66.8376C78.5155 66.5917 78.2841 66.3808 78.0216 66.2147C77.4246 65.8654 76.8073 65.552 76.173 65.2762C75.4757 64.9742 74.8214 64.5811 74.2273 64.1072C73.8021 63.7416 73.4506 63.2981 73.1918 62.8006C72.9175 62.2609 72.7786 61.6626 72.7873 61.0572C72.7607 60.5008 72.8613 59.9457 73.0813 59.4341C73.3014 58.9224 73.6353 58.4676 74.0575 58.1043C74.9069 57.387 76.08 57.0296 77.5767 57.0323C78.2873 57.0287 78.9955 57.1157 79.6842 57.2912C80.4048 57.472 81.1107 57.7073 81.7957 57.9951L80.8249 60.3291C80.2164 60.0688 79.5906 59.8512 78.952 59.6778C78.4757 59.5585 77.9868 59.4973 77.4958 59.4958C77.0256 59.4677 76.5613 59.6115 76.1892 59.9003C75.9559 60.1155 75.8022 60.4032 75.753 60.7168C75.7038 61.0303 75.762 61.3513 75.9182 61.6276C76.0728 61.8556 76.2724 62.0497 76.5047 62.1979C77.1178 62.5664 77.7527 62.8973 78.4059 63.189C79.7273 63.8254 80.6348 64.4605 81.1283 65.0942C81.6304 65.768 81.8885 66.5924 81.8604 67.4323Z" fill="#212529"/>
<path d="M97.3491 71.3636H94.3598V65.2757H88.7533V71.3838H85.7559V57.226H88.7533V62.7597H94.3598V57.2139H97.3491V71.3636Z" fill="#212529"/>
<path d="M116.377 71.3641H108.23V57.2063H116.377V59.6657H111.24V62.7723H116.033V65.2358H111.24V68.8764H116.377V71.3641Z" fill="#212529"/>
<path d="M131.664 71.3636H128.229L124.937 66.0119L121.648 71.3636H118.44L123.137 64.0824L118.744 57.2139H122.052L125.098 62.3026L128.092 57.2139H131.328L126.878 64.228L131.664 71.3636Z" fill="#212529"/>
<path d="M140.365 59.5081C139.857 59.4851 139.351 59.5892 138.893 59.811C138.435 60.0328 138.04 60.3652 137.743 60.7782C137.124 61.6277 136.813 62.8008 136.813 64.3258C136.813 67.4809 137.997 69.0585 140.365 69.0585C141.601 69.0114 142.822 68.7599 143.977 68.3142V70.8303C142.741 71.3295 141.418 71.577 140.085 71.5584C138.028 71.5584 136.453 70.9341 135.361 69.6855C134.269 68.4369 133.729 66.645 133.743 64.3096C133.716 62.9759 133.992 61.6535 134.552 60.4425C135.048 59.3799 135.853 58.4917 136.862 57.8941C137.93 57.2932 139.139 56.9888 140.365 57.0122C141.795 57.0264 143.204 57.3624 144.487 57.9952L143.52 60.4223C142.999 60.1753 142.465 59.9552 141.922 59.7629C141.421 59.5921 140.894 59.506 140.365 59.5081Z" fill="#212529"/>
<path d="M159.449 71.3636H156.46V65.2757H150.857V71.3838H147.856V57.226H150.857V62.7597H156.46V57.2139H159.449V71.3636Z" fill="#212529"/>
<path d="M172.576 71.3637L171.552 67.9942H166.391L165.367 71.3637H162.131L167.123 57.1533H170.792L175.803 71.3637H172.576ZM170.836 65.4781C169.887 62.4281 169.348 60.7022 169.218 60.3004C169.097 59.8959 169.012 59.5844 168.959 59.3538C168.743 60.179 168.134 62.2205 167.131 65.4781H170.836Z" fill="#212529"/>
<path d="M191.033 71.3641H187.223L181.066 60.6608H180.977C181.104 62.5485 181.166 63.8969 181.163 64.7059V71.3641H178.481V57.2063H182.268L188.412 67.8044H188.501C188.404 65.9639 188.356 64.6654 188.356 63.9009V57.2144H191.054L191.033 71.3641Z" fill="#212529"/>
<path d="M200.859 63.4192H206.473V70.7529C205.636 71.0318 204.777 71.2402 203.905 71.3758C203.089 71.498 202.266 71.5588 201.441 71.5579C199.305 71.5579 197.674 70.9295 196.547 69.6729C195.419 68.4162 194.857 66.6148 194.86 64.2686C194.86 61.9818 195.512 60.2006 196.818 58.9251C198.123 57.6495 199.935 57.0117 202.254 57.0117C203.699 57.0092 205.128 57.3053 206.453 57.8814L205.458 60.2802C204.455 59.7722 203.346 59.5076 202.222 59.5076C201.639 59.4869 201.059 59.5943 200.522 59.8221C199.986 60.05 199.505 60.3927 199.115 60.8263C198.335 61.6959 197.946 62.8488 197.946 64.3374C197.946 65.8745 198.26 67.0476 198.889 67.8566C199.216 68.2634 199.637 68.5859 200.115 68.797C200.593 69.0081 201.114 69.1018 201.635 69.0701C202.275 69.0684 202.913 69.0033 203.541 68.876V65.915H200.859V63.4192Z" fill="#212529"/>
<path d="M218.88 71.3641H210.749V57.2063H218.88V59.6657H213.734V62.7723H218.524V65.2358H213.734V68.8764H218.88V71.3641Z" fill="#212529"/>
<g style="mix-blend-mode:multiply">
<path d="M9.7081 32.0783C10.4079 33.4941 11.1886 36.2892 11.3544 39.3595C11.3544 39.6305 11.3787 39.9136 11.3828 40.2049C8.97998 40.3748 6.60956 40.9775 4.68814 42.2558C3.28352 43.1803 2.16875 44.483 1.4723 46.0136C0.678257 47.8949 0.358762 49.9424 0.541929 51.9761C0.557052 52.2154 0.660907 52.4404 0.833175 52.6071C0.999918 52.7794 1.22494 52.8833 1.46421 52.8984C3.50069 53.0861 5.55195 52.7664 7.43476 51.968C8.97042 51.2698 10.2743 50.147 11.1926 48.7319C12.4709 46.8146 13.0736 44.4401 13.2435 42.0373C13.5388 42.0373 13.8219 42.0373 14.093 42.0697C17.1511 42.2355 19.9462 43.0162 21.3741 43.716C21.5852 43.8021 21.8201 43.8101 22.0365 43.7386C22.253 43.6671 22.4369 43.5208 22.5553 43.326C22.6736 43.1312 22.7187 42.9005 22.6824 42.6755C22.6461 42.4504 22.5307 42.2457 22.3571 42.098L22.2236 42.0171C20.4033 41.1191 16.965 40.2089 13.3244 40.1442C13.2637 36.5036 12.3536 33.0451 11.4515 31.245C11.4166 31.1898 11.3744 31.1394 11.3261 31.0954C11.1784 30.9217 10.9737 30.8064 10.7486 30.7701C10.5236 30.7337 10.293 30.7788 10.0981 30.8972C9.90331 31.0155 9.75703 31.1994 9.68555 31.4159C9.61407 31.6324 9.62206 31.8672 9.7081 32.0783ZM2.42694 51.0174C2.39862 47.7409 3.51102 45.326 5.74796 43.8374C7.40644 42.7331 9.43708 42.2679 11.3221 42.1142C11.1684 43.9951 10.7032 46.0298 9.59888 47.6883C8.11029 49.9252 5.69942 51.0417 2.42694 51.0174Z" fill="#212529"/>
</g>
<g style="mix-blend-mode:multiply">
<path d="M17.2483 70.5344C17.7499 69.0378 19.1778 66.4894 21.2206 64.2282C21.4026 64.0259 21.5968 63.8236 21.799 63.6093C23.6193 65.1868 25.7228 66.4408 27.984 66.8939C29.6328 67.2278 31.3426 67.0876 32.9149 66.4894C34.8117 65.7209 36.4889 64.4952 37.7973 62.9216C37.9493 62.7386 38.0325 62.5082 38.0325 62.2703C38.0325 62.0325 37.9493 61.8021 37.7973 61.6191C36.4889 60.0454 34.8117 58.8198 32.9149 58.0513C31.3426 57.4531 29.6328 57.3128 27.984 57.6468C25.7228 58.1039 23.6193 59.3538 21.799 60.9314C21.5968 60.7211 21.3945 60.5269 21.2206 60.3125C19.1778 58.0311 17.7499 55.5029 17.2483 54.0062C17.1694 53.7807 17.0092 53.5927 16.7989 53.4792C16.5887 53.3656 16.3437 53.3347 16.1118 53.3924C15.8799 53.4501 15.678 53.5923 15.5455 53.7912C15.413 53.99 15.3596 54.2312 15.3957 54.4674C15.404 54.5194 15.4161 54.5708 15.4321 54.6211C16.0793 56.5425 17.8834 59.6329 20.4116 62.2501C17.8834 64.8673 16.0793 67.9577 15.4321 69.8791C15.4161 69.9294 15.404 69.9808 15.3957 70.0329C15.3291 70.2785 15.3629 70.5406 15.4896 70.7613C15.6163 70.9821 15.8255 71.1435 16.0712 71.21C16.3169 71.2765 16.5789 71.2427 16.7997 71.116C17.0204 70.9893 17.1818 70.7801 17.2483 70.5344ZM35.7869 62.2825C33.4853 64.6165 30.9935 65.5185 28.3602 65.0048C26.4064 64.6003 24.6387 63.5041 23.2027 62.2825C24.6387 61.0689 26.4064 59.9525 28.3602 59.5601C30.9935 59.0302 33.4853 59.9485 35.7869 62.2825Z" fill="#212529"/>
</g>
<g style="mix-blend-mode:multiply">
<path d="M39.0998 38.0043C37.684 38.7041 34.8889 39.4848 31.8187 39.6507C31.5476 39.6507 31.2645 39.679 30.9732 39.6831C30.7993 37.2803 30.1966 34.9099 28.9183 32.9884C27.9985 31.5811 26.6963 30.4655 25.1645 29.7726C23.2796 28.9764 21.2276 28.6569 19.1899 28.8422C18.9497 28.8568 18.724 28.9624 18.5589 29.1375C18.3865 29.3026 18.2826 29.5264 18.2676 29.7645C18.0827 31.806 18.4065 33.8614 19.2101 35.7472C19.9043 37.278 21.0179 38.5809 22.4219 39.5051C24.3433 40.7752 26.6976 41.3779 29.1246 41.5478C29.1246 41.8391 29.1246 42.1263 29.0923 42.3933C28.9264 45.4514 28.1457 48.2465 27.4459 49.6744C27.3599 49.8855 27.3519 50.1204 27.4234 50.3368C27.4949 50.5533 27.6411 50.7372 27.836 50.8556C28.0308 50.9739 28.2614 51.019 28.4865 50.9827C28.7115 50.9464 28.9163 50.831 29.064 50.6574C29.0942 50.6149 29.1212 50.5703 29.1449 50.5239C30.0429 48.7076 30.953 45.2653 31.0177 41.6247C34.6583 41.56 38.1169 40.6498 39.9169 39.7518C39.9633 39.7282 40.008 39.7011 40.0504 39.6709C40.2452 39.5304 40.3802 39.3218 40.4286 39.0864C40.4769 38.8511 40.4352 38.6062 40.3116 38.4002C40.188 38.1942 39.9915 38.0421 39.7611 37.974C39.5307 37.906 39.2832 37.9269 39.0675 38.0327L39.0998 38.0043ZM20.1607 30.7232C23.4372 30.6989 25.8522 31.8154 27.3367 34.0483C28.441 35.7067 28.9062 37.7414 29.0599 39.6224C27.1789 39.4727 25.1443 39.0035 23.4858 37.8992C21.2529 36.4146 20.1364 34.0038 20.1607 30.7232Z" fill="#212529"/>
</g>
<g style="mix-blend-mode:multiply">
<path d="M0.651241 45.548C2.14792 46.0536 4.69633 47.4775 6.95753 49.5243C7.15574 49.7023 7.36204 49.8964 7.57643 50.0987C5.99885 51.923 4.74487 54.0224 4.29182 56.2877C3.95528 57.935 4.09561 59.6442 4.69633 61.2146C5.46081 63.1048 6.67923 64.7775 8.24387 66.0849C8.42582 66.2391 8.65661 66.3237 8.89513 66.3237C9.13365 66.3237 9.36443 66.2391 9.54639 66.0849C11.1163 64.7844 12.3416 63.1173 13.1142 61.2308C13.7048 59.6577 13.8381 57.9495 13.4984 56.3038C13.0413 54.0386 11.7914 51.9392 10.2138 50.1189C10.4242 49.9126 10.6183 49.7144 10.8327 49.5405C13.1142 47.4936 15.6423 46.0698 17.139 45.5641C17.3657 45.4858 17.5548 45.3253 17.669 45.1143C17.7832 44.9033 17.8141 44.6572 17.7557 44.4246C17.6973 44.1919 17.5537 43.9896 17.3535 43.8576C17.1532 43.7256 16.9107 43.6734 16.6738 43.7115C16.6231 43.7198 16.573 43.732 16.5242 43.7479C14.6027 44.383 11.5123 46.183 8.89917 48.7153C6.27796 46.183 3.18751 44.383 1.26609 43.7317C1.21583 43.7158 1.16445 43.7036 1.11238 43.6953C0.876184 43.6593 0.635036 43.7127 0.43619 43.8452C0.237344 43.9776 0.0951319 44.1796 0.0374204 44.4115C-0.0202911 44.6433 0.0106576 44.8884 0.124202 45.0986C0.237747 45.3088 0.425703 45.4691 0.651241 45.548ZM8.89917 64.0866C6.56516 61.789 5.6631 59.2932 6.17278 56.6639C6.56111 54.7101 7.68565 52.9424 8.89917 51.5225C10.1127 52.9626 11.2291 54.7303 11.6215 56.6841C12.1352 59.2932 11.2291 61.789 8.89917 64.0866Z" fill="#212529"/>
</g>
<g style="mix-blend-mode:multiply">
<path d="M25.6296 28.9554C25.124 30.4481 23.7001 32.9763 21.6533 35.2577C21.4753 35.4599 21.2811 35.6622 21.0748 35.8766C19.2545 34.299 17.1551 33.045 14.8899 32.596C13.2433 32.2543 11.5336 32.3862 9.95894 32.9763C8.06358 33.751 6.38814 34.9805 5.08056 36.5562C4.92905 36.7341 4.84841 36.9616 4.85404 37.1953C4.84929 37.4358 4.93438 37.6695 5.0927 37.8506C6.39876 39.4178 8.0698 40.6402 9.95894 41.4103C11.5308 42.0109 13.2412 42.1512 14.8899 41.8148C17.1551 41.3617 19.2545 40.1118 21.0748 38.5302C21.2811 38.7405 21.4793 38.9347 21.6533 39.1531C23.7001 41.4103 25.124 43.9465 25.6296 45.4553C25.7085 45.6809 25.8687 45.8688 26.079 45.9824C26.2892 46.0959 26.5342 46.1269 26.7661 46.0692C26.998 46.0115 27.1999 45.8692 27.3324 45.6704C27.4649 45.4716 27.5183 45.2304 27.4823 44.9942C27.4744 44.9434 27.4622 44.8933 27.4458 44.8445C26.7946 42.9231 24.9905 39.8286 22.4623 37.2115C24.9905 34.5781 26.7946 31.4877 27.4458 29.5662C27.4618 29.5174 27.474 29.4673 27.4823 29.4166C27.5183 29.1804 27.4649 28.9392 27.3324 28.7404C27.1999 28.5415 26.998 28.3993 26.7661 28.3416C26.5342 28.2839 26.2892 28.3149 26.079 28.4284C25.8687 28.5419 25.7085 28.7299 25.6296 28.9554ZM7.09097 37.1953C9.38858 34.8613 11.8844 33.9592 14.5137 34.4729C16.4675 34.8774 18.2352 35.9737 19.6752 37.1953C18.2352 38.4088 16.4675 39.5293 14.5137 39.9217C11.8844 40.4475 9.38858 39.5333 7.09097 37.1953Z" fill="#212529"/>
</g>
<g style="mix-blend-mode:multiply">
<path d="M3.77398 61.4737C5.18976 60.7739 7.98491 59.9932 11.0551 59.8274C11.3262 59.8274 11.6093 59.8031 11.9046 59.795C12.0745 62.2221 12.6772 64.5723 13.9555 66.4937C14.8735 67.9034 16.1722 69.0241 17.7012 69.7257C19.5863 70.521 21.6384 70.8392 23.6758 70.652C23.9139 70.6371 24.1378 70.5331 24.3028 70.3608C24.4762 70.1945 24.5815 69.9695 24.5981 69.7298C24.7818 67.6934 24.4623 65.6431 23.6677 63.7592C22.9747 62.2264 21.8592 60.9229 20.4519 60.0013C18.5305 58.7069 16.1803 58.1042 13.7532 57.9343C13.7532 57.639 13.7532 57.3558 13.7815 57.0848C13.9474 54.0267 14.7281 51.2316 15.4279 49.8037C15.5139 49.5926 15.5219 49.3577 15.4504 49.1412C15.3789 48.9248 15.2327 48.7409 15.0378 48.6225C14.843 48.5041 14.6124 48.4591 14.3873 48.4954C14.1623 48.5317 13.9575 48.6471 13.8098 48.8207C13.7782 48.8622 13.7511 48.9069 13.7289 48.9542C12.8309 50.7704 11.9167 54.233 11.8561 57.8534C8.21548 57.9181 4.75694 58.8282 2.95687 59.7303C2.91068 59.7528 2.86608 59.7785 2.82338 59.8072C2.64974 59.9549 2.53441 60.1596 2.49809 60.3846C2.46177 60.6097 2.50683 60.8403 2.62518 61.0352C2.74354 61.23 2.92745 61.3763 3.14392 61.4477C3.36038 61.5192 3.59524 61.5112 3.80634 61.4252L3.77398 61.4737ZM22.7131 68.7549C19.4366 68.7792 17.0257 67.6627 15.5371 65.4298C14.4328 63.7713 13.9676 61.7367 13.8139 59.8557C15.6989 60.0094 17.7295 60.4746 19.3921 61.5789C21.6249 63.0634 22.7373 65.4784 22.7131 68.7549Z" fill="#212529"/>
</g>
<g style="mix-blend-mode:multiply">
<path d="M42.2226 53.95C40.73 53.4443 38.1978 52.0205 35.9204 49.9777C35.7181 49.7957 35.5159 49.6015 35.2974 49.3992C36.8791 47.579 38.129 45.4755 38.582 43.2143C38.9237 41.5677 38.7919 39.8581 38.2018 38.2833C37.4318 36.3874 36.2064 34.7105 34.634 33.4009C34.4511 33.2471 34.2197 33.1628 33.9808 33.1628C33.7418 33.1628 33.5104 33.2471 33.3275 33.4009C31.7549 34.7095 30.5307 36.3868 29.7638 38.2833C29.1631 39.8552 29.0228 41.5656 29.3592 43.2143C29.8325 45.4553 31.0824 47.5587 32.6641 49.379C32.4537 49.5813 32.2596 49.7835 32.0411 49.9575C29.7637 51.98 27.2315 53.4241 25.7389 53.9297C25.5133 54.0086 25.3254 54.1689 25.2118 54.3791C25.0983 54.5893 25.0674 54.8344 25.1251 55.0662C25.1828 55.2981 25.325 55.5001 25.5238 55.6325C25.7227 55.765 25.9638 55.8184 26.2 55.7824C26.2508 55.7741 26.3008 55.7619 26.3497 55.746C28.2711 55.0947 31.3616 53.2947 33.9787 50.7665C36.5959 53.2947 39.6863 55.0947 41.6078 55.746C41.6567 55.7619 41.7067 55.7741 41.7574 55.7824C41.9832 55.8008 42.2083 55.7386 42.3926 55.6068C42.5769 55.4751 42.7086 55.2823 42.7644 55.0628C42.8201 54.8432 42.7963 54.6109 42.6971 54.4072C42.5979 54.2035 42.4298 54.0415 42.2226 53.95ZM33.9787 35.3911C36.3127 37.6928 37.2148 40.1845 36.7011 42.8179C36.2966 44.7717 35.2003 46.5353 33.9787 47.9754C32.7652 46.5353 31.6447 44.7717 31.2523 42.8179C30.7427 40.1967 31.6447 37.6928 33.9787 35.3911Z" fill="#212529"/>
</g>
<path d="M40.4509 48.4648C40.4792 51.7413 39.3627 54.1521 37.1298 55.6407C35.4714 56.745 33.4367 57.2102 31.5557 57.3639C31.7054 55.4789 32.1706 53.4443 33.2749 51.7858C34.7635 49.5529 37.1743 48.4364 40.4509 48.4648ZM33.1697 67.3998C32.4699 65.9881 31.6892 63.1889 31.5193 60.1187C31.5193 59.8476 31.495 59.5645 31.491 59.2692C33.8938 59.0993 36.2642 58.4966 38.1856 57.2183C39.5996 56.2988 40.7222 54.9952 41.4217 53.4604C42.2182 51.5757 42.5377 49.5236 42.3521 47.4858C42.3296 47.2488 42.2252 47.0271 42.0569 46.8587C41.8885 46.6904 41.6668 46.586 41.4298 46.5636C39.392 46.3779 37.34 46.6974 35.4552 47.4939C33.9204 48.1934 32.6168 49.316 31.6973 50.73C30.419 52.6514 29.8163 55.0218 29.6464 57.4246C29.3552 57.4246 29.068 57.4246 28.797 57.3963C25.7429 57.2305 22.9437 56.4498 21.5158 55.7459C21.3047 55.6599 21.0699 55.6519 20.8534 55.7234C20.6369 55.7948 20.453 55.9411 20.3347 56.136C20.2163 56.3308 20.1712 56.5614 20.2076 56.7865C20.2439 57.0115 20.3592 57.2162 20.5329 57.3639C20.5743 57.3956 20.6191 57.4227 20.6663 57.4448C22.4826 58.3429 25.925 59.257 29.5655 59.3177C29.6303 62.9583 30.5404 66.4169 31.4384 68.2169C31.463 68.2641 31.49 68.31 31.5193 68.3544C31.6588 68.5456 31.8642 68.6785 32.0958 68.7273C32.3274 68.7762 32.5688 68.7377 32.7737 68.6192C32.9786 68.5007 33.1324 68.3105 33.2055 68.0854C33.2786 67.8603 33.2659 67.6161 33.1697 67.3998Z" fill="#212529"/>
</svg>
