<svg width="124" height="120" viewBox="0 0 124 120" fill="none" xmlns="http://www.w3.org/2000/svg">
<path d="M2.12447 61.286C2.56298 60.2562 2.84352 58.8824 2.84352 57.4783V45.057C2.84352 43.5899 2.6249 42.2476 2.1548 41.2494C1.55959 39.9701 1.52926 39.5642 2.96863 39.5642H9.00791C10.4157 39.5642 10.3841 39.9701 9.79015 41.2494C9.32131 42.2489 9.10143 43.5899 9.10143 45.057V61.0994C9.10143 61.5053 9.32005 61.7233 9.72696 61.7233H14.7338C18.4883 61.7233 19.6471 60.0382 21.1484 57.7909C21.5869 57.104 22.0242 57.385 21.7423 58.0404C21.1168 59.476 20.5848 61.2242 20.49 61.7863C20.3333 62.5665 19.958 62.9724 19.1757 62.9724H2.9383C1.53052 62.9724 1.56085 62.5665 2.12447 61.2872V61.286Z" fill="#212529"/>
<path d="M23.8413 61.2858C24.2798 60.256 24.5616 58.8822 24.5616 57.4781V51.4546C24.5616 51.3916 24.53 51.2668 24.4997 51.2051L23.5292 49.7065C23.279 49.3321 23.466 48.8632 23.9045 48.7397L29.9122 47.0231C30.381 46.8983 30.8195 47.2096 30.8195 47.71V57.4794C30.8195 58.8834 31.1014 60.2573 31.5386 61.287C32.1022 62.5663 32.1325 62.9722 30.7248 62.9722H24.6539C23.2461 62.9722 23.2777 62.5663 23.8401 61.287L23.8413 61.2858ZM27.5023 38.2217C29.2551 38.2217 30.6628 39.6258 30.6628 41.3739C30.6628 43.1221 29.2551 44.5577 27.5023 44.5577C25.7495 44.5577 24.3102 43.1536 24.3102 41.3739C24.3102 39.5943 25.7179 38.2217 27.5023 38.2217Z" fill="#212529"/>
<path d="M34.6991 61.2859C35.1377 60.2561 35.4195 58.8823 35.4195 57.4782V48.9264C35.4195 48.7399 35.2944 48.6138 35.1061 48.6138H33.7918C33.4481 48.6138 33.1663 48.426 33.1663 47.9899C33.1663 47.5841 33.4481 47.366 33.7918 47.366H35.1061C35.2944 47.366 35.4195 47.2412 35.4195 47.0534V46.0539C35.4195 43.6504 36.9523 39.0625 42.4912 39.0625C44.4942 39.0625 47.6231 39.5616 48.969 42.308C50.9404 46.272 45.902 47.6761 45.5582 43.7436C45.3396 41.34 44.0873 40.3103 42.6163 40.3103C40.7384 40.3103 39.6428 41.8392 39.6428 43.8054C39.6428 45.5536 40.9255 47.3635 43.3038 47.3635C43.6475 47.3635 43.9293 47.5816 43.9293 47.9874C43.9293 48.4235 43.6475 48.6113 43.3038 48.6113H41.9895C41.8012 48.6113 41.6761 48.7361 41.6761 48.9239V57.4757C41.6761 58.8798 41.9579 60.2536 42.3964 61.2834C42.96 62.5627 42.9904 62.9685 41.5826 62.9685H35.5117C34.1039 62.9685 34.1343 62.5627 34.6979 61.2834L34.6991 61.2859Z" fill="#212529"/>
<path d="M45.3699 55.1692C45.3699 50.207 49.094 46.8669 53.694 46.8669C57.3865 46.8669 61.2358 49.021 61.2358 52.9219C61.2358 57.1669 56.5108 58.8206 52.5996 58.1034C52.1307 58.0102 51.974 58.1349 52.1611 58.571C52.9433 60.6003 55.0082 61.2859 56.5108 61.2859C57.5432 61.2859 59.0458 61.0049 60.0466 60.4125C60.6722 60.0696 60.8605 60.3192 60.5155 60.7566C59.138 62.4732 57.2298 63.4715 54.226 63.4715C49.6261 63.4715 45.3699 60.1314 45.3699 55.1692ZM52.223 56.7611C57.5736 57.6976 56.4792 48.116 53.694 48.116C51.5975 48.116 51.097 53.5786 51.7857 56.3868C51.8477 56.5746 52.0044 56.7308 52.2243 56.7611H52.223Z" fill="#212529"/>
<path d="M2.12447 90.3204C2.56298 89.2906 2.84352 87.9168 2.84352 86.5127V74.0915C2.84352 72.6244 2.6249 71.282 2.1548 70.2838C1.56085 69.0045 1.52926 68.5986 2.96863 68.5986H9.00791C10.4157 68.5986 10.3854 69.0045 9.79015 70.2838C9.32131 71.2833 9.10143 72.6244 9.10143 74.0915V90.1339C9.10143 90.5397 9.32005 90.7578 9.72696 90.7578H14.7338C18.4895 90.7578 19.6471 89.0726 21.1484 86.8253C21.5869 86.1384 22.0242 86.4194 21.7436 87.0749C21.1181 88.5105 20.5861 90.2586 20.4913 90.8208C20.3346 91.601 19.9592 92.0068 19.177 92.0068H2.9383C1.53052 92.0068 1.56085 91.601 2.12447 90.3217V90.3204Z" fill="#212529"/>
<path d="M23.8414 90.3202C24.2799 89.2904 24.5604 87.9166 24.5604 86.5125V80.4891C24.5604 80.426 24.5288 80.3013 24.4985 80.2395L23.528 78.7409C23.2778 78.3665 23.4648 77.8977 23.9033 77.7742L29.911 76.0575C30.3798 75.9327 30.8183 76.244 30.8183 76.7444V86.5138C30.8183 87.9179 31.1001 89.2917 31.5386 90.3214C32.1023 91.6008 32.1326 92.0066 30.7248 92.0066H24.6539C23.2462 92.0066 23.2765 91.6008 23.8401 90.3214L23.8414 90.3202ZM27.5023 67.2561C29.2551 67.2561 30.6629 68.6602 30.6629 70.4084C30.6629 72.1565 29.2551 73.5921 27.5023 73.5921C25.7496 73.5921 24.3102 72.1881 24.3102 70.4084C24.3102 68.6287 25.718 67.2561 27.5023 67.2561Z" fill="#212529"/>
<path d="M41.8341 90.881C41.4588 90.5066 41.2085 90.5381 41.2085 91.0372C41.2085 91.5679 40.77 92.0052 40.238 92.0052H35.0429C33.6351 92.0052 33.6654 91.5994 34.2291 90.3201C34.6676 89.2903 34.9494 87.9165 34.9494 86.5124V72.7803C34.9494 72.7173 34.9178 72.5938 34.8862 72.5308L33.9157 71.0322C33.6654 70.6578 33.8537 70.1902 34.291 70.0654L40.2987 68.3488C40.7675 68.224 41.206 68.5366 41.206 69.0357V76.6195C41.206 77.1186 41.5194 77.2434 41.9251 76.9623C42.8324 76.3384 44.0532 75.9011 45.6808 75.9011C50.3743 75.9011 53.9417 78.7723 53.9417 84.2034C53.9417 89.6344 49.8422 92.5056 46.4315 92.5056C44.335 92.5056 42.7389 91.7254 41.8316 90.8822L41.8341 90.881ZM43.8371 90.3188C46.4024 90.3503 47.6863 87.0733 47.6863 83.703C47.6863 80.3327 46.1838 77.2422 44.0254 77.2422C42.8678 77.2422 41.7406 78.0539 41.3033 79.4264C41.2098 79.7075 41.2098 79.894 41.2098 80.1751V87.4464C41.2098 88.9135 42.3054 90.2861 43.8383 90.3176L43.8371 90.3188Z" fill="#212529"/>
<path d="M56.3213 77.7428L62.329 76.0261C62.7979 75.9013 63.2364 76.2139 63.2364 76.713V77.4932C63.2364 78.0554 63.5182 78.1486 63.9251 77.7428C65.803 75.9013 68.8384 75.6833 70.4648 76.0576C74.7513 77.0874 72.5613 81.863 69.3389 79.5842C68.1813 78.7725 67.7428 77.555 66.3969 77.555C65.0511 77.555 63.2364 79.0536 63.2364 81.4244V86.5114C63.2364 87.9155 63.5182 89.2893 63.9554 90.3191C64.519 91.5984 64.5506 92.0042 63.1416 92.0042H57.0707C55.6629 92.0042 55.6933 91.5984 56.2569 90.3191C56.6954 89.2893 56.9772 87.9155 56.9772 86.5114V80.4564C56.9772 80.3934 56.9456 80.2686 56.914 80.2069L55.9435 78.7082C55.6933 78.3339 55.8816 77.865 56.3188 77.7415L56.3213 77.7428ZM65.9597 88.4171C65.9597 83.2053 72.876 83.0491 74.6907 81.8013C74.8474 81.6765 74.9093 81.4572 74.9093 81.2706C74.9093 80.1476 74.8777 78.8986 74.4089 78.0869C74.1902 77.7125 73.8768 77.463 73.4396 77.3067C72.876 77.0886 72.9076 77.2134 72.2189 76.495C72.0622 76.3387 72.0622 76.0891 72.3756 75.9959C72.6574 75.9026 73.1894 75.9026 73.5331 75.9026C79.3854 75.9026 81.1685 79.554 81.1685 81.9576V87.2323C81.1685 88.2306 81.7005 89.1355 82.4827 89.012C83.1083 88.9187 83.2966 89.1368 83.0463 89.6044C81.8888 91.6954 80.1044 92.5071 78.2897 92.5071C77.0071 92.5071 75.4426 91.6954 75.0357 90.3531C74.9725 90.1665 74.7855 90.1968 74.6603 90.3846C73.5344 91.8832 72.0002 92.5071 70.4989 92.5071C68.1206 92.5071 65.9609 90.822 65.9609 88.4184L65.9597 88.4171ZM74.721 89.2603C74.8461 89.1355 74.9093 88.9175 74.9093 88.7612V83.4247C74.9093 83.2066 74.6591 83.1436 74.4708 83.2684C72.9682 84.2666 72.2176 85.1098 72.2176 87.4504C72.2176 89.2301 73.7821 90.2283 74.721 89.2603Z" fill="#212529"/>
<path d="M85.1417 90.3202C85.5802 89.2905 85.8607 87.9167 85.8607 86.5126V80.4576C85.8607 80.3946 85.8291 80.2698 85.7988 80.208L84.8283 78.7094C84.578 78.3351 84.7651 77.8662 85.2036 77.7427L91.2113 76.026C91.6801 75.9013 92.1186 76.2138 92.1186 76.713V77.4931C92.1186 78.0553 92.4004 78.1486 92.8073 77.7427C94.6852 75.9013 97.7207 75.6832 99.3471 76.0575C103.634 77.0873 101.444 81.863 98.2211 79.5841C97.0635 78.7724 96.625 77.5549 95.2792 77.5549C93.9333 77.5549 92.1186 79.0535 92.1186 81.4243V86.5113C92.1186 87.9154 92.4004 89.2892 92.8389 90.319C93.4026 91.5983 93.4329 92.0042 92.0251 92.0042H85.9542C84.5464 92.0042 84.5768 91.5983 85.1404 90.319L85.1417 90.3202Z" fill="#212529"/>
<path d="M103.885 98.2154C100.411 95.469 104.448 92.0672 106.388 95.5005C107.296 96.9991 107.921 98.6213 109.424 98.6213C111.051 98.6213 112.302 97.4982 113.053 95.0947C113.492 93.6906 113.022 92.0054 111.364 92.0054C110.456 92.0054 110.393 91.9424 110.206 91.5063L105.794 81.8C104.792 79.6157 104.198 79.1468 103.51 78.1801C102.571 76.931 102.602 76.4004 104.135 76.4004H109.956C111.677 76.4004 111.709 77.2739 111.583 78.4599C111.458 79.4896 111.959 80.5509 112.459 81.9247L114.806 88.2293C115.025 88.8229 115.431 88.8229 115.62 88.2293L117.905 81.3323C118.625 79.1783 118.655 78.1486 118.28 77.3999C118.03 76.8693 118.092 76.4004 118.812 76.4004H121.754C122.411 76.4004 122.379 76.7747 121.817 77.1806C121.097 77.7112 120.127 78.9288 119.377 81.0198L114.558 94.5968C112.962 99.0914 110.647 99.8716 108.581 99.8716C106.828 99.8716 105.202 99.2477 103.887 98.2179L103.885 98.2154Z" fill="#212529"/>
<path d="M85.7568 63.0856L69.4397 46.7836V0H85.7568V63.0856Z" fill="#212529"/>
<path d="M105.524 54.9208L111.208 46.7837H89.1992V63.058H111.208L105.524 54.9208Z" fill="#212529"/>
</svg>
