<svg width="169" height="100" viewBox="0 0 169 100" fill="none" xmlns="http://www.w3.org/2000/svg">
<path d="M57.6492 72.9748C42.0629 66.1288 42.0629 40.9263 57.6492 34.0816C57.6571 34.0784 57.6636 34.0725 57.6676 34.065C57.6716 34.0574 57.6728 34.0487 57.671 34.0404C57.6693 34.032 57.6646 34.0246 57.6579 34.0193C57.6512 34.014 57.6429 34.0113 57.6344 34.0115C53.8239 34.0115 50.0806 33.9131 46.4153 35.1871C41.5385 36.8831 37.3354 40.4126 34.9864 45.0422C30.0249 54.8245 34.7834 66.6128 44.5329 71.0982C48.7548 73.0436 53.1126 73.0463 57.6357 73.0463C57.6442 73.0465 57.6526 73.0438 57.6593 73.0385C57.666 73.0332 57.6706 73.0258 57.6724 73.0174C57.6741 73.009 57.6729 73.0003 57.6689 72.9928C57.6649 72.9853 57.6584 72.9794 57.6505 72.9762" fill="#212529"/>
<path d="M101.108 91.3688H87.2061L73.9889 73.0486H60.8054V51.478C60.8054 51.478 63.0643 51.478 65.5786 51.478C67.7299 51.478 69.7186 51.4659 70.9905 51.3567C74.2269 51.0803 76.0448 47.9472 75.8148 44.6037C75.636 42.0031 74.676 39.4807 67.9464 35.8771C64.5514 34.0584 61.6915 32.4581 58.845 30.1137C53.5756 25.7766 52.067 18.0274 57.0446 12.7924C60.7193 8.9367 65.8354 9.00006 71.6494 9.00006C71.6575 9.00006 71.6653 9.00299 71.6714 9.00831C71.6775 9.01362 71.6815 9.02097 71.6826 9.029C71.6838 9.03703 71.682 9.04521 71.6776 9.05203C71.6732 9.05885 71.6665 9.06385 71.6588 9.06612C64.3578 10.8713 62.5816 16.543 67.2109 21.1996C72.8581 26.8808 82.5861 27.6708 83.9092 37.0823C84.3009 39.9161 83.7089 42.7987 82.2325 45.2468C80.4052 48.1602 77.4351 50.3038 73.9889 51.482V72.9974L82.1303 65.0203L101.108 91.3688Z" fill="#212529"/>
<path d="M99.6345 55.5832C99.6345 55.6074 100.859 53.0217 100.859 53.0217C100.178 52.632 97.6485 51.4605 95.5362 51.4847C94.4606 51.4969 93.4952 51.6546 92.6857 51.989C91.9426 52.2763 91.2966 52.7701 90.8235 53.4126C90.3819 54.0465 90.1526 54.8047 90.1687 55.5778C90.1468 56.3026 90.3854 57.0112 90.841 57.5744C91.2659 58.0988 92.0753 58.626 92.6575 58.8754C93.2873 59.1571 93.9406 59.3827 94.6098 59.5495C95.2565 59.7008 95.8869 59.9148 96.4922 60.1885C97.0717 60.4797 97.1941 60.9084 97.1941 61.2185C97.2004 61.3903 97.1624 61.5609 97.0838 61.7137C97.0051 61.8665 96.8884 61.9964 96.745 62.0907C96.4761 62.2795 96.0915 62.3739 95.6196 62.3739C94.8949 62.3739 94.0209 62.1649 93.0246 61.7537C92.1949 61.3983 91.3836 61.0014 90.5936 60.5646L89.3525 63.1005C90.253 63.6382 91.1976 64.0978 92.1761 64.4743C93.2608 64.904 94.4171 65.1227 95.5833 65.1187C96.5175 65.1314 97.4461 64.9728 98.3235 64.6509C99.0777 64.3783 99.7396 63.8974 100.233 63.2636C100.697 62.6543 100.931 61.8953 100.931 61.0068C100.931 60.1184 100.716 59.4254 100.293 58.8983C99.8858 58.3809 99.3613 57.9682 98.7632 57.6944C98.0121 57.3709 97.2393 57.1006 96.4505 56.8855C95.8115 56.7265 95.1892 56.5062 94.5923 56.2276C94.0303 55.9364 93.912 55.5185 93.912 55.2178C93.9067 55.0707 93.9392 54.9246 94.0063 54.7936C94.0734 54.6626 94.1729 54.5511 94.2952 54.4696C94.7564 54.1568 95.5362 54.1689 96.5917 54.4413C97.637 54.7329 98.6551 55.1149 99.6345 55.5832Z" fill="#212529"/>
<path d="M111.934 54.8567C112.39 55.0735 112.823 55.3349 113.227 55.6373L115.116 53.3805C114.399 52.7879 113.583 52.3269 112.706 52.0188C111.742 51.6621 110.723 51.4768 109.696 51.4715C108.388 51.4534 107.095 51.757 105.931 52.3559C104.845 52.911 103.937 53.7605 103.309 54.8078C102.681 55.855 102.359 57.0579 102.379 58.2797C102.362 59.5097 102.678 60.7211 103.294 61.7849C103.899 62.8138 104.77 63.6586 105.817 64.2291C107.636 65.2376 109.881 65.4196 112.433 64.6336C113.345 64.3661 114.212 63.9655 115.007 63.4445V58.2392H111.955V61.5409L111.843 61.5935C111.036 61.9764 110.325 62.1718 109.721 62.1718C109.069 62.1781 108.427 62.0012 107.87 61.6609C107.314 61.3206 106.861 60.835 106.559 60.2561C106.248 59.6477 106.086 58.9743 106.084 58.2909C106.083 57.6075 106.242 56.9334 106.549 56.3235C106.846 55.7501 107.292 55.268 107.84 54.9282C108.888 54.2797 110.603 54.2271 111.934 54.8567Z" fill="#212529"/>
<path d="M124.6 56.9995L129.31 51.7578H125.224L120.42 57.5172V51.7578H116.811V64.8606H120.42V61.6843L122.143 59.7807L125.375 64.8606H129.696L124.6 56.9995Z" fill="#212529"/>
<path d="M132.091 54.2357H131.916V51.9209H131.109V51.7578H132.892V51.9209H132.086L132.091 54.2357Z" fill="#212529"/>
<path d="M134.351 54.2357L133.427 51.9439H133.414C133.423 52.0841 133.427 52.2279 133.427 52.3753V54.2357H133.261V51.7578H133.53L134.408 53.9418H134.418L135.296 51.7578H135.557V54.2357H135.382V52.3483C135.382 52.2171 135.389 52.0823 135.403 51.9439H135.389L134.463 54.2357H134.351Z" fill="#212529"/>
</svg>
