<svg width="96" height="36" viewBox="0 0 96 36" fill="none" xmlns="http://www.w3.org/2000/svg">
<path d="M5.84172 24.9845C5.84172 24.9845 5.04801 24.9051 5.04801 25.6036V28.7308H10.2548V29.6674C10.2548 29.6674 10.2706 30.1278 9.77853 30.1278H5.04801V34.1916H10.731C10.731 34.1916 14.1757 33.6677 14.2074 30.1278V24.9845H5.84172ZM14.0487 20H3.79394C0.0793715 20.8731 0 23.9209 0 23.9209V34.2074H3.93681V24.8416C3.93681 24.0479 4.73052 23.9051 4.73052 23.9051H14.0328L14.0487 20ZM27.5894 31.2548C27.3196 31.4294 27.1132 31.5723 26.9703 31.6517C26.4623 31.9692 25.9861 32.2073 25.5416 32.3978C24.8908 32.6676 24.3193 32.7946 23.7955 32.7946C22.0176 32.7946 20.5413 32.2549 19.3666 31.1596C18.176 30.0643 17.5886 28.6832 17.5886 27.0323C17.5886 25.429 18.1125 24.0479 19.1919 22.8574C20.2555 21.6827 21.5572 21.0953 23.0811 21.0953C23.7161 21.0953 24.3987 21.2064 25.0972 21.4287C26.0179 21.7144 26.7481 22.1589 27.3513 22.7145L26.3354 23.8416C25.9067 23.413 25.3353 23.1113 24.6844 22.9209C24.1923 22.778 23.6526 22.6986 23.0494 22.6986C21.9858 22.6986 21.081 23.1272 20.3508 23.9844C19.6364 24.8575 19.2713 25.8735 19.2713 27.0799C19.2713 28.2705 19.684 29.2547 20.5095 30.0325C21.335 30.8104 22.3827 31.2072 23.6526 31.2072C24.1765 31.2072 24.7162 31.0326 25.2718 30.7151C25.7321 30.3659 25.9702 30.1913 25.9702 30.1913V27.7149H22.5255L23.0176 26.1751H27.5894V31.2548ZM37.9553 28.2387C37.9553 29.4293 37.5267 30.4611 36.6854 31.3342C35.844 32.2073 34.7963 32.6518 33.5423 32.6518C32.3834 32.6518 31.3834 32.2232 30.5103 31.3659C29.6372 30.5087 29.2086 29.4769 29.2086 28.2546C29.2086 27.0482 29.6213 26.0163 30.4468 25.1274C31.2722 24.2384 32.2882 23.8098 33.4629 23.8098C34.7804 23.8098 35.844 24.2384 36.6854 25.0798C37.5267 25.9052 37.9553 26.9688 37.9553 28.2387ZM36.352 28.2705C36.352 27.4609 36.0821 26.7783 35.5424 26.2227C35.0027 25.6512 34.336 25.3814 33.5264 25.3814C32.7803 25.3814 32.1453 25.6671 31.6056 26.2544C31.0818 26.8259 30.8119 27.4926 30.8119 28.2387C30.8119 29.0166 31.0818 29.6833 31.6056 30.2389C32.1295 30.7945 32.7962 31.0802 33.5899 31.0802C34.336 31.0802 34.9709 30.8104 35.5107 30.2548C36.0821 29.6833 36.352 29.0166 36.352 28.2705ZM48.1942 28.2387C48.1942 29.4293 47.7656 30.4611 46.9242 31.3342C46.0829 32.2073 45.0352 32.6518 43.7811 32.6518C42.6223 32.6518 41.6222 32.2232 40.7492 31.3659C39.8761 30.5087 39.4475 29.4769 39.4475 28.2546C39.4475 27.0482 39.8602 26.0163 40.6857 25.1274C41.5111 24.2384 42.5271 23.8098 43.7018 23.8098C45.0193 23.8098 46.0829 24.2384 46.9242 25.0798C47.7656 25.9052 48.1942 26.9688 48.1942 28.2387ZM46.575 28.2705C46.575 27.4609 46.3051 26.7783 45.7654 26.2227C45.2257 25.6512 44.559 25.3814 43.7494 25.3814C43.0033 25.3814 42.3683 25.6671 41.8286 26.2544C41.3048 26.8259 41.0349 27.4926 41.0349 28.2387C41.0349 29.0166 41.3048 29.6833 41.8286 30.2389C42.3525 30.7945 43.0192 31.0802 43.8129 31.0802C44.559 31.0802 45.1939 30.8104 45.7337 30.2548C46.3051 29.6833 46.575 29.0166 46.575 28.2705ZM57.6552 32.4136L56.1789 32.6359V31.2072L55.8614 31.5723C55.5757 31.8422 55.2582 32.0485 54.9249 32.2232C54.4169 32.4613 53.8771 32.5724 53.3216 32.5724C52.1627 32.5724 51.1785 32.1438 50.3848 31.3025C49.5911 30.4611 49.1784 29.4293 49.1784 28.2546C49.1784 27.0323 49.5752 25.9846 50.3689 25.1274C51.1627 24.2543 52.1151 23.8257 53.2739 23.8257C53.9406 23.8257 54.5121 23.9368 54.9883 24.1432C55.3376 24.3019 55.6233 24.5083 55.8773 24.7623C55.9567 24.8734 56.036 24.9845 56.1313 25.0956V21.3334L57.7028 21.1112L57.6552 32.4136ZM56.2742 28.3498C56.2742 27.5085 55.9884 26.7942 55.417 26.2227C54.8455 25.6354 54.1946 25.3496 53.4485 25.3496C52.6231 25.3496 51.9722 25.6195 51.4643 26.1751C50.988 26.6989 50.7499 27.3498 50.7499 28.1117C50.7499 28.9689 51.0039 29.6833 51.496 30.2389C51.9881 30.7945 52.6072 31.0643 53.385 31.0643C54.1311 31.0643 54.7979 30.8104 55.3852 30.2865C55.9725 29.7627 56.2742 29.1118 56.2742 28.3498ZM65.9733 22.8891H61.5603V25.8893H64.9891V27.4291H61.5603V32.3978L59.8459 32.6518V21.3334H65.64L65.9733 22.8891ZM69.5133 22.016L68.4497 23.3495L67.4337 22.016L68.4973 20.6985L69.5133 22.016ZM69.1958 32.4136L67.6242 32.6359V24.2543L69.1958 24.0162V32.4136ZM76.3074 23.9209L75.5614 25.6354C75.4661 25.6195 75.3709 25.6195 75.2597 25.6195C75.101 25.6195 74.9581 25.6354 74.7994 25.6512C74.6406 25.6671 74.4819 25.7306 74.3073 25.8258C73.9739 25.9687 73.6882 26.2862 73.4501 26.7465C73.1802 27.2863 73.0374 27.8736 73.0374 28.4768V32.3978L71.4658 32.6518V24.2543L72.9262 23.9844V25.7306C73.1167 25.429 73.3072 25.1274 73.4977 24.8099C73.7676 24.4924 74.085 24.2702 74.4343 24.1273C74.6248 24.0479 74.9581 24.0003 75.482 23.9527C75.99 23.9209 76.2757 23.9051 76.3074 23.9209ZM88.0544 32.4136L86.4828 32.6359V26.8894C86.4828 26.3656 86.3717 25.9687 86.1336 25.7306C85.8955 25.4925 85.5462 25.3655 85.0859 25.3655C84.5303 25.3655 84.1176 25.5877 83.8318 26.0481C83.6413 26.3656 83.5302 26.6989 83.5302 27.0323V32.3819L81.9587 32.6676V26.9053C81.9587 26.3973 81.8475 26.0163 81.6094 25.7465C81.3713 25.4766 81.0697 25.3496 80.6729 25.3496H80.5141C79.9585 25.3496 79.5617 25.5719 79.3077 26.0481C79.1172 26.3973 79.0219 26.8418 79.0219 27.3815V32.366L77.3869 32.6518V24.2225L78.8632 23.9686V25.048C79.0219 24.794 79.1966 24.5877 79.3394 24.4448C79.768 24.0479 80.2601 23.8574 80.8157 23.8574C81.4348 23.8574 81.8952 23.9527 82.2127 24.159C82.4825 24.3337 82.7365 24.667 83.0064 25.1433C83.5461 24.286 84.3081 23.8574 85.324 23.8574C86.2923 23.8574 87.0067 24.159 87.4829 24.7781C87.8639 25.2861 88.0544 26.0322 88.0544 27.0005V32.4136ZM95.2454 29.8738C95.2454 30.6516 94.9755 31.2866 94.4358 31.7787C93.8961 32.2867 93.2135 32.5248 92.388 32.5248C91.7689 32.5248 91.2133 32.3819 90.7054 32.0962C90.1974 31.8104 89.8164 31.4771 89.5783 31.0961L90.6895 30.1119C90.7689 30.2389 90.8482 30.3341 90.9117 30.3976C91.3245 30.8262 91.8166 31.0326 92.388 31.0326C92.7849 31.0326 93.1024 30.9215 93.3246 30.7151C93.5627 30.5087 93.6739 30.223 93.6739 29.842C93.6739 29.4134 93.404 29.1277 92.8643 28.9689C91.8007 28.6515 91.2133 28.461 91.134 28.4292C90.6419 28.1752 90.2926 27.9054 90.0704 27.6038C89.8164 27.2545 89.6894 26.7942 89.6894 26.2068C89.6894 25.4766 89.9593 24.8893 90.4831 24.3972C91.007 23.9209 91.6419 23.6828 92.3722 23.6828C92.9278 23.6828 93.4357 23.8098 93.912 24.0638C94.3882 24.3178 94.7215 24.5877 94.9279 24.8893L93.9913 25.9052C93.8485 25.7623 93.6897 25.6354 93.531 25.5242C93.15 25.2544 92.7849 25.1274 92.4515 25.1274C92.1182 25.1274 91.8483 25.2067 91.642 25.3496C91.388 25.5242 91.261 25.7941 91.261 26.1433C91.261 26.4767 91.3721 26.7307 91.6261 26.8894C91.8324 27.0164 92.2769 27.1593 92.9913 27.318C93.6897 27.4926 94.2453 27.7784 94.6263 28.1911C95.0708 28.6356 95.2454 29.1753 95.2454 29.8738Z" fill="white"/>
<path d="M14.0661 7.15443C13.8413 6.92961 13.9807 6.54458 14.2974 6.5158L17.1744 6.25425C17.3037 6.24249 17.4177 6.16465 17.4758 6.04849L19.1646 2.67083C19.3028 2.39443 19.6973 2.39443 19.8355 2.67083L21.5243 6.04849C21.5824 6.16465 21.6964 6.24249 21.8258 6.25425L24.7028 6.5158C25.0194 6.54458 25.1588 6.92961 24.934 7.15443L22.4875 9.6009C22.3871 9.70134 22.352 9.84991 22.3969 9.98466L23.4491 13.1412C23.5548 13.4582 23.2245 13.7447 22.9256 13.5952L19.6678 11.9663C19.5622 11.9135 19.4379 11.9135 19.3324 11.9663L16.0745 13.5952C15.7757 13.7447 15.4454 13.4582 15.551 13.1412L16.6032 9.98466C16.6481 9.84991 16.6131 9.70134 16.5126 9.6009L14.0661 7.15443Z" fill="white"/>
<path d="M28.3161 7.15443C28.0913 6.92961 28.2307 6.54458 28.5474 6.5158L31.4244 6.25425C31.5537 6.24249 31.6677 6.16465 31.7258 6.04849L33.4146 2.67083C33.5528 2.39443 33.9473 2.39443 34.0855 2.67083L35.7743 6.04849C35.8324 6.16465 35.9464 6.24249 36.0758 6.25425L38.9528 6.5158C39.2694 6.54458 39.4088 6.92961 39.184 7.15443L36.7375 9.6009C36.6371 9.70134 36.602 9.84991 36.6469 9.98466L37.6991 13.1412C37.8048 13.4582 37.4745 13.7447 37.1756 13.5952L33.9178 11.9663C33.8122 11.9135 33.6879 11.9135 33.5824 11.9663L30.3245 13.5952C30.0257 13.7447 29.6954 13.4582 29.801 13.1412L30.8532 9.98466C30.8981 9.84991 30.8631 9.70134 30.7626 9.6009L28.3161 7.15443Z" fill="white"/>
<path d="M42.5666 7.15443C42.3418 6.92961 42.4812 6.54458 42.7978 6.5158L45.6748 6.25425C45.8042 6.24249 45.9182 6.16465 45.9763 6.04849L47.6651 2.67083C47.8033 2.39443 48.1978 2.39443 48.336 2.67083L50.0248 6.04849C50.0829 6.16465 50.1969 6.24249 50.3263 6.25425L53.2033 6.5158C53.5199 6.54458 53.6593 6.92961 53.4345 7.15443L50.988 9.6009C50.8876 9.70134 50.8525 9.84991 50.8974 9.98466L51.9496 13.1412C52.0552 13.4582 51.7249 13.7447 51.4261 13.5952L48.1683 11.9663C48.0627 11.9135 47.9384 11.9135 47.8328 11.9663L44.575 13.5952C44.2762 13.7447 43.9459 13.4582 44.0515 13.1412L45.1037 9.98466C45.1486 9.84991 45.1135 9.70134 45.0131 9.6009L42.5666 7.15443Z" fill="white"/>
<path d="M56.8166 7.15443C56.5918 6.92961 56.7312 6.54458 57.0478 6.5158L59.9248 6.25425C60.0542 6.24249 60.1682 6.16465 60.2263 6.04849L61.9151 2.67083C62.0533 2.39443 62.4478 2.39443 62.586 2.67083L64.2748 6.04849C64.3329 6.16465 64.4469 6.24249 64.5763 6.25425L67.4533 6.5158C67.7699 6.54458 67.9093 6.92961 67.6845 7.15443L65.238 9.6009C65.1376 9.70134 65.1025 9.84991 65.1474 9.98466L66.1996 13.1412C66.3052 13.4582 65.9749 13.7447 65.6761 13.5952L62.4183 11.9663C62.3127 11.9135 62.1884 11.9135 62.0828 11.9663L58.825 13.5952C58.5262 13.7447 58.1959 13.4582 58.3015 13.1412L59.3537 9.98466C59.3986 9.84991 59.3635 9.70134 59.2631 9.6009L56.8166 7.15443Z" fill="white"/>
<path d="M71.0666 7.15443C70.8418 6.92961 70.9812 6.54458 71.2978 6.5158L74.1748 6.25425C74.3042 6.24249 74.4182 6.16465 74.4763 6.04849L76.1651 2.67083C76.3033 2.39443 76.6978 2.39443 76.836 2.67083L78.5248 6.04849C78.5829 6.16465 78.6969 6.24249 78.8263 6.25425L81.7033 6.5158C82.0199 6.54458 82.1593 6.92961 81.9345 7.15443L79.488 9.6009C79.3876 9.70134 79.3525 9.84991 79.3974 9.98466L80.4496 13.1412C80.5552 13.4582 80.2249 13.7447 79.9261 13.5952L76.6683 11.9663C76.5627 11.9135 76.4384 11.9135 76.3328 11.9663L73.075 13.5952C72.7762 13.7447 72.4459 13.4582 72.5515 13.1412L73.6037 9.98466C73.6486 9.84991 73.6135 9.70134 73.5131 9.6009L71.0666 7.15443Z" fill="white"/>
</svg>
