<svg width="131" height="36" viewBox="0 0 131 36" fill="none" xmlns="http://www.w3.org/2000/svg">
<g clip-path="url(#clip0_33272_1687)">
<path d="M66.5333 18.1163C66.3215 17.9045 66.4529 17.5418 66.7511 17.5147L69.4613 17.2683C69.5831 17.2573 69.6906 17.1839 69.7453 17.0745L71.3362 13.8927C71.4664 13.6323 71.838 13.6323 71.9681 13.8927L73.5591 17.0745C73.6138 17.1839 73.7212 17.2573 73.843 17.2683L76.5532 17.5147C76.8515 17.5418 76.9828 17.9045 76.771 18.1163L74.4664 20.4209C74.3718 20.5156 74.3387 20.6555 74.3811 20.7824L75.3722 23.756C75.4718 24.0546 75.1606 24.3244 74.8791 24.1837L71.8102 22.6492C71.7107 22.5995 71.5936 22.5995 71.4942 22.6492L68.4252 24.1837C68.1437 24.3244 67.8326 24.0546 67.9321 23.756L68.9233 20.7824C68.9656 20.6555 68.9326 20.5156 68.8379 20.4209L66.5333 18.1163Z" fill="white"/>
<path d="M79.9571 18.1163C79.7454 17.9045 79.8767 17.5418 80.175 17.5147L82.8851 17.2683C83.007 17.2573 83.1144 17.1839 83.1691 17.0745L84.76 13.8927C84.8902 13.6323 85.2618 13.6323 85.392 13.8927L86.9829 17.0745C87.0376 17.1839 87.145 17.2573 87.2669 17.2683L89.977 17.5147C90.2753 17.5418 90.4066 17.9045 90.1949 18.1163L87.8902 20.4209C87.7956 20.5156 87.7626 20.6555 87.8049 20.7824L88.7961 23.756C88.8956 24.0546 88.5845 24.3244 88.303 24.1837L85.234 22.6492C85.1345 22.5995 85.0175 22.5995 84.918 22.6492L81.849 24.1837C81.5675 24.3244 81.2564 24.0546 81.3559 23.756L82.3471 20.7824C82.3894 20.6555 82.3564 20.5156 82.2618 20.4209L79.9571 18.1163Z" fill="white"/>
<path d="M93.381 18.1163C93.1692 17.9045 93.3005 17.5418 93.5988 17.5147L96.309 17.2683C96.4308 17.2573 96.5382 17.1839 96.593 17.0745L98.1839 13.8927C98.314 13.6323 98.6856 13.6323 98.8158 13.8927L100.407 17.0745C100.461 17.1839 100.569 17.2573 100.691 17.2683L103.401 17.5147C103.699 17.5418 103.83 17.9045 103.619 18.1163L101.314 20.4209C101.219 20.5156 101.186 20.6555 101.229 20.7824L102.22 23.756C102.319 24.0546 102.008 24.3244 101.727 24.1837L98.6578 22.6492C98.5584 22.5995 98.4413 22.5995 98.3418 22.6492L95.2729 24.1837C94.9914 24.3244 94.6802 24.0546 94.7798 23.756L95.7709 20.7824C95.8133 20.6555 95.7802 20.5156 95.6856 20.4209L93.381 18.1163Z" fill="white"/>
<path d="M106.805 18.1163C106.594 17.9045 106.725 17.5418 107.023 17.5147L109.733 17.2683C109.855 17.2573 109.963 17.1839 110.017 17.0745L111.608 13.8927C111.738 13.6323 112.11 13.6323 112.24 13.8927L113.831 17.0745C113.886 17.1839 113.993 17.2573 114.115 17.2683L116.825 17.5147C117.123 17.5418 117.255 17.9045 117.043 18.1163L114.738 20.4209C114.644 20.5156 114.611 20.6555 114.653 20.7824L115.644 23.756C115.744 24.0546 115.433 24.3244 115.151 24.1837L112.082 22.6492C111.983 22.5995 111.866 22.5995 111.766 22.6492L108.697 24.1837C108.416 24.3244 108.105 24.0546 108.204 23.756L109.195 20.7824C109.238 20.6555 109.205 20.5156 109.11 20.4209L106.805 18.1163Z" fill="white"/>
<path d="M120.229 18.1163C120.017 17.9045 120.149 17.5418 120.447 17.5147L123.157 17.2683C123.279 17.2573 123.386 17.1839 123.441 17.0745L125.032 13.8927C125.162 13.6323 125.534 13.6323 125.664 13.8927L127.255 17.0745C127.31 17.1839 127.417 17.2573 127.539 17.2683L130.249 17.5147C130.547 17.5418 130.679 17.9045 130.467 18.1163L128.162 20.4209C128.068 20.5156 128.035 20.6555 128.077 20.7824L129.068 23.756C129.168 24.0546 128.856 24.3244 128.575 24.1837L125.506 22.6492C125.407 22.5995 125.289 22.5995 125.19 22.6492L122.121 24.1837C121.84 24.3244 121.528 24.0546 121.628 23.756L122.619 20.7824C122.661 20.6555 122.628 20.5156 122.534 20.4209L120.229 18.1163Z" fill="white"/>
<path d="M20 1C25.5228 1 30 5.47715 30 11V35H10C4.47715 35 2.25497e-07 30.5228 0 25V1H20ZM16.1289 9C10.8405 9.00013 7.00004 12.8057 7 18.0342C7 23.2405 10.9325 27.1825 16.1289 27.1826C18.5436 27.1826 20.7957 26.3345 22.4531 24.7988L23.1426 24.1562L20.2461 21.3145L19.6025 21.8867C18.6813 22.7125 17.4646 23.1699 16.1299 23.1699C13.1876 23.1698 11.0265 21.0151 11.0264 18.0566C11.0264 15.0981 13.1187 13.0334 16.1299 13.0332C17.4414 13.0332 18.6814 13.4691 19.626 14.2949L20.2676 14.8457L23.1211 12.002L22.4062 11.3594C20.7277 9.84806 18.4991 9 16.1289 9ZM15.9902 15.0527C15.1791 15.0528 14.4007 15.3733 13.8271 15.9453C13.2535 16.5173 12.9317 17.2936 12.9316 18.1025C12.9316 18.9115 13.2536 19.6877 13.8271 20.2598C14.4007 20.8318 15.1791 21.1532 15.9902 21.1533C16.8014 21.1533 17.5797 20.8317 18.1533 20.2598C18.727 19.6877 19.0498 18.9116 19.0498 18.1025C19.0498 17.2936 18.7269 16.5173 18.1533 15.9453C17.5797 15.3734 16.8014 15.0527 15.9902 15.0527Z" fill="white"/>
<path d="M40.2534 19.6011L39.314 19.3599L39.7773 14.7578H44.519V15.8433H40.7739L40.4946 18.3569C40.6639 18.2596 40.8776 18.1686 41.1357 18.084C41.3981 17.9993 41.6986 17.957 42.0371 17.957C42.4645 17.957 42.8475 18.0311 43.186 18.1792C43.5246 18.3231 43.8123 18.5304 44.0493 18.8013C44.2905 19.0721 44.4746 19.3979 44.6016 19.7788C44.7285 20.1597 44.792 20.585 44.792 21.0547C44.792 21.499 44.7306 21.9074 44.6079 22.2798C44.4894 22.6522 44.3096 22.978 44.0684 23.2573C43.8271 23.5324 43.5225 23.7461 43.1543 23.8984C42.7904 24.0508 42.3608 24.127 41.8657 24.127C41.4933 24.127 41.14 24.0762 40.8057 23.9746C40.4756 23.8688 40.1794 23.7101 39.917 23.4985C39.6589 23.2827 39.4473 23.0161 39.2822 22.6987C39.1214 22.3771 39.0199 22.0005 38.9775 21.5688H40.0947C40.1455 21.9159 40.2471 22.2078 40.3994 22.4448C40.5518 22.6818 40.7507 22.8617 40.9961 22.9844C41.2458 23.1029 41.5356 23.1621 41.8657 23.1621C42.145 23.1621 42.3926 23.1134 42.6084 23.0161C42.8242 22.9188 43.0062 22.7791 43.1543 22.5972C43.3024 22.4152 43.4146 22.1951 43.4907 21.937C43.5711 21.6789 43.6113 21.389 43.6113 21.0674C43.6113 20.7754 43.5711 20.5046 43.4907 20.2549C43.4103 20.0052 43.2897 19.7873 43.1289 19.6011C42.9723 19.4149 42.7798 19.271 42.5513 19.1694C42.3228 19.0636 42.0604 19.0107 41.7642 19.0107C41.3706 19.0107 41.0723 19.0636 40.8691 19.1694C40.6702 19.2752 40.465 19.4191 40.2534 19.6011ZM46.2266 23.3779C46.2266 23.179 46.2879 23.0119 46.4106 22.8765C46.5376 22.7368 46.7196 22.667 46.9565 22.667C47.1935 22.667 47.3734 22.7368 47.4961 22.8765C47.623 23.0119 47.6865 23.179 47.6865 23.3779C47.6865 23.5726 47.623 23.7376 47.4961 23.873C47.3734 24.0085 47.1935 24.0762 46.9565 24.0762C46.7196 24.0762 46.5376 24.0085 46.4106 23.873C46.2879 23.7376 46.2266 23.5726 46.2266 23.3779ZM55.3101 18.6426V20.0518C55.3101 20.8092 55.2424 21.4482 55.1069 21.9688C54.9715 22.4893 54.7769 22.9082 54.5229 23.2256C54.269 23.543 53.9622 23.7736 53.6025 23.9175C53.2471 24.0571 52.8451 24.127 52.3965 24.127C52.041 24.127 51.7131 24.0825 51.4126 23.9937C51.1121 23.9048 50.8413 23.763 50.6001 23.5684C50.3631 23.3695 50.16 23.1113 49.9907 22.7939C49.8215 22.4766 49.6924 22.0915 49.6035 21.6387C49.5146 21.1859 49.4702 20.6569 49.4702 20.0518V18.6426C49.4702 17.8851 49.5379 17.2503 49.6733 16.7383C49.813 16.2262 50.0098 15.8158 50.2637 15.5068C50.5176 15.1937 50.8223 14.9694 51.1777 14.834C51.5374 14.6986 51.9395 14.6309 52.3838 14.6309C52.7435 14.6309 53.0736 14.6753 53.374 14.7642C53.6787 14.8488 53.9495 14.9863 54.1865 15.1768C54.4235 15.363 54.6245 15.6126 54.7896 15.9258C54.9588 16.2347 55.0879 16.6134 55.1768 17.062C55.2656 17.5106 55.3101 18.0374 55.3101 18.6426ZM54.1294 20.2422V18.4458C54.1294 18.0311 54.104 17.6672 54.0532 17.354C54.0067 17.0366 53.9368 16.7658 53.8438 16.5415C53.7507 16.3172 53.6322 16.1353 53.4883 15.9956C53.3486 15.856 53.1857 15.7544 52.9995 15.6909C52.8175 15.6232 52.6123 15.5894 52.3838 15.5894C52.1045 15.5894 51.8569 15.6423 51.6411 15.748C51.4253 15.8496 51.2433 16.0125 51.0952 16.2368C50.9513 16.4611 50.8413 16.7552 50.7651 17.1191C50.689 17.4831 50.6509 17.9253 50.6509 18.4458V20.2422C50.6509 20.6569 50.6742 21.0229 50.7207 21.3403C50.7715 21.6577 50.8455 21.9328 50.9429 22.1655C51.0402 22.394 51.1587 22.5824 51.2983 22.7305C51.438 22.8786 51.5988 22.9886 51.7808 23.0605C51.967 23.1283 52.1722 23.1621 52.3965 23.1621C52.6842 23.1621 52.936 23.1071 53.1519 22.9971C53.3677 22.887 53.5475 22.7157 53.6914 22.4829C53.8395 22.2459 53.9495 21.9434 54.0215 21.5752C54.0934 21.2028 54.1294 20.7585 54.1294 20.2422Z" fill="white"/>
<path d="M40.5195 32.5061H39.1682L39.1609 31.9385H40.3877C40.5903 31.9385 40.7673 31.9043 40.9187 31.8359C41.0701 31.7676 41.1873 31.6699 41.2703 31.543C41.3557 31.4136 41.3984 31.2598 41.3984 31.0815C41.3984 30.8862 41.3606 30.7275 41.2849 30.6055C41.2117 30.481 41.0981 30.3906 40.9443 30.3345C40.793 30.2759 40.6001 30.2466 40.3657 30.2466H39.3257V35H38.6189V29.668H40.3657C40.6392 29.668 40.8833 29.696 41.0981 29.7522C41.313 29.8059 41.4949 29.8914 41.6438 30.0085C41.7952 30.1233 41.9099 30.2698 41.988 30.448C42.0662 30.6262 42.1052 30.8398 42.1052 31.0889C42.1052 31.3086 42.0491 31.5076 41.9368 31.6858C41.8245 31.8616 41.6682 32.0056 41.468 32.1179C41.2703 32.2302 41.0383 32.3022 40.7722 32.334L40.5195 32.5061ZM40.4866 35H38.8899L39.2891 34.425H40.4866C40.7112 34.425 40.9016 34.386 41.0579 34.3079C41.2166 34.2297 41.3374 34.1199 41.4204 33.9783C41.5034 33.8342 41.5449 33.6646 41.5449 33.4692C41.5449 33.2715 41.5095 33.1006 41.4387 32.9565C41.3679 32.8125 41.2568 32.7014 41.1055 32.6233C40.9541 32.5452 40.7588 32.5061 40.5195 32.5061H39.5125L39.5198 31.9385H40.8967L41.0469 32.1436C41.3032 32.1655 41.5205 32.2388 41.6987 32.3633C41.877 32.4854 42.0125 32.6416 42.1052 32.832C42.2004 33.0225 42.248 33.2324 42.248 33.4619C42.248 33.7939 42.1748 34.0747 42.0283 34.3042C41.8843 34.5312 41.6804 34.7046 41.4167 34.8242C41.1531 34.9414 40.843 35 40.4866 35ZM45.5256 34.3225V32.2827C45.5256 32.1265 45.4939 31.991 45.4304 31.8762C45.3694 31.759 45.2766 31.6687 45.1521 31.6052C45.0276 31.5417 44.8738 31.51 44.6907 31.51C44.5198 31.51 44.3696 31.5393 44.2402 31.5979C44.1133 31.6565 44.0132 31.7334 43.9399 31.8286C43.8691 31.9238 43.8337 32.0264 43.8337 32.1362H43.1562C43.1562 31.9946 43.1929 31.8542 43.2661 31.7151C43.3394 31.5759 43.4443 31.4502 43.5811 31.3379C43.7202 31.2231 43.8862 31.1328 44.0791 31.0669C44.2744 30.9985 44.4917 30.9644 44.731 30.9644C45.019 30.9644 45.2729 31.0132 45.4927 31.1108C45.7148 31.2085 45.8882 31.3562 46.0127 31.554C46.1396 31.7493 46.2031 31.9946 46.2031 32.29V34.1357C46.2031 34.2676 46.2141 34.408 46.2361 34.5569C46.2605 34.7058 46.2959 34.834 46.3423 34.9414V35H45.6355C45.6013 34.9219 45.5745 34.8181 45.5549 34.6887C45.5354 34.5569 45.5256 34.4348 45.5256 34.3225ZM45.6428 32.5977L45.6501 33.0737H44.9653C44.7725 33.0737 44.6003 33.0896 44.449 33.1213C44.2976 33.1506 44.1707 33.1958 44.0681 33.2568C43.9656 33.3179 43.8875 33.3948 43.8337 33.4875C43.78 33.5779 43.7532 33.6841 43.7532 33.8062C43.7532 33.9307 43.7812 34.0442 43.8374 34.1467C43.8936 34.2493 43.9778 34.3311 44.0901 34.3921C44.2048 34.4507 44.3452 34.48 44.5112 34.48C44.7188 34.48 44.9019 34.436 45.0605 34.3481C45.2192 34.2603 45.345 34.1528 45.4377 34.0259C45.533 33.8989 45.5842 33.7756 45.5916 33.656L45.8809 33.9819C45.8638 34.0845 45.8174 34.198 45.7417 34.3225C45.666 34.447 45.5647 34.5667 45.4377 34.6814C45.3132 34.7937 45.1643 34.8877 44.991 34.9634C44.8201 35.0366 44.6272 35.0732 44.4124 35.0732C44.1438 35.0732 43.9082 35.0208 43.7056 34.9158C43.5054 34.8108 43.3491 34.6704 43.2368 34.4946C43.127 34.3164 43.072 34.1174 43.072 33.8977C43.072 33.6853 43.1135 33.4985 43.1965 33.3374C43.2795 33.1738 43.3992 33.0383 43.5554 32.9309C43.7117 32.821 43.8997 32.738 44.1194 32.6819C44.3391 32.6257 44.5845 32.5977 44.8555 32.5977H45.6428ZM49.5759 33.949C49.5759 33.8513 49.554 33.761 49.51 33.678C49.4685 33.5925 49.3818 33.5156 49.25 33.4473C49.1206 33.3765 48.9253 33.3154 48.6641 33.2642C48.4443 33.2178 48.2454 33.1628 48.0671 33.0994C47.8914 33.0359 47.7412 32.959 47.6167 32.8687C47.4946 32.7783 47.4006 32.6721 47.3347 32.55C47.2688 32.428 47.2358 32.2852 47.2358 32.1216C47.2358 31.9653 47.27 31.8176 47.3384 31.6785C47.4092 31.5393 47.5081 31.416 47.635 31.3086C47.7644 31.2012 47.9194 31.1169 48.1001 31.0559C48.2808 30.9949 48.4822 30.9644 48.7043 30.9644C49.0217 30.9644 49.2927 31.0205 49.5173 31.1328C49.7419 31.2451 49.9141 31.3953 50.0337 31.5833C50.1533 31.7688 50.2131 31.9751 50.2131 32.2021H49.5356C49.5356 32.0923 49.5027 31.9861 49.4368 31.8835C49.3733 31.7786 49.2793 31.6919 49.1548 31.6235C49.0327 31.5552 48.8826 31.521 48.7043 31.521C48.5164 31.521 48.3638 31.5503 48.2466 31.6089C48.1318 31.665 48.0476 31.7371 47.9939 31.825C47.9426 31.9128 47.917 32.0056 47.917 32.1033C47.917 32.1765 47.9292 32.2424 47.9536 32.301C47.9805 32.3572 48.0269 32.4097 48.0928 32.4585C48.1587 32.5049 48.2515 32.5488 48.3711 32.5903C48.4907 32.6318 48.6433 32.6733 48.8289 32.7148C49.1536 32.7881 49.4209 32.876 49.6309 32.9785C49.8408 33.0811 49.9971 33.2068 50.0996 33.3557C50.2021 33.5046 50.2534 33.6853 50.2534 33.8977C50.2534 34.071 50.2168 34.2297 50.1436 34.3738C50.0728 34.5178 49.969 34.6423 49.8323 34.7473C49.698 34.8499 49.5369 34.9304 49.3489 34.989C49.1633 35.0452 48.9546 35.0732 48.7227 35.0732C48.3735 35.0732 48.0781 35.011 47.8364 34.8865C47.5947 34.762 47.4116 34.6008 47.2871 34.4031C47.1626 34.2053 47.1003 33.9966 47.1003 33.7769H47.7815C47.7913 33.9624 47.845 34.1101 47.9426 34.22C48.0403 34.3274 48.1599 34.4043 48.3015 34.4507C48.4431 34.4946 48.5835 34.5166 48.7227 34.5166C48.9082 34.5166 49.0632 34.4922 49.1877 34.4434C49.3147 34.3945 49.4111 34.3274 49.4771 34.2419C49.543 34.1565 49.5759 34.0588 49.5759 33.949ZM52.7876 35.0732C52.5117 35.0732 52.2615 35.0269 52.0369 34.9341C51.8147 34.8389 51.623 34.7058 51.4619 34.5349C51.3032 34.364 51.1812 34.1614 51.0957 33.927C51.0103 33.6926 50.9675 33.4363 50.9675 33.158V33.0042C50.9675 32.6819 51.0151 32.395 51.1104 32.1436C51.2056 31.8896 51.335 31.6748 51.4985 31.499C51.6621 31.3232 51.8477 31.1902 52.0552 31.0999C52.2627 31.0095 52.4775 30.9644 52.6997 30.9644C52.9829 30.9644 53.2271 31.0132 53.4321 31.1108C53.6396 31.2085 53.8093 31.3452 53.9412 31.521C54.073 31.6943 54.1707 31.8994 54.2341 32.1362C54.2976 32.3706 54.3293 32.627 54.3293 32.9053V33.2092H51.3704V32.6562H53.6519V32.605C53.6421 32.4292 53.6055 32.2583 53.542 32.0923C53.481 31.9263 53.3833 31.7896 53.249 31.6821C53.1147 31.5747 52.9316 31.521 52.6997 31.521C52.5459 31.521 52.4043 31.554 52.2749 31.6199C52.1455 31.6833 52.0344 31.7786 51.9417 31.9055C51.8489 32.0325 51.7769 32.1875 51.7256 32.3706C51.6743 32.5537 51.6487 32.7649 51.6487 33.0042V33.158C51.6487 33.3459 51.6743 33.5229 51.7256 33.689C51.7793 33.8525 51.8562 33.9966 51.9563 34.1211C52.0588 34.2456 52.1821 34.3433 52.3262 34.4141C52.4727 34.4849 52.6387 34.5203 52.8242 34.5203C53.0635 34.5203 53.2661 34.4714 53.4321 34.3738C53.5981 34.2761 53.7434 34.1455 53.8679 33.9819L54.2781 34.3079C54.1926 34.4373 54.084 34.5605 53.9521 34.6777C53.8203 34.7949 53.658 34.8901 53.4651 34.9634C53.2747 35.0366 53.0488 35.0732 52.7876 35.0732ZM57.6179 34.231V29.375H58.2991V35H57.6765L57.6179 34.231ZM54.9519 33.0627V32.9858C54.9519 32.6831 54.9885 32.4084 55.0618 32.1619C55.1375 31.9128 55.2437 31.6992 55.3804 31.521C55.5195 31.3428 55.6843 31.2061 55.8748 31.1108C56.0676 31.0132 56.2825 30.9644 56.5193 30.9644C56.7683 30.9644 56.9856 31.0083 57.1711 31.0962C57.3591 31.1816 57.5178 31.3074 57.6472 31.4734C57.7791 31.637 57.8828 31.8347 57.9585 32.0667C58.0342 32.2986 58.0867 32.561 58.116 32.854V33.1909C58.0891 33.4814 58.0366 33.7427 57.9585 33.9746C57.8828 34.2065 57.7791 34.4043 57.6472 34.5679C57.5178 34.7314 57.3591 34.8572 57.1711 34.9451C56.9832 35.0305 56.7634 35.0732 56.512 35.0732C56.28 35.0732 56.0676 35.0232 55.8748 34.9231C55.6843 34.823 55.5195 34.6826 55.3804 34.502C55.2437 34.3213 55.1375 34.1089 55.0618 33.8647C54.9885 33.6182 54.9519 33.3508 54.9519 33.0627ZM55.6331 32.9858V33.0627C55.6331 33.2605 55.6526 33.446 55.6917 33.6194C55.7332 33.7927 55.7966 33.9453 55.8821 34.0771C55.9675 34.209 56.0762 34.3127 56.208 34.3884C56.3398 34.4617 56.4973 34.4983 56.6804 34.4983C56.905 34.4983 57.0894 34.4507 57.2334 34.3555C57.3799 34.2603 57.4971 34.1345 57.585 33.9783C57.6729 33.822 57.7412 33.6523 57.79 33.4692V32.5867C57.7607 32.4524 57.718 32.323 57.6619 32.1985C57.6082 32.0715 57.5374 31.9592 57.4495 31.8616C57.364 31.7615 57.2578 31.6821 57.1309 31.6235C57.0063 31.5649 56.8586 31.5356 56.6877 31.5356C56.5022 31.5356 56.3423 31.5747 56.208 31.6528C56.0762 31.7285 55.9675 31.8335 55.8821 31.9678C55.7966 32.0996 55.7332 32.2534 55.6917 32.4292C55.6526 32.6025 55.6331 32.7881 55.6331 32.9858ZM61.0347 33.0627V32.9785C61.0347 32.6929 61.0762 32.428 61.1592 32.1838C61.2422 31.9373 61.3618 31.7236 61.5181 31.543C61.6743 31.3599 61.8635 31.2183 62.0857 31.1182C62.3079 31.0156 62.5569 30.9644 62.8328 30.9644C63.1111 30.9644 63.3613 31.0156 63.5835 31.1182C63.8081 31.2183 63.9985 31.3599 64.1548 31.543C64.3135 31.7236 64.4343 31.9373 64.5173 32.1838C64.6003 32.428 64.6418 32.6929 64.6418 32.9785V33.0627C64.6418 33.3484 64.6003 33.6133 64.5173 33.8574C64.4343 34.1016 64.3135 34.3152 64.1548 34.4983C63.9985 34.679 63.8093 34.8206 63.5872 34.9231C63.3674 35.0232 63.1184 35.0732 62.8401 35.0732C62.5618 35.0732 62.3115 35.0232 62.0894 34.9231C61.8672 34.8206 61.6768 34.679 61.5181 34.4983C61.3618 34.3152 61.2422 34.1016 61.1592 33.8574C61.0762 33.6133 61.0347 33.3484 61.0347 33.0627ZM61.7122 32.9785V33.0627C61.7122 33.2605 61.7354 33.4473 61.7817 33.623C61.8281 33.7964 61.8977 33.9502 61.9905 34.0845C62.0857 34.2188 62.2041 34.325 62.3457 34.4031C62.4873 34.4788 62.6521 34.5166 62.8401 34.5166C63.0256 34.5166 63.188 34.4788 63.3271 34.4031C63.4688 34.325 63.5859 34.2188 63.6787 34.0845C63.7715 33.9502 63.8411 33.7964 63.8875 33.623C63.9363 33.4473 63.9607 33.2605 63.9607 33.0627V32.9785C63.9607 32.7832 63.9363 32.5989 63.8875 32.4255C63.8411 32.2498 63.7703 32.0947 63.675 31.9604C63.5823 31.8237 63.4651 31.7163 63.3235 31.6382C63.1843 31.5601 63.0208 31.521 62.8328 31.521C62.6472 31.521 62.4836 31.5601 62.342 31.6382C62.2029 31.7163 62.0857 31.8237 61.9905 31.9604C61.8977 32.0947 61.8281 32.2498 61.7817 32.4255C61.7354 32.5989 61.7122 32.7832 61.7122 32.9785ZM66.1689 31.8835V35H65.4915V31.0376H66.1323L66.1689 31.8835ZM66.0078 32.8687L65.7258 32.8577C65.7283 32.5867 65.7686 32.3364 65.8467 32.1069C65.9248 31.875 66.0347 31.6736 66.1763 31.5027C66.3179 31.3318 66.4863 31.2 66.6816 31.1072C66.8794 31.012 67.0979 30.9644 67.3372 30.9644C67.5325 30.9644 67.7083 30.9912 67.8645 31.0449C68.0208 31.0962 68.1538 31.1792 68.2637 31.2939C68.376 31.4087 68.4614 31.5576 68.52 31.7407C68.5786 31.9214 68.6079 32.1423 68.6079 32.4036V35H67.9268V32.3962C67.9268 32.1887 67.8962 32.0227 67.8352 31.8982C67.7742 31.7712 67.6851 31.6797 67.5679 31.6235C67.4507 31.5649 67.3066 31.5356 67.1357 31.5356C66.9673 31.5356 66.8135 31.571 66.6743 31.6418C66.5376 31.7126 66.4192 31.8103 66.3191 31.9348C66.2214 32.0593 66.1445 32.2021 66.0884 32.3633C66.0347 32.522 66.0078 32.6904 66.0078 32.8687ZM73.6506 29.6387V35H72.9731V30.4846L71.6072 30.9827V30.3711L73.5444 29.6387H73.6506ZM79.1365 34.4434V35H75.6465V34.5129L77.3933 32.5684C77.6082 32.3291 77.7742 32.1265 77.8914 31.9604C78.011 31.792 78.094 31.6418 78.1404 31.51C78.1892 31.3757 78.2136 31.239 78.2136 31.0999C78.2136 30.9241 78.177 30.7654 78.1038 30.6238C78.033 30.4797 77.928 30.365 77.7888 30.2795C77.6497 30.1941 77.4812 30.1514 77.2834 30.1514C77.0466 30.1514 76.8489 30.1978 76.6902 30.2905C76.5339 30.3809 76.4167 30.5078 76.3386 30.6714C76.2605 30.835 76.2214 31.0229 76.2214 31.2354H75.5439C75.5439 30.9351 75.6099 30.6604 75.7417 30.4114C75.8735 30.1624 76.0688 29.9646 76.3276 29.8181C76.5864 29.6692 76.905 29.5947 77.2834 29.5947C77.6204 29.5947 77.9084 29.6545 78.1477 29.7742C78.387 29.8914 78.5701 30.0574 78.697 30.2722C78.8264 30.4846 78.8911 30.7336 78.8911 31.0193C78.8911 31.1755 78.8643 31.3342 78.8105 31.4954C78.7593 31.6541 78.6873 31.8127 78.5945 31.9714C78.5042 32.1301 78.3979 32.2864 78.2759 32.4402C78.1562 32.594 78.0281 32.7454 77.8914 32.8943L76.4631 34.4434H79.1365ZM85.1167 33.3044H85.8198C85.7832 33.6414 85.6868 33.9429 85.5305 34.209C85.3743 34.4751 85.1533 34.6863 84.8677 34.8425C84.582 34.9963 84.2256 35.0732 83.7983 35.0732C83.4858 35.0732 83.2014 35.0146 82.9451 34.8975C82.6912 34.7803 82.4727 34.6143 82.2896 34.3994C82.1064 34.1821 81.9648 33.9221 81.8647 33.6194C81.7671 33.3142 81.7183 32.9749 81.7183 32.6013V32.0703C81.7183 31.6968 81.7671 31.3586 81.8647 31.0559C81.9648 30.7507 82.1077 30.4895 82.2932 30.2722C82.4812 30.0549 82.707 29.8877 82.9707 29.7705C83.2344 29.6533 83.531 29.5947 83.8606 29.5947C84.2634 29.5947 84.604 29.6704 84.8823 29.8218C85.1606 29.9731 85.3767 30.1831 85.5305 30.4517C85.6868 30.7178 85.7832 31.0266 85.8198 31.3782H85.1167C85.0825 31.1292 85.019 30.9155 84.9263 30.7373C84.8335 30.5566 84.7017 30.4175 84.5308 30.3198C84.3599 30.2222 84.1365 30.1733 83.8606 30.1733C83.6238 30.1733 83.415 30.2185 83.2344 30.3088C83.0562 30.3992 82.906 30.5273 82.7839 30.6934C82.6643 30.8594 82.574 31.0583 82.5129 31.2903C82.4519 31.5222 82.4214 31.7798 82.4214 32.063V32.6013C82.4214 32.8625 82.4482 33.1079 82.502 33.3374C82.5581 33.5669 82.6423 33.7683 82.7546 33.9417C82.8669 34.115 83.0098 34.2517 83.1831 34.3518C83.3564 34.4495 83.5615 34.4983 83.7983 34.4983C84.0986 34.4983 84.3379 34.4507 84.5161 34.3555C84.6943 34.2603 84.8286 34.1235 84.9189 33.9453C85.0117 33.7671 85.0776 33.5535 85.1167 33.3044ZM87.4165 29.375V35H86.7354V29.375H87.4165ZM90.9285 34.0845V31.0376H91.6096V35H90.9614L90.9285 34.0845ZM91.0566 33.2495L91.3386 33.2422C91.3386 33.5059 91.3105 33.75 91.2544 33.9746C91.2007 34.1968 91.1128 34.3896 90.9907 34.5532C90.8687 34.7168 90.7087 34.845 90.511 34.9377C90.3132 35.0281 90.0728 35.0732 89.7896 35.0732C89.5967 35.0732 89.4197 35.0452 89.2585 34.989C89.0999 34.9329 88.9631 34.8462 88.8484 34.729C88.7336 34.6118 88.6445 34.4592 88.5811 34.2712C88.52 34.0833 88.4895 33.8574 88.4895 33.5938V31.0376H89.167V33.6011C89.167 33.7793 89.1865 33.927 89.2256 34.0442C89.2671 34.1589 89.322 34.2505 89.3904 34.3188C89.4612 34.3848 89.5393 34.4312 89.6248 34.458C89.7126 34.4849 89.803 34.4983 89.8958 34.4983C90.1838 34.4983 90.4121 34.4434 90.5806 34.3335C90.749 34.2212 90.8699 34.071 90.9431 33.8831C91.0188 33.6926 91.0566 33.4814 91.0566 33.2495ZM94.3013 31.0376V31.5576H92.1589V31.0376H94.3013ZM92.884 30.0745H93.5615V34.0186C93.5615 34.1528 93.5823 34.2542 93.6238 34.3225C93.6653 34.3909 93.719 34.436 93.7849 34.458C93.8508 34.48 93.9216 34.491 93.9973 34.491C94.0535 34.491 94.1121 34.4861 94.1731 34.4763C94.2366 34.4641 94.2842 34.4543 94.3159 34.447L94.3196 35C94.2659 35.0171 94.1951 35.033 94.1072 35.0476C94.0217 35.0647 93.918 35.0732 93.7959 35.0732C93.6299 35.0732 93.4773 35.0403 93.3381 34.9744C93.199 34.9084 93.0879 34.7986 93.0049 34.6448C92.9243 34.4885 92.884 34.2786 92.884 34.0149V30.0745ZM96.6816 34.5166C96.8428 34.5166 96.9917 34.4836 97.1284 34.4177C97.2651 34.3518 97.3774 34.2615 97.4653 34.1467C97.5532 34.0295 97.6033 33.8965 97.6155 33.7476H98.26C98.2478 33.9819 98.1685 34.2004 98.022 34.4031C97.8779 34.6033 97.6887 34.7656 97.4543 34.8901C97.22 35.0122 96.9624 35.0732 96.6816 35.0732C96.3838 35.0732 96.1238 35.0208 95.9016 34.9158C95.6819 34.8108 95.4988 34.6667 95.3523 34.4836C95.2083 34.3005 95.0996 34.0906 95.0264 33.8538C94.9556 33.6145 94.9202 33.3618 94.9202 33.0957V32.9419C94.9202 32.6758 94.9556 32.4243 95.0264 32.1875C95.0996 31.9482 95.2083 31.7371 95.3523 31.554C95.4988 31.3708 95.6819 31.2268 95.9016 31.1218C96.1238 31.0168 96.3838 30.9644 96.6816 30.9644C96.9917 30.9644 97.2627 31.0278 97.4946 31.1548C97.7266 31.2793 97.9084 31.4502 98.0403 31.6675C98.1746 31.8823 98.2478 32.1265 98.26 32.3999H97.6155C97.6033 32.2363 97.5569 32.0886 97.4763 31.9568C97.3982 31.825 97.2908 31.72 97.1541 31.6418C97.0198 31.5613 96.8623 31.521 96.6816 31.521C96.4741 31.521 96.2996 31.5625 96.158 31.6455C96.0188 31.7261 95.9077 31.8359 95.8247 31.9751C95.7441 32.1118 95.6855 32.2644 95.6489 32.4329C95.6147 32.5989 95.5977 32.7686 95.5977 32.9419V33.0957C95.5977 33.269 95.6147 33.4399 95.6489 33.6084C95.6831 33.7769 95.7405 33.9294 95.821 34.0662C95.9041 34.2029 96.0151 34.3127 96.1543 34.3958C96.2959 34.4763 96.4717 34.5166 96.6816 34.5166ZM99.6992 29.375V35H99.0217V29.375H99.6992ZM99.5381 32.8687L99.2561 32.8577C99.2585 32.5867 99.2988 32.3364 99.377 32.1069C99.4551 31.875 99.5649 31.6736 99.7065 31.5027C99.8481 31.3318 100.017 31.2 100.212 31.1072C100.41 31.012 100.628 30.9644 100.867 30.9644C101.063 30.9644 101.239 30.9912 101.395 31.0449C101.551 31.0962 101.684 31.1792 101.794 31.2939C101.906 31.4087 101.992 31.5576 102.05 31.7407C102.109 31.9214 102.138 32.1423 102.138 32.4036V35H101.457V32.3962C101.457 32.1887 101.427 32.0227 101.365 31.8982C101.304 31.7712 101.215 31.6797 101.098 31.6235C100.981 31.5649 100.837 31.5356 100.666 31.5356C100.498 31.5356 100.344 31.571 100.205 31.6418C100.068 31.7126 99.9495 31.8103 99.8494 31.9348C99.7517 32.0593 99.6748 32.2021 99.6187 32.3633C99.5649 32.522 99.5381 32.6904 99.5381 32.8687ZM105.69 31.6602V35H105.013V31.0376H105.672L105.69 31.6602ZM106.928 31.0156L106.925 31.6455C106.868 31.6333 106.815 31.626 106.763 31.6235C106.715 31.6187 106.658 31.6162 106.595 31.6162C106.439 31.6162 106.301 31.6406 106.181 31.6895C106.062 31.7383 105.96 31.8066 105.877 31.8945C105.794 31.9824 105.728 32.0874 105.679 32.2095C105.633 32.3291 105.603 32.4609 105.588 32.605L105.397 32.7148C105.397 32.4756 105.421 32.251 105.467 32.041C105.516 31.8311 105.59 31.6455 105.69 31.4844C105.791 31.3208 105.917 31.1938 106.071 31.1035C106.228 31.0107 106.413 30.9644 106.628 30.9644C106.677 30.9644 106.733 30.9705 106.796 30.9827C106.86 30.9924 106.904 31.0034 106.928 31.0156ZM109.125 35.0732C108.85 35.0732 108.599 35.0269 108.375 34.9341C108.153 34.8389 107.961 34.7058 107.8 34.5349C107.641 34.364 107.519 34.1614 107.434 33.927C107.348 33.6926 107.305 33.4363 107.305 33.158V33.0042C107.305 32.6819 107.353 32.395 107.448 32.1436C107.543 31.8896 107.673 31.6748 107.836 31.499C108 31.3232 108.186 31.1902 108.393 31.0999C108.601 31.0095 108.815 30.9644 109.038 30.9644C109.321 30.9644 109.565 31.0132 109.77 31.1108C109.978 31.2085 110.147 31.3452 110.279 31.521C110.411 31.6943 110.509 31.8994 110.572 32.1362C110.635 32.3706 110.667 32.627 110.667 32.9053V33.2092H107.708V32.6562H109.99V32.605C109.98 32.4292 109.943 32.2583 109.88 32.0923C109.819 31.9263 109.721 31.7896 109.587 31.6821C109.453 31.5747 109.27 31.521 109.038 31.521C108.884 31.521 108.742 31.554 108.613 31.6199C108.483 31.6833 108.372 31.7786 108.28 31.9055C108.187 32.0325 108.115 32.1875 108.063 32.3706C108.012 32.5537 107.987 32.7649 107.987 33.0042V33.158C107.987 33.3459 108.012 33.5229 108.063 33.689C108.117 33.8525 108.194 33.9966 108.294 34.1211C108.397 34.2456 108.52 34.3433 108.664 34.4141C108.811 34.4849 108.977 34.5203 109.162 34.5203C109.401 34.5203 109.604 34.4714 109.77 34.3738C109.936 34.2761 110.081 34.1455 110.206 33.9819L110.616 34.3079C110.531 34.4373 110.422 34.5605 110.29 34.6777C110.158 34.7949 109.996 34.8901 109.803 34.9634C109.613 35.0366 109.387 35.0732 109.125 35.0732ZM112.612 34.3884L113.696 31.0376H114.388L112.963 35H112.509L112.612 34.3884ZM111.707 31.0376L112.824 34.4067L112.901 35H112.447L111.011 31.0376H111.707ZM115.776 31.0376V35H115.095V31.0376H115.776ZM115.043 29.9866C115.043 29.8767 115.076 29.7839 115.142 29.7083C115.211 29.6326 115.311 29.5947 115.443 29.5947C115.572 29.5947 115.671 29.6326 115.739 29.7083C115.81 29.7839 115.845 29.8767 115.845 29.9866C115.845 30.0916 115.81 30.1819 115.739 30.2576C115.671 30.3308 115.572 30.3674 115.443 30.3674C115.311 30.3674 115.211 30.3308 115.142 30.2576C115.076 30.1819 115.043 30.0916 115.043 29.9866ZM118.508 35.0732C118.232 35.0732 117.982 35.0269 117.757 34.9341C117.535 34.8389 117.343 34.7058 117.182 34.5349C117.023 34.364 116.901 34.1614 116.816 33.927C116.73 33.6926 116.688 33.4363 116.688 33.158V33.0042C116.688 32.6819 116.735 32.395 116.831 32.1436C116.926 31.8896 117.055 31.6748 117.219 31.499C117.382 31.3232 117.568 31.1902 117.775 31.0999C117.983 31.0095 118.198 30.9644 118.42 30.9644C118.703 30.9644 118.947 31.0132 119.152 31.1108C119.36 31.2085 119.53 31.3452 119.661 31.521C119.793 31.6943 119.891 31.8994 119.954 32.1362C120.018 32.3706 120.05 32.627 120.05 32.9053V33.2092H117.091V32.6562H119.372V32.605C119.362 32.4292 119.326 32.2583 119.262 32.0923C119.201 31.9263 119.104 31.7896 118.969 31.6821C118.835 31.5747 118.652 31.521 118.42 31.521C118.266 31.521 118.125 31.554 117.995 31.6199C117.866 31.6833 117.755 31.7786 117.662 31.9055C117.569 32.0325 117.497 32.1875 117.446 32.3706C117.395 32.5537 117.369 32.7649 117.369 33.0042V33.158C117.369 33.3459 117.395 33.5229 117.446 33.689C117.5 33.8525 117.576 33.9966 117.677 34.1211C117.779 34.2456 117.902 34.3433 118.046 34.4141C118.193 34.4849 118.359 34.5203 118.544 34.5203C118.784 34.5203 118.986 34.4714 119.152 34.3738C119.318 34.2761 119.464 34.1455 119.588 33.9819L119.998 34.3079C119.913 34.4373 119.804 34.5605 119.672 34.6777C119.541 34.7949 119.378 34.8901 119.185 34.9634C118.995 35.0366 118.769 35.0732 118.508 35.0732ZM121.844 34.2969L122.862 31.0376H123.309L123.221 31.6858L122.185 35H121.749L121.844 34.2969ZM121.159 31.0376L122.027 34.3335L122.089 35H121.632L120.482 31.0376H121.159ZM124.283 34.3079L125.111 31.0376H125.784L124.635 35H124.18L124.283 34.3079ZM123.408 31.0376L124.404 34.2419L124.517 35H124.085L123.02 31.6785L122.932 31.0376H123.408ZM128.787 33.949C128.787 33.8513 128.765 33.761 128.721 33.678C128.68 33.5925 128.593 33.5156 128.461 33.4473C128.332 33.3765 128.137 33.3154 127.875 33.2642C127.656 33.2178 127.457 33.1628 127.279 33.0994C127.103 33.0359 126.953 32.959 126.828 32.8687C126.706 32.7783 126.612 32.6721 126.546 32.55C126.48 32.428 126.447 32.2852 126.447 32.1216C126.447 31.9653 126.481 31.8176 126.55 31.6785C126.621 31.5393 126.719 31.416 126.846 31.3086C126.976 31.2012 127.131 31.1169 127.312 31.0559C127.492 30.9949 127.694 30.9644 127.916 30.9644C128.233 30.9644 128.504 31.0205 128.729 31.1328C128.953 31.2451 129.125 31.3953 129.245 31.5833C129.365 31.7688 129.425 31.9751 129.425 32.2021H128.747C128.747 32.0923 128.714 31.9861 128.648 31.8835C128.585 31.7786 128.491 31.6919 128.366 31.6235C128.244 31.5552 128.094 31.521 127.916 31.521C127.728 31.521 127.575 31.5503 127.458 31.6089C127.343 31.665 127.259 31.7371 127.205 31.825C127.154 31.9128 127.128 32.0056 127.128 32.1033C127.128 32.1765 127.141 32.2424 127.165 32.301C127.192 32.3572 127.238 32.4097 127.304 32.4585C127.37 32.5049 127.463 32.5488 127.583 32.5903C127.702 32.6318 127.855 32.6733 128.04 32.7148C128.365 32.7881 128.632 32.876 128.842 32.9785C129.052 33.0811 129.208 33.2068 129.311 33.3557C129.414 33.5046 129.465 33.6853 129.465 33.8977C129.465 34.071 129.428 34.2297 129.355 34.3738C129.284 34.5178 129.18 34.6423 129.044 34.7473C128.909 34.8499 128.748 34.9304 128.56 34.989C128.375 35.0452 128.166 35.0732 127.934 35.0732C127.585 35.0732 127.29 35.011 127.048 34.8865C126.806 34.762 126.623 34.6008 126.499 34.4031C126.374 34.2053 126.312 33.9966 126.312 33.7769H126.993C127.003 33.9624 127.056 34.1101 127.154 34.22C127.252 34.3274 127.371 34.4043 127.513 34.4507C127.655 34.4946 127.795 34.5166 127.934 34.5166C128.12 34.5166 128.275 34.4922 128.399 34.4434C128.526 34.3945 128.623 34.3274 128.688 34.2419C128.754 34.1565 128.787 34.0588 128.787 33.949Z" fill="white"/>
</g>
<defs>
<clipPath id="clip0_33272_1687">
<rect width="131" height="36" fill="white"/>
</clipPath>
</defs>
</svg>
