<svg width="56" height="32" viewBox="0 0 56 32" fill="none" xmlns="http://www.w3.org/2000/svg">
<g opacity="0.8">
<path d="M9.88996 24.1614C5.37541 24.1614 1.59961 20.4814 1.59961 16.0014C1.59961 11.5214 5.37541 7.92139 9.88996 7.92139C14.4866 7.92139 18.1803 11.6014 18.1803 16.0014C18.2624 20.4814 14.4866 24.1614 9.88996 24.1614ZM9.88996 9.52139C6.27832 9.52139 3.24126 12.4814 3.24126 16.0014C3.24126 19.6014 6.27832 22.4814 9.88996 22.4814C13.5837 22.4814 16.5387 19.5214 16.5387 16.0014C16.6207 12.4814 13.5837 9.52139 9.88996 9.52139Z" fill="currentColor"/>
<path d="M22.2025 24.1616C19.4938 24.1616 16.9492 22.8816 15.3896 20.7216L16.703 19.8416C17.9342 21.6016 19.9863 22.6416 22.2025 22.6416C25.8962 22.6416 28.8512 19.6816 28.8512 16.1616C28.8512 12.5616 25.8142 9.68162 22.2025 9.68162C19.9863 9.68162 17.9342 10.7216 16.703 12.4816L15.3896 11.6016C16.9492 9.44162 19.4938 8.16162 22.2025 8.16162C26.7991 8.16162 30.4929 11.8416 30.4929 16.2416C30.5749 20.4816 26.7991 24.1616 22.2025 24.1616Z" fill="currentColor"/>
<path d="M34.515 24.1616C31.8063 24.1616 29.2617 22.8816 27.7021 20.7216L29.0155 19.8416C30.2467 21.6016 32.2988 22.6416 34.515 22.6416C38.2087 22.6416 41.1637 19.6816 41.1637 16.1616C41.1637 12.5616 38.1266 9.68162 34.515 9.68162C32.2988 9.68162 30.3288 10.7216 29.0155 12.4816L27.7021 11.6016C29.2617 9.44162 31.8063 8.16162 34.515 8.16162C39.1116 8.16162 42.8054 11.8416 42.8054 16.2416C42.8874 20.4816 39.1116 24.1616 34.515 24.1616Z" fill="currentColor"/>
<path d="M46.8275 24.1616C44.1188 24.1616 41.5742 22.8816 40.0146 20.7216L41.328 19.8416C42.5592 21.6016 44.6113 22.6416 46.8275 22.6416C50.5212 22.6416 53.4762 19.6816 53.4762 16.1616C53.4762 12.5616 50.4391 9.68162 46.8275 9.68162C44.6113 9.68162 42.6413 10.7216 41.328 12.4816L40.0146 11.6016C41.5742 9.44162 44.1188 8.16162 46.8275 8.16162C51.4241 8.16162 55.1179 11.8416 55.1179 16.2416C55.1999 20.4816 51.4241 24.1616 46.8275 24.1616Z" fill="currentColor"/>
<path d="M41.8209 28.7213C41.4105 28.5613 41.0821 28.1613 41.2463 27.6813L44.2833 16.8013H13.6665C13.4203 16.8013 13.174 16.7213 13.0098 16.4813C12.8457 16.3213 12.7636 16.0013 12.8457 15.7613L16.0469 3.68129C16.129 3.28129 16.6215 3.04129 17.0319 3.12129C17.4423 3.20129 17.7706 3.68129 17.6065 4.08129L14.7336 15.2013H45.3504C45.5967 15.2013 45.8429 15.2813 46.0071 15.5213C46.1712 15.7613 46.2533 16.0013 46.1712 16.2413L42.97 28.1613C42.8059 28.6413 42.3134 28.8813 41.8209 28.7213Z" fill="currentColor"/>
</g>
</svg>
