<svg xmlns="http://www.w3.org/2000/svg" width="72" height="72" viewBox="0 0 72 72" fill="none">
<path d="M36.0001 22.0001V16.4201C36.0001 15.5201 34.9201 15.0801 34.3001 15.7201L26.7001 23.3001C26.3001 23.7001 26.3001 24.3201 26.7001 24.7201L34.2801 32.3001C34.9201 32.9201 36.0001 32.4801 36.0001 31.5801V26.0001C43.4601 26.0001 49.3601 32.8401 47.7201 40.5801C46.7801 45.1201 43.1001 48.7801 38.5801 49.7201C31.4401 51.2201 25.0801 46.3201 24.1201 39.7001C23.9801 38.7401 23.1401 38.0001 22.1601 38.0001C20.9601 38.0001 20.0001 39.0601 20.1601 40.2601C21.4001 49.0401 29.7601 55.5401 39.2201 53.7001C45.4601 52.4801 50.4801 47.4601 51.7001 41.2201C53.6801 30.9601 45.8801 22.0001 36.0001 22.0001Z" fill="white"/>
<circle cx="36" cy="36" r="35.5" stroke="#C4C4C4"/>
</svg>