<svg width="840" height="62" viewBox="0 0 840 62" fill="none" xmlns="http://www.w3.org/2000/svg">
<path fill-rule="evenodd" clip-rule="evenodd" d="M84.7364 4.04004C79.2226 4.04004 74.2993 5.22554 69.9233 7.56169C65.5942 9.90116 62.209 13.1176 59.7318 17.2284C57.3192 21.2668 56.0964 25.8397 56.0964 31C56.0964 36.156 57.3172 40.7566 59.7314 44.8509C62.2068 48.9059 65.5912 52.0973 69.9233 54.4384C74.2993 56.7745 79.2226 57.96 84.7364 57.96C90.2525 57.96 95.1468 56.7736 99.4658 54.4404C103.802 52.0976 107.19 48.9029 109.666 44.8431C112.131 40.749 113.376 36.1515 113.376 31C113.376 25.8464 112.13 21.2781 109.669 17.2413L109.663 17.2321C107.185 13.1183 103.798 9.90001 99.4658 7.55968C95.1468 5.22647 90.2525 4.04004 84.7364 4.04004ZM68.0342 4.03589C73.0437 1.36036 78.6255 0.0400391 84.7364 0.0400391C90.847 0.0400391 96.4059 1.36028 101.367 4.0404C106.313 6.71253 110.232 10.426 113.087 15.1634C115.957 19.872 117.376 25.1689 117.376 31C117.376 36.8332 115.956 42.1541 113.09 46.9121L113.084 46.9212C110.227 51.6061 106.309 55.29 101.367 57.9597C96.4059 60.6398 90.847 61.96 84.7364 61.96C78.6255 61.96 73.0437 60.6397 68.0342 57.9642L68.0258 57.9597C63.084 55.29 59.1654 51.6061 56.3088 46.9212L56.3014 46.9091L56.2941 46.8968C53.4864 42.1409 52.0964 36.8256 52.0964 31C52.0964 25.1747 53.4864 19.8818 56.2996 15.1741L56.3032 15.168C59.1584 10.4285 63.0779 6.7134 68.0258 4.0404L68.0342 4.03589ZM0.624512 1.00004H53.4245V15.56H35.5045V61H18.5445V15.56H0.624512V1.00004ZM4.62451 5.00004V11.56H22.5445V57H31.5045V11.56H49.4245V5.00004H4.62451ZM139.453 1.00004H192.253V15.56H174.333V61H157.373V15.56H139.453V1.00004ZM143.453 5.00004V11.56H161.373V57H170.333V11.56H188.253V5.00004H143.453ZM195.226 1.00004H212.186V23.08H233.626V1.00004H250.586V61H233.626V38.04H212.186V61H195.226V1.00004ZM199.226 5.00004V57H208.186V34.04H237.626V57H246.586V5.00004H237.626V27.08H208.186V5.00004H199.226ZM259.835 1.00004H306.155V15.4H276.715V23.56H302.715V37.64H276.715V46.6H307.195V61H259.835V1.00004ZM263.835 5.00004V57H303.195V50.6H272.715V33.64H298.715V27.56H272.715V11.4H302.155V5.00004H263.835ZM336.163 1.00004H349.831L374.723 31.4006V1.00004H391.523V61H377.938L352.963 30.5871V61H336.163V1.00004ZM340.163 5.00004V57H348.963V19.413L379.829 57H387.523V5.00004H378.723V42.5995L347.936 5.00004H340.163ZM400.773 1.00004H466.291L478.122 17.6812L489.733 1.00004H555.065V15.56H537.145V61H520.185V15.56H502.265V9.89741L487.724 30.0408L510.045 61H490.132L477.672 43.0841L465.434 61H400.773V1.00004ZM448.133 57.4766L467.752 30.51L447.093 1.62091V15.4H417.653V23.56H443.653V37.64H417.653V46.6H448.133V57.4766ZM506.265 5.00004V11.56H524.185V57H533.145V11.56H551.065V5.00004H506.265ZM500.867 5.00004H491.822L478.153 24.6389L464.224 5.00004H454.427L472.684 30.5301L453.426 57H463.322L477.643 36.036L492.223 57H502.23L482.791 30.0393L500.867 5.00004ZM404.773 5.00004V57H444.133V50.6H413.653V33.64H439.653V27.56H413.653V11.4H443.093V5.00004H404.773ZM580.695 1.00004H597.654V46.44H625.734V61H580.695V1.00004ZM584.695 5.00004V57H621.734V50.44H593.654V5.00004H584.695ZM628.976 1.00004H691.828L707.559 37.9272L723.512 1.00004H786.702V15.4H757.262V23.56H783.262V37.64H757.262V46.6H787.742V61H740.382V1.85341L714.78 61H699.351L675.296 5.24282V15.4H645.856V23.56H671.856V37.64H645.856V46.6H676.336V61H628.976V1.00004ZM632.976 5.00004V57H672.336V50.6H641.856V33.64H667.856V27.56H641.856V11.4H671.296V5.00004H632.976ZM679.547 5.00004L701.982 57H712.153L734.661 5.00004H726.141L707.534 48.073L689.184 5.00004H679.547ZM744.382 5.00004V57H783.742V50.6H753.262V33.64H779.262V27.56H753.262V11.4H782.702V5.00004H744.382ZM794.054 1.00004H811.014V46.44H839.094V61H794.054V1.00004ZM798.054 5.00004V57H835.094V50.44H807.014V5.00004H798.054ZM74.786 13.6624C77.7763 11.9312 81.1091 11.08 84.7364 11.08C88.3637 11.08 91.6965 11.9312 94.6868 13.6624C97.6748 15.3388 100.014 17.712 101.682 20.7442C103.413 23.794 104.256 27.2303 104.256 31C104.256 34.7697 103.413 38.2061 101.682 41.2558C100.015 44.2867 97.6795 46.6819 94.6998 48.4101L94.6868 48.4177L94.6736 48.425C91.6842 50.0991 88.3564 50.92 84.7364 50.92C81.1164 50.92 77.7886 50.0991 74.7992 48.425L74.786 48.4177L74.7729 48.4101C71.7951 46.683 69.4368 44.2917 67.7178 41.2686L67.7104 41.2557L67.7032 41.2426C66.0297 38.1943 65.2164 34.763 65.2164 31C65.2164 27.237 66.0297 23.8058 67.7032 20.7575L67.7104 20.7444L67.7178 20.7314C69.4376 17.707 71.7998 15.3378 74.786 13.6624ZM84.7364 15.08C81.7557 15.08 79.1195 15.7731 76.7798 17.1301L76.7668 17.1377L76.7536 17.1451C74.4169 18.4536 72.5725 20.291 71.2022 22.6959C69.8939 25.0845 69.2164 27.8356 69.2164 31C69.2164 34.1645 69.8939 36.9156 71.2023 39.3043C72.5734 41.7106 74.4217 43.5794 76.7669 44.9425C79.1075 46.2501 81.7487 46.92 84.7364 46.92C87.724 46.92 90.3653 46.2501 92.7059 44.9425C95.049 43.5805 96.8664 41.716 98.1832 39.3175L98.1904 39.3044L98.1978 39.2914C99.5552 36.9044 100.256 34.1584 100.256 31C100.256 27.8417 99.5552 25.0957 98.1978 22.7086L98.1904 22.6957L98.1832 22.6826C96.8673 20.2856 95.0538 18.4524 92.7192 17.1451L92.706 17.1377L92.693 17.1301C90.3533 15.7731 87.7171 15.08 84.7364 15.08Z" fill="url(#paint0_linear_12429_72881)"/>
<defs>
<linearGradient id="paint0_linear_12429_72881" x1="869.572" y1="30.4443" x2="-27.3489" y2="30.4445" gradientUnits="userSpaceOnUse">
<stop stop-color="#A168DD"/>
<stop offset="1" stop-color="#64B1E6"/>
</linearGradient>
</defs>
</svg>
