<svg xmlns="http://www.w3.org/2000/svg" width="277" height="81" viewBox="0 0 277 81" fill="none">
<g clip-path="url(#clip0_12846_75555)">
<path fill-rule="evenodd" clip-rule="evenodd" d="M42.5788 2.02002C39.8285 2.02002 37.3727 2.61277 35.1899 3.78084C33.0305 4.95058 31.342 6.5588 30.1063 8.6142C28.9029 10.6334 28.2929 12.9199 28.2929 15.5C28.2929 18.078 28.9019 20.3783 30.1061 22.4254C31.3409 24.4529 33.029 26.0487 35.1899 27.2192C37.3727 28.3873 39.8285 28.98 42.5788 28.98C45.3303 28.98 47.7717 28.3868 49.926 27.2202C52.089 26.0488 53.7789 24.4515 55.014 22.4216C56.2435 20.3745 56.8646 18.0758 56.8646 15.5C56.8646 12.9232 56.243 10.6391 55.0155 8.62065L55.0125 8.61605C53.7764 6.55915 52.087 4.95001 49.926 3.77984C47.7717 2.61323 45.3303 2.02002 42.5788 2.02002ZM34.2476 2.01795C36.7464 0.68018 39.5307 0.0200195 42.5788 0.0200195C45.6269 0.0200195 48.3997 0.68014 50.8744 2.0202C53.3415 3.35627 55.2963 5.213 56.7204 7.5817C58.152 9.936 58.8598 12.5844 58.8598 15.5C58.8598 18.4166 58.1515 21.0771 56.7219 23.4561L56.7189 23.4606C55.2938 25.803 53.3395 27.645 50.8744 28.9799C48.3997 30.3199 45.6269 30.98 42.5788 30.98C39.5307 30.98 36.7464 30.3198 34.2476 28.9821L34.2434 28.9799C31.7784 27.645 29.8238 25.803 28.3989 23.4606L28.3952 23.4545L28.3916 23.4484C26.9911 21.0704 26.2977 18.4128 26.2977 15.5C26.2977 12.5873 26.9911 9.9409 28.3943 7.58705L28.3961 7.584C29.8203 5.21425 31.7754 3.3567 34.2434 2.0202L34.2476 2.01795ZM0.623047 0.50002H26.9602V7.78H18.0215V30.5H9.56171V7.78H0.623047V0.50002ZM2.61828 2.50002V5.78H11.5569V28.5H16.0263V5.78H24.9649V2.50002H2.61828ZM69.872 0.50002H96.2092V7.78H87.2705V30.5H78.8107V7.78H69.872V0.50002ZM71.8672 2.50002V5.78H80.8059V28.5H85.2752V5.78H94.2139V2.50002H71.8672ZM97.6921 0.50002H106.152V11.54H116.846V0.50002H125.306V30.5H116.846V19.02H106.152V30.5H97.6921V0.50002ZM99.6873 2.50002V28.5H104.157V17.02H118.842V28.5H123.311V2.50002H118.842V13.54H104.157V2.50002H99.6873ZM129.92 0.50002H153.025V7.7H138.34V11.78H151.309V18.82H138.34V23.3H153.543V30.5H129.92V0.50002ZM131.915 2.50002V28.5H151.548V25.3H136.344V16.82H149.313V13.78H136.344V5.7H151.029V2.50002H131.915ZM167.993 0.50002H174.811L187.227 15.7003V0.50002H195.607V30.5H188.831L176.373 15.2935V30.5H167.993V0.50002ZM169.988 2.50002V28.5H174.378V9.7065L189.774 28.5H193.612V2.50002H189.222V21.2997L173.865 2.50002H169.988ZM200.221 0.50002H232.902L238.803 8.8406L244.595 0.50002H277.183V7.78H268.245V30.5H259.785V7.78H250.846V4.94871L243.593 15.0204L254.727 30.5H244.794L238.579 21.542L232.474 30.5H200.221V0.50002ZM223.845 28.7383L233.631 15.255L223.326 0.810455V7.7H208.641V11.78H221.61V18.82H208.641V23.3H223.845V28.7383ZM252.841 2.50002V5.78H261.78V28.5H266.249V5.78H275.188V2.50002H252.841ZM250.149 2.50002H245.637L238.819 12.3195L231.871 2.50002H226.984L236.091 15.265L226.485 28.5H231.421L238.564 18.018L245.837 28.5H250.829L241.132 15.0197L250.149 2.50002ZM202.216 2.50002V28.5H221.849V25.3H206.646V16.82H219.615V13.78H206.646V5.7H221.331V2.50002H202.216ZM74.9677 50.5H83.427V73.22H97.4336V80.5H74.9677V50.5ZM76.9629 52.5V78.5H95.4383V75.22H81.4318V52.5H76.9629ZM99.0507 50.5H130.402L138.249 68.9636L146.206 50.5H177.726V57.7H163.041V61.78H176.01V68.82H163.041V73.3H178.245V80.5H154.621V50.9267L141.851 80.5H134.154L122.156 52.6214V57.7H107.471V61.78H120.44V68.82H107.471V73.3H122.674V80.5H99.0507V50.5ZM101.046 52.5V78.5H120.679V75.3H105.475V66.82H118.444V63.78H105.475V55.7H120.16V52.5H101.046ZM124.276 52.5L135.467 78.5H140.54L151.767 52.5H147.518L138.236 74.0365L129.083 52.5H124.276ZM156.616 52.5V78.5H176.249V75.3H161.046V66.82H174.015V63.78H161.046V55.7H175.731V52.5H156.616ZM181.393 50.5H189.853V73.22H203.86V80.5H181.393V50.5ZM183.388 52.5V78.5H201.864V75.22H187.858V52.5H183.388ZM37.6155 6.8312C39.1071 5.9656 40.7695 5.54 42.5788 5.54C44.3882 5.54 46.0506 5.9656 47.5422 6.8312C49.0326 7.6694 50.1995 8.856 51.0315 10.3721C51.8949 11.897 52.3154 13.6152 52.3154 15.5C52.3154 17.3848 51.8949 19.103 51.0315 20.6279C50.2 22.1433 49.035 23.341 47.5487 24.205L47.5422 24.2089L47.5356 24.2125C46.0445 25.0495 44.3845 25.46 42.5788 25.46C40.7732 25.46 39.1132 25.0495 37.6221 24.2125L37.6155 24.2089L37.609 24.205C36.1236 23.3415 34.9473 22.1459 34.0898 20.6343L34.0861 20.6278L34.0825 20.6213C33.2478 19.0971 32.8421 17.3815 32.8421 15.5C32.8421 13.6185 33.2478 11.9029 34.0825 10.3787L34.0861 10.3722L34.0898 10.3657C34.9477 8.8535 36.126 7.6689 37.6155 6.8312ZM42.5788 7.54C41.092 7.54 39.7771 7.88655 38.61 8.56505L38.6035 8.56885L38.597 8.57255C37.4314 9.2268 36.5114 10.1455 35.8279 11.3479C35.1753 12.5422 34.8373 13.9178 34.8373 15.5C34.8373 17.0823 35.1753 18.4578 35.8279 19.6521C36.5118 20.8553 37.4338 21.7897 38.6036 22.4713C39.7711 23.125 41.0886 23.46 42.5788 23.46C44.0691 23.46 45.3866 23.125 46.5541 22.4713C47.7229 21.7903 48.6294 20.858 49.2862 19.6588L49.2898 19.6522L49.2935 19.6457C49.9706 18.4522 50.3202 17.0792 50.3202 15.5C50.3202 13.9208 49.9706 12.5478 49.2935 11.3543L49.2898 11.3478L49.2862 11.3413C48.6299 10.1428 47.7253 9.2262 46.5607 8.57255L46.5542 8.56885L46.5477 8.56505C45.3806 7.88655 44.0657 7.54 42.5788 7.54Z" fill="url(#paint0_linear_12846_75555)"/>
</g>
<defs>
<linearGradient id="paint0_linear_12846_75555" x1="433.751" y1="15.2222" x2="-13.6418" y2="15.2223" gradientUnits="userSpaceOnUse">
<stop stop-color="#A168DD"/>
<stop offset="1" stop-color="#64B1E6"/>
</linearGradient>
<clipPath id="clip0_12846_75555">
<rect width="277" height="81" fill="white"/>
</clipPath>
</defs>
</svg>