<svg width="24" height="24" viewBox="0 0 24 24" fill="none" xmlns="http://www.w3.org/2000/svg">
<path d="M12 4.9306C14.5632 4.9306 14.8672 4.9402 15.88 4.9866C18.4816 5.105 19.6968 6.3394 19.8152 8.92179C19.8616 9.93379 19.8704 10.2378 19.8704 12.801C19.8704 15.365 19.8608 15.6682 19.8152 16.6802C19.696 19.2602 18.484 20.497 15.88 20.6154C14.8672 20.6618 14.5648 20.6714 12 20.6714C9.43682 20.6714 9.13282 20.6618 8.12082 20.6154C5.51282 20.4962 4.30402 19.2562 4.18562 16.6794C4.13922 15.6674 4.12962 15.3642 4.12962 12.8002C4.12962 10.237 4.14002 9.93379 4.18562 8.92099C4.30482 6.3394 5.51682 5.1042 8.12082 4.9858C9.13362 4.9402 9.43682 4.9306 12 4.9306ZM12 3.2002C9.39282 3.2002 9.06642 3.2114 8.04242 3.2578C4.55602 3.4178 2.61842 5.3522 2.45842 8.84179C2.41122 9.86659 2.40002 10.193 2.40002 12.8002C2.40002 15.4074 2.41122 15.7346 2.45762 16.7586C2.61762 20.245 4.55202 22.1826 8.04162 22.3426C9.06642 22.389 9.39282 22.4002 12 22.4002C14.6072 22.4002 14.9344 22.389 15.9584 22.3426C19.4416 22.1826 21.384 20.2482 21.5416 16.7586C21.5888 15.7346 21.6 15.4074 21.6 12.8002C21.6 10.193 21.5888 9.86659 21.5424 8.8426C21.3856 5.3594 19.4488 3.4186 15.9592 3.2586C14.9344 3.2114 14.6072 3.2002 12 3.2002V3.2002ZM12 7.87059C9.27762 7.87059 7.07042 10.0778 7.07042 12.8002C7.07042 15.5226 9.27762 17.7306 12 17.7306C14.7224 17.7306 16.9296 15.5234 16.9296 12.8002C16.9296 10.0778 14.7224 7.87059 12 7.87059ZM12 16.0002C10.2328 16.0002 8.80002 14.5682 8.80002 12.8002C8.80002 11.033 10.2328 9.60019 12 9.60019C13.7672 9.60019 15.2 11.033 15.2 12.8002C15.2 14.5682 13.7672 16.0002 12 16.0002ZM17.1248 6.5242C16.488 6.5242 15.972 7.04019 15.972 7.67619C15.972 8.31219 16.488 8.82819 17.1248 8.82819C17.7608 8.82819 18.276 8.31219 18.276 7.67619C18.276 7.04019 17.7608 6.5242 17.1248 6.5242Z" fill="currentColor"/>
</svg>
