<svg width="24" height="24" viewBox="0 0 24 24" fill="none" xmlns="http://www.w3.org/2000/svg">
<path fill-rule="evenodd" clip-rule="evenodd" d="M19.7546 19.4133C20.8439 19.2533 21.7257 18.4 21.9331 17.28C22.1406 16.0533 22.3481 14.24 22.4 12C22.4 9.76 22.1406 7.94667 21.9331 6.72C21.7257 5.6 20.8439 4.74667 19.7546 4.58667C17.991 4.32 15.19 4 11.974 4C8.75808 4 5.90521 4.32 4.19349 4.58667C3.10422 4.74667 2.22242 5.6 2.01494 6.72C1.80746 7.94667 1.59998 9.76 1.59998 12C1.59998 14.24 1.80746 16.0533 2.01494 17.28C2.22242 18.4 3.10422 19.2533 4.19349 19.4133C5.95708 19.68 8.80995 20 11.974 20C15.19 20 18.0429 19.68 19.7546 19.4133ZM16.1237 12L9.89923 8.26667V15.7333L16.1237 12Z" fill="currentColor"/>
</svg>
